<svg width="19" height="19" viewBox="0 0 19 19" fill="none" xmlns="http://www.w3.org/2000/svg">
<path d="M14.3351 10.8799V8.54267H11.9981V6.88353H14.3351V4.54653H15.9943V6.88353H18.3314V8.54267H15.9943V10.8799H14.3351ZM7.13926 9.41944C6.22106 9.41944 5.43691 9.09439 4.78682 8.4443C4.13673 7.79421 3.81169 7.01007 3.81169 6.09187C3.81169 5.1738 4.13673 4.39044 4.78682 3.7418C5.43691 3.0933 6.22106 2.76904 7.13926 2.76904C8.05733 2.76904 8.84148 3.0933 9.4917 3.7418C10.1418 4.39044 10.4668 5.1738 10.4668 6.09187C10.4668 7.01007 10.1418 7.79421 9.4917 8.4443C8.84148 9.09439 8.05733 9.41944 7.13926 9.41944ZM0.64502 16.0748V13.6877C0.64502 13.2097 0.768652 12.7704 1.01592 12.3698C1.26318 11.9691 1.59172 11.6633 2.00154 11.4524C2.8291 11.0402 3.6713 10.7303 4.52815 10.5226C5.38512 10.3149 6.2555 10.2111 7.13926 10.2111C8.02896 10.2111 8.90237 10.3142 9.75948 10.5203C10.6166 10.7263 11.4557 11.0355 12.2768 11.4477C12.6866 11.6581 13.0152 11.9633 13.2626 12.3631C13.5099 12.7628 13.6335 13.2043 13.6335 13.6873V16.0748H0.64502ZM2.44606 14.2737H11.8325V13.7113C11.8325 13.5692 11.7962 13.44 11.7236 13.3237C11.651 13.2075 11.5554 13.1171 11.4366 13.0526C10.743 12.709 10.0381 12.4497 9.32189 12.2748C8.60569 12.0997 7.87815 12.0121 7.13926 12.0121C6.4067 12.0121 5.6791 12.0997 4.95644 12.2748C4.23391 12.4497 3.52906 12.709 2.84189 13.0526C2.72314 13.1171 2.62749 13.2075 2.55492 13.3237C2.48235 13.44 2.44606 13.5692 2.44606 13.7113V14.2737ZM7.13906 7.6184C7.55878 7.6184 7.91813 7.46897 8.21711 7.17012C8.51623 6.87126 8.66579 6.51191 8.66579 6.09206C8.66579 5.67235 8.5163 5.31379 8.21731 5.01639C7.91846 4.71885 7.55917 4.57008 7.13946 4.57008C6.71961 4.57008 6.36019 4.71912 6.06121 5.01718C5.76222 5.31524 5.61273 5.67347 5.61273 6.09187C5.61273 6.51171 5.76216 6.87113 6.06101 7.17012C6.36 7.46897 6.71935 7.6184 7.13906 7.6184Z" fill="white"/>
</svg>
