<svg width="26" height="26" viewBox="0 0 26 26" fill="none" xmlns="http://www.w3.org/2000/svg">
<path d="M0.882812 21.9971V18.7306C0.882812 18.0764 1.05199 17.4753 1.39035 16.9271C1.72872 16.3787 2.1783 15.9603 2.7391 15.6718C3.87155 15.1077 5.02403 14.6836 6.19656 14.3994C7.36927 14.1152 8.56031 13.9731 9.76967 13.9731C10.9872 13.9731 12.1823 14.1141 13.3552 14.3962C14.5281 14.6782 15.6764 15.1012 16.8 15.6653C17.3608 15.9533 17.8104 16.3708 18.149 16.9179C18.4873 17.465 18.6565 18.069 18.6565 18.73V21.9971H0.882812ZM20.9204 21.9971V18.5331C20.9204 17.7215 20.7013 16.9393 20.2631 16.1864C19.8251 15.4336 19.1934 14.763 18.3681 14.1746C19.2414 14.2916 20.067 14.4778 20.8449 14.7331C21.6229 14.9884 22.3553 15.2991 23.0421 15.6653C23.7095 16.0264 24.2222 16.4526 24.5805 16.9439C24.9385 17.435 25.1175 17.9712 25.1175 18.5526V21.9971H20.9204ZM9.76967 12.8898C8.54333 12.8898 7.4962 12.4558 6.62827 11.5879C5.76016 10.7198 5.3261 9.67265 5.3261 8.44649C5.3261 7.22034 5.76016 6.17321 6.62827 5.3051C7.4962 4.43699 8.54333 4.00293 9.76967 4.00293C10.9958 4.00293 12.043 4.43699 12.9111 5.3051C13.779 6.17321 14.213 7.22034 14.213 8.44649C14.213 9.67265 13.779 10.7198 12.9111 11.5879C12.043 12.4558 10.9958 12.8898 9.76967 12.8898ZM20.9204 8.44649C20.9204 9.66831 20.4854 10.7144 19.6153 11.5846C18.7454 12.4547 17.6996 12.8898 16.4779 12.8898C16.2743 12.8898 16.0211 12.8662 15.7185 12.8191C15.4159 12.7718 15.1566 12.7167 14.9407 12.6539C15.4369 12.0674 15.8169 11.4138 16.0809 10.6931C16.3449 9.97228 16.4769 9.22369 16.4769 8.44731C16.4769 7.6711 16.3449 6.92233 16.0809 6.20101C15.8169 5.47951 15.4369 4.82554 14.9407 4.2391C15.1978 4.14449 15.4527 4.08147 15.7055 4.05005C15.9583 4.01864 16.2144 4.00293 16.4739 4.00293C17.6966 4.00293 18.7434 4.43807 19.6142 5.30835C20.485 6.17844 20.9204 7.22449 20.9204 8.44649Z" fill="#A78BFA"/>
</svg>
