<svg width="26" height="26" viewBox="0 0 26 26" fill="none" xmlns="http://www.w3.org/2000/svg">
<path d="M17.0212 22.2876L13.2125 18.4789L14.8004 16.8975L17.0212 19.1184L22.492 13.6475L24.0799 15.2289L17.0212 22.2876ZM10.8078 12.8897C9.55145 12.8897 8.47841 12.4449 7.58863 11.5553C6.69903 10.6657 6.25423 9.59269 6.25423 8.33621C6.25423 7.0799 6.69903 6.00794 7.58863 5.12033C8.47841 4.2329 9.55145 3.78918 10.8078 3.78918C12.0642 3.78918 13.1373 4.2329 14.0269 5.12033C14.9165 6.00794 15.3613 7.0799 15.3613 8.33621C15.3613 9.59269 14.9165 10.6657 14.0269 11.5553C13.1373 12.4449 12.0642 12.8897 10.8078 12.8897ZM14.0962 14.3306L9.94109 18.4789L13.4527 21.997H1.9209V18.7305C1.9209 18.0957 2.08737 17.4992 2.42031 16.9411C2.75308 16.383 3.20546 15.9599 3.77746 15.6717C4.69829 15.2023 5.75265 14.8018 6.94052 14.4703C8.1284 14.1388 9.41748 13.9731 10.8078 13.9731C11.3494 13.9731 11.911 14.0056 12.4926 14.0706C13.0742 14.1356 13.6087 14.2222 14.0962 14.3306Z" fill="#A78BFA"/>
</svg>
