<svg width="24" height="24" viewBox="0 0 24 24" fill="none" xmlns="http://www.w3.org/2000/svg">
<path d="M12.0001 0.814697L21.0979 6.24445C21.4617 6.46361 21.7369 6.75253 21.9234 7.1112C22.11 7.4697 22.2034 7.85578 22.2034 8.26945V18.9819C22.2034 19.6118 21.9816 20.1484 21.5381 20.5917C21.0946 21.0352 20.558 21.2569 19.9284 21.2569H4.07187C3.44221 21.2569 2.90562 21.0352 2.46213 20.5917C2.01862 20.1484 1.79688 19.6118 1.79688 18.9819V8.26945C1.79688 7.85578 1.89021 7.4697 2.07687 7.1112C2.26337 6.75253 2.53854 6.46361 2.90237 6.24445L12.0001 0.814697ZM12.0001 12.6319L19.6746 8.0537L12.0001 3.47545L4.32563 8.0537L12.0001 12.6319Z" fill="#94A3B8"/>
</svg>
