<svg width="24" height="24" viewBox="0 0 24 24" fill="none" xmlns="http://www.w3.org/2000/svg">
<path d="M1.9356 7.91399C1.84875 8.82281 -0.0840024 10.1032 0.00284033 13.3447C0.0896831 16.5861 2.64649 22.243 11.66 22.3864C20.6734 22.5278 23.9714 16.8709 23.9997 12.9751C24.026 9.36406 22.2669 8.6471 22.067 7.71607C21.8973 6.92034 23.4322 3.28103 19.9908 1.97233C15.9294 0.427337 14.4167 4.33122 14.3036 4.41604C14.1905 4.50087 13.0818 4.55741 12.1144 4.55741C11.147 4.55741 10.0948 4.55741 9.98168 4.44432C9.86858 4.33122 7.39457 0.407141 3.8118 2.05513C0.451192 3.60416 1.99214 7.31619 1.9356 7.91399Z" fill="#B7D019"/>
<path d="M19.8939 6.70021C19.8939 7.76858 19.288 8.67134 18.2741 8.63296C17.3997 8.60065 16.6908 7.76656 16.6908 6.70021C16.6908 5.63386 17.3997 4.78361 18.2741 4.76745C19.3062 4.74726 19.8939 5.63184 19.8939 6.70021ZM7.53594 6.54874C7.59249 7.91399 6.93006 8.59661 5.91622 8.57642C5.06395 8.56026 4.38941 7.93216 4.37123 6.62346C4.35507 5.545 4.76909 4.70888 5.91622 4.67051C6.76849 4.64426 7.49151 5.47229 7.53594 6.54874ZM9.83828 10.9696C9.6747 11.3311 9.22029 11.4442 8.91533 11.2685C8.61239 11.0928 8.52958 10.6162 8.72751 10.2729C8.92543 9.92955 9.2627 9.87704 9.50909 9.97398C9.83828 10.1032 10.0806 10.4344 9.83828 10.9696ZM15.2993 10.3739C15.4548 10.7495 15.267 11.1898 14.9075 11.2968C14.548 11.4039 14.1622 11.1736 14.0471 10.7838C13.932 10.3941 14.0754 10.0548 14.4248 9.91541C14.653 9.82655 15.069 9.81847 15.2993 10.3739Z" fill="#2F2F2F"/>
<path d="M4.61762 13.9607L4.69437 14.51C4.69437 14.51 6.81696 16.7275 11.9346 16.8043C17.1856 16.883 19.4597 14.3222 19.4597 14.3222L17.1088 13.1851C17.1088 13.1851 14.8731 14.1323 11.9912 14.0758C9.10921 14.0192 6.26763 13.1851 6.26763 13.1851L4.61762 13.9607Z" fill="#FF6011"/>
<path d="M20.1988 12.6701C19.5364 11.7028 18.7387 12.5833 17.4885 13.0498C16.7958 13.3083 16.3374 13.4578 16.3374 13.4578C16.3374 13.4578 17.3653 13.6577 17.8197 13.9041C18.2741 14.1505 19.0658 14.6897 19.0658 14.6897C19.0658 14.6897 20.7562 13.4861 20.1988 12.6701ZM4.08647 12.557C3.29075 13.0882 4.69639 14.512 4.69639 14.512C4.69639 14.512 5.1306 14.1121 5.7183 13.8657C6.30601 13.6194 7.28955 13.4416 7.28955 13.4416C7.28955 13.4416 6.15252 13.1851 5.49211 12.8034C5.1508 12.6096 4.54088 12.2541 4.08647 12.557Z" fill="#865B51"/>
</svg>
