<svg width="21" height="17" viewBox="0 0 21 17" fill="none" xmlns="http://www.w3.org/2000/svg">
<path d="M2.34119 16.8839C1.69321 16.8839 1.14101 16.6557 0.684606 16.1993C0.228202 15.7429 0 15.1907 0 14.5427V2.34119C0 1.69321 0.228202 1.14101 0.684606 0.684606C1.14101 0.228202 1.69321 0 2.34119 0H18.6591C19.3071 0 19.8592 0.228202 20.3157 0.684606C20.7721 1.14101 21.0003 1.69321 21.0003 2.34119V14.5427C21.0003 15.1907 20.7721 15.7429 20.3157 16.1993C19.8592 16.6557 19.3071 16.8839 18.6591 16.8839H2.34119ZM10.5001 9.73551L18.6591 4.59003V2.34119L10.5001 7.48668L2.34119 2.34119V4.59003L10.5001 9.73551Z" fill="white"/>
</svg>
