<svg width="26" height="26" viewBox="0 0 26 26" fill="none" xmlns="http://www.w3.org/2000/svg">
<path d="M12.4583 16.25C13.7041 16.25 14.7875 15.8437 15.7083 15.0312C16.6291 14.2187 17.1708 13.1986 17.3333 11.9708L8.66664 14.4083C9.13608 14.9861 9.69581 15.4375 10.3458 15.7625C10.9958 16.0875 11.7 16.25 12.4583 16.25ZM7.96247 12.1875L10.8333 11.375C10.9055 10.8694 10.7791 10.4271 10.4541 10.0479C10.1291 9.66874 9.71386 9.47916 9.20831 9.47916C8.75692 9.47916 8.37324 9.63714 8.05726 9.95311C7.74129 10.2691 7.58331 10.6528 7.58331 11.1042C7.58331 11.3028 7.61942 11.4923 7.69164 11.6729C7.76386 11.8535 7.85414 12.025 7.96247 12.1875ZM14.4625 10.2917L17.3333 9.47916C17.4236 8.9736 17.3017 8.53124 16.9677 8.15207C16.6337 7.7729 16.2139 7.58332 15.7083 7.58332C15.2569 7.58332 14.8732 7.74131 14.5573 8.05728C14.2413 8.37325 14.0833 8.75693 14.0833 9.20832C14.0833 9.40693 14.1194 9.59652 14.1916 9.77707C14.2639 9.95763 14.3541 10.1292 14.4625 10.2917ZM17.424 22.9702H5.49437C4.81223 22.9702 4.23093 22.7299 3.75047 22.2495C3.27001 21.769 3.02979 21.1877 3.02979 20.5056V5.49438C3.02979 4.81225 3.27001 4.23095 3.75047 3.75049C4.23093 3.27003 4.81223 3.0298 5.49437 3.0298H20.5056C21.1877 3.0298 21.769 3.27003 22.2495 3.75049C22.7299 4.23095 22.9702 4.81225 22.9702 5.49438V17.4241L17.424 22.9702ZM16.1722 20.5056V18.4167C16.1722 17.7995 16.392 17.2711 16.8315 16.8315C17.2711 16.392 17.7995 16.1723 18.4166 16.1723H20.5056V5.49438H5.49437V20.5056H16.1722Z" fill="white"/>
</svg>
