<svg width="32" height="32" viewBox="0 0 32 32" fill="none" xmlns="http://www.w3.org/2000/svg">
<path d="M5.0625 25.618V22.5846H7.6335V13.5223C7.6335 11.6087 8.20372 9.90208 9.34417 8.4023C10.4844 6.90252 11.9753 5.92253 13.8168 5.4623V4.59264C13.8168 3.98619 14.0291 3.47063 14.4535 3.04597C14.8782 2.62152 15.3937 2.4093 16.0002 2.4093C16.6066 2.4093 17.1222 2.62152 17.5468 3.04597C17.9713 3.47063 18.1835 3.98619 18.1835 4.59264V5.4623C20.0304 5.92253 21.5226 6.90119 22.6602 8.3983C23.7979 9.89541 24.3668 11.6034 24.3668 13.5223V22.5846H26.9378V25.618H5.0625ZM16.0082 29.7056C15.2486 29.7056 14.5983 29.436 14.0572 28.8966C13.5163 28.3573 13.2458 27.7089 13.2458 26.9513H18.7625C18.7625 27.7113 18.4928 28.3603 17.9535 28.8983C17.4139 29.4365 16.7655 29.7056 16.0082 29.7056Z" fill="#A78BFA"/>
</svg>
