<svg width="30" height="29" viewBox="0 0 30 29" fill="none" xmlns="http://www.w3.org/2000/svg">
<path d="M15.4797 14.3024C16.107 13.6193 16.584 12.8445 16.9106 11.9779C17.2373 11.1113 17.4006 10.2169 17.4006 9.29449C17.4006 8.37233 17.2324 7.47434 16.8961 6.60051C16.56 5.72669 16.083 4.95789 15.4652 4.29411C16.7506 4.49369 17.7973 5.07197 18.6053 6.02897C19.4133 6.98577 19.8173 8.07549 19.8173 9.29812C19.8173 10.5403 19.4109 11.6374 18.5981 12.5893C17.7853 13.5413 16.7458 14.1123 15.4797 14.3024ZM22.2339 24.5352V20.6933C22.2339 19.9008 22.0752 19.1654 21.7579 18.4869C21.4405 17.8082 21.0055 17.2027 20.4529 16.6705C21.5716 17.0088 22.5701 17.4938 23.4483 18.1256C24.3268 18.7574 24.766 19.6133 24.766 20.6933V24.5352H22.2339ZM29.5993 13.0893H22.3061V10.6726H29.5993V13.0893ZM9.91226 14.377C8.51079 14.377 7.31394 13.8809 6.3217 12.8887C5.32945 11.8964 4.83333 10.6996 4.83333 9.29812C4.83333 7.89685 5.32945 6.70121 6.3217 5.71118C7.31394 4.72135 8.51079 4.22644 9.91226 4.22644C11.3135 4.22644 12.5092 4.72135 13.4992 5.71118C14.489 6.70121 14.9839 7.89685 14.9839 9.29812C14.9839 10.6996 14.489 11.8964 13.4992 12.8887C12.5092 13.8809 11.3135 14.377 9.91226 14.377ZM0 24.5352V20.8918C0 20.1619 0.18699 19.4912 0.560969 18.8796C0.935149 18.268 1.4359 17.8015 2.06323 17.48C3.33117 16.8509 4.62036 16.3778 5.9308 16.0609C7.24144 15.7439 8.56859 15.5854 9.91226 15.5854C11.2702 15.5854 12.6033 15.7427 13.9115 16.0572C15.2196 16.3718 16.5003 16.8437 17.7537 17.4728C18.3813 17.7942 18.882 18.2599 19.256 18.8699C19.6302 19.4801 19.8173 20.1539 19.8173 20.8912V24.5352H0ZM9.91196 11.6281C10.5526 11.6281 11.0999 11.4 11.5538 10.9439C12.0079 10.4877 12.235 9.93924 12.235 9.29842C12.235 8.6578 12.0075 8.11053 11.5526 7.6566C11.0976 7.20247 10.5509 6.9754 9.91226 6.9754C9.27144 6.9754 8.72286 7.20287 8.26651 7.65781C7.81036 8.11274 7.58229 8.65951 7.58229 9.29812C7.58229 9.93894 7.81036 10.4875 8.26651 10.9439C8.72286 11.4 9.27134 11.6281 9.91196 11.6281ZM2.74896 21.7862H17.0683V20.9277C17.0683 20.7108 17.0129 20.5137 16.9022 20.3362C16.7914 20.1588 16.6454 20.0209 16.4641 19.9224C15.4054 19.3931 14.3295 18.9962 13.2364 18.7316C12.1432 18.4668 11.0358 18.3343 9.91407 18.3343C8.79234 18.3343 7.68067 18.468 6.57907 18.7352C5.47727 19.0022 4.40196 19.398 3.35312 19.9224C3.17188 20.0209 3.02587 20.1588 2.9151 20.3362C2.80434 20.5137 2.74896 20.7108 2.74896 20.9277V21.7862Z" fill="#94A3B8"/>
</svg>
