<svg width="25" height="24" viewBox="0 0 25 24" fill="none" xmlns="http://www.w3.org/2000/svg">
<path d="M0 18.0957V16.425C0 15.6765 0.376667 15.0692 1.13 14.6032C1.88333 14.1372 2.87192 13.9042 4.09575 13.9042C4.28058 13.9042 4.456 13.9074 4.622 13.9137C4.78817 13.9201 4.951 13.936 5.1105 13.9615C4.86517 14.3273 4.68217 14.7116 4.5615 15.1142C4.44083 15.5171 4.3805 15.9373 4.3805 16.375V18.0957H0ZM6 18.0957V16.375C6 15.8297 6.14683 15.3292 6.4405 14.8737C6.73417 14.4181 7.15367 14.0196 7.699 13.6782C8.24433 13.3369 8.89283 13.0809 9.6445 12.9102C10.396 12.7396 11.213 12.6542 12.0955 12.6542C12.995 12.6542 13.8195 12.7396 14.569 12.9102C15.3187 13.0809 15.9662 13.3369 16.5115 13.6782C17.0568 14.0196 17.4732 14.4181 17.7605 14.8737C18.0478 15.3292 18.1915 15.8297 18.1915 16.375V18.0957H6ZM19.811 18.0957V16.375C19.811 15.9203 19.7538 15.4918 19.6395 15.0895C19.5252 14.6872 19.3537 14.3112 19.125 13.9615C19.2845 13.936 19.4443 13.9201 19.6045 13.9137C19.7648 13.9074 19.9286 13.9042 20.0958 13.9042C21.3244 13.9042 22.3142 14.1338 23.065 14.593C23.816 15.052 24.1915 15.6627 24.1915 16.425V18.0957H19.811ZM8.394 15.9342H15.8225C15.6118 15.6287 15.1483 15.365 14.432 15.143C13.7155 14.9208 12.9377 14.8097 12.0988 14.8097C11.2598 14.8097 10.481 14.9208 9.7625 15.143C9.04417 15.365 8.588 15.6287 8.394 15.9342ZM4.09625 12.9282C3.52992 12.9282 3.045 12.7267 2.6415 12.3235C2.23783 11.9203 2.036 11.4357 2.036 10.8695C2.036 10.2862 2.23758 9.79691 2.64075 9.40174C3.04392 9.00641 3.52858 8.80874 4.09475 8.80874C4.67808 8.80874 5.16733 9.00608 5.5625 9.40074C5.95783 9.79541 6.1555 10.2845 6.1555 10.868C6.1555 11.4343 5.95817 11.9192 5.5635 12.3227C5.16883 12.7264 4.67975 12.9282 4.09625 12.9282ZM20.0963 12.9282C19.5299 12.9282 19.045 12.7267 18.6415 12.3235C18.2378 11.9203 18.036 11.4357 18.036 10.8695C18.036 10.2862 18.2376 9.79691 18.6408 9.40174C19.0439 9.00641 19.5286 8.80874 20.0948 8.80874C20.6781 8.80874 21.1673 9.00608 21.5625 9.40074C21.9578 9.79541 22.1555 10.2845 22.1555 10.868C22.1555 11.4343 21.9582 11.9192 21.5635 12.3227C21.1688 12.7264 20.6798 12.9282 20.0963 12.9282ZM12.0957 11.9102C11.2359 11.9102 10.505 11.6093 9.903 11.0075C9.301 10.4055 9 9.67458 9 8.81474C9 7.94074 9.301 7.20633 9.903 6.61149C10.505 6.01649 11.2359 5.71899 12.0957 5.71899C12.9696 5.71899 13.704 6.01649 14.299 6.61149C14.894 7.20633 15.1915 7.94074 15.1915 8.81474C15.1915 9.67458 14.894 10.4055 14.299 11.0075C13.704 11.6093 12.9696 11.9102 12.0957 11.9102ZM12.0988 9.75499C12.3641 9.75499 12.5867 9.66408 12.7665 9.48224C12.9462 9.30058 13.036 9.07708 13.036 8.81174C13.036 8.54624 12.9459 8.32366 12.7657 8.14399C12.5854 7.96433 12.3621 7.87449 12.0957 7.87449C11.8324 7.87449 11.6098 7.96458 11.428 8.14474C11.2463 8.32491 11.1555 8.54824 11.1555 8.81474C11.1555 9.07808 11.2463 9.30058 11.428 9.48224C11.6098 9.66408 11.8334 9.75499 12.0988 9.75499Z" fill="#F8FAFC"/>
</svg>
