<svg width="19" height="19" viewBox="0 0 19 19" fill="none" xmlns="http://www.w3.org/2000/svg">
<path d="M14.3162 17.5123C13.6157 17.5123 13.0204 17.2676 12.5302 16.7782C12.0399 16.2888 11.7948 15.6946 11.7948 14.9954C11.7948 14.9194 11.813 14.7488 11.8494 14.4838L6.44884 11.3373C6.22836 11.532 5.97655 11.6847 5.6934 11.7953C5.41024 11.9058 5.1069 11.9611 4.78338 11.9611C4.08288 11.9611 3.48748 11.7156 2.99718 11.2247C2.50687 10.7336 2.26172 10.1373 2.26172 9.4359C2.26172 8.73435 2.50687 8.1377 2.99718 7.64594C3.48748 7.15418 4.08288 6.90831 4.78338 6.90831C5.10637 6.90831 5.41117 6.96438 5.69775 7.07654C5.98433 7.18869 6.23945 7.34372 6.46309 7.54164L11.8448 4.40466C11.8215 4.31863 11.8073 4.23353 11.8023 4.14935C11.7973 4.06517 11.7948 3.97498 11.7948 3.8788C11.7948 3.1783 12.04 2.5829 12.5304 2.0926C13.0209 1.60229 13.6163 1.35714 14.3168 1.35714C15.0174 1.35714 15.6128 1.60236 16.103 2.0928C16.5932 2.5831 16.8383 3.17857 16.8383 3.87919C16.8383 4.57968 16.5931 5.17502 16.1028 5.66519C15.6125 6.1555 15.0171 6.40065 14.3166 6.40065C13.9861 6.40065 13.6763 6.34299 13.3872 6.22767C13.0981 6.11235 12.8417 5.95257 12.6179 5.74832L7.25516 8.8663C7.28155 8.96196 7.29804 9.05425 7.30464 9.14318C7.31123 9.23198 7.31453 9.32995 7.31453 9.43709C7.31453 9.54423 7.31044 9.64385 7.30226 9.73594C7.29408 9.82804 7.27679 9.92179 7.25041 10.0172L12.6084 13.1354C12.8322 12.9279 13.0896 12.765 13.3807 12.6465C13.6719 12.528 13.9839 12.4688 14.3166 12.4688C15.0171 12.4688 15.6125 12.7143 16.1028 13.2054C16.5931 13.6965 16.8383 14.2928 16.8383 14.9942C16.8383 15.6957 16.5931 16.2908 16.1026 16.7794C15.6123 17.268 15.0169 17.5123 14.3162 17.5123ZM14.3137 15.7585C14.5304 15.7585 14.7131 15.6849 14.8617 15.5377C15.0103 15.3904 15.0845 15.2079 15.0845 14.9902C15.0845 14.7725 15.0105 14.5901 14.8625 14.443C14.7143 14.296 14.5308 14.2225 14.3119 14.2225C14.0956 14.2225 13.9143 14.2968 13.768 14.4454C13.6217 14.5939 13.5485 14.7757 13.5485 14.9906C13.5485 15.2054 13.6219 15.3871 13.7686 15.5357C13.9152 15.6843 14.0969 15.7585 14.3137 15.7585ZM4.78377 10.2074C5.00148 10.2074 5.18541 10.1334 5.33556 9.98551C5.48585 9.83761 5.56099 9.65433 5.56099 9.4357C5.56099 9.21707 5.48585 9.03347 5.33556 8.8849C5.18541 8.73633 5.00148 8.66205 4.78377 8.66205C4.56606 8.66205 4.38358 8.736 4.23633 8.88391C4.08908 9.03182 4.01546 9.21509 4.01546 9.43372C4.01546 9.65236 4.08908 9.83596 4.23633 9.98452C4.38358 10.1331 4.56606 10.2074 4.78377 10.2074ZM14.3166 4.64691C14.5314 4.64691 14.7123 4.57355 14.8593 4.42683C15.0063 4.28024 15.0798 4.09855 15.0798 3.88176C15.0798 3.66498 15.0065 3.4823 14.8599 3.33373C14.7132 3.18516 14.5314 3.11088 14.3146 3.11088C14.0979 3.11088 13.9152 3.1849 13.7666 3.33294C13.618 3.48112 13.5438 3.66465 13.5438 3.88355C13.5438 4.0998 13.6188 4.28109 13.769 4.42742C13.9191 4.57375 14.1017 4.64691 14.3166 4.64691Z" fill="white"/>
</svg>
