<svg width="24" height="24" viewBox="0 0 24 24" fill="none" xmlns="http://www.w3.org/2000/svg">
<path d="M18.0837 22.1208C17.1989 22.1208 16.4469 21.8117 15.8277 21.1935C15.2084 20.5754 14.8987 19.8247 14.8987 18.9415C14.8987 18.8455 14.9217 18.6301 14.9677 18.2953L8.14593 14.3208C7.86743 14.5668 7.54935 14.7596 7.19168 14.8993C6.83402 15.039 6.45085 15.1088 6.04218 15.1088C5.15735 15.1088 4.40527 14.7987 3.78593 14.1785C3.1666 13.5582 2.85693 12.805 2.85693 11.919C2.85693 11.0329 3.1666 10.2792 3.78593 9.65804C4.40527 9.03687 5.15735 8.72629 6.04218 8.72629C6.45018 8.72629 6.83518 8.79712 7.19718 8.93879C7.55918 9.08045 7.88143 9.27629 8.16393 9.52629L14.9619 5.56379C14.9324 5.45512 14.9145 5.34762 14.9082 5.24129C14.9018 5.13495 14.8987 5.02104 14.8987 4.89954C14.8987 4.0147 15.2084 3.26262 15.8279 2.64329C16.4474 2.02395 17.1996 1.71429 18.0844 1.71429C18.9694 1.71429 19.7215 2.02404 20.3407 2.64354C20.9599 3.26287 21.2694 4.01504 21.2694 4.90004C21.2694 5.78487 20.9598 6.53687 20.3404 7.15604C19.7211 7.77537 18.969 8.08504 18.0842 8.08504C17.6667 8.08504 17.2754 8.0122 16.9102 7.86654C16.545 7.72087 16.2211 7.51904 15.9384 7.26104L9.16443 11.1995C9.19777 11.3204 9.2186 11.437 9.22693 11.5493C9.23527 11.6615 9.23943 11.7852 9.23943 11.9205C9.23943 12.0559 9.23427 12.1817 9.22393 12.298C9.2136 12.4144 9.19177 12.5328 9.15843 12.6533L15.9264 16.592C16.2091 16.33 16.5343 16.1242 16.9019 15.9745C17.2698 15.8249 17.6639 15.75 18.0842 15.75C18.969 15.75 19.7211 16.0602 20.3404 16.6805C20.9598 17.3009 21.2694 18.054 21.2694 18.94C21.2694 19.8262 20.9597 20.5779 20.3402 21.195C19.7209 21.8122 18.9687 22.1208 18.0837 22.1208Z" fill="#F8FAFC"/>
</svg>
