<svg width="26" height="26" viewBox="0 0 26 26" fill="none" xmlns="http://www.w3.org/2000/svg">
<path d="M19.6166 14.8883V11.6901H16.4186V9.41966H19.6166V6.22166H21.887V9.41966H25.0853V11.6901H21.887V14.8883H19.6166ZM9.76967 12.8898C8.51318 12.8898 7.44014 12.4451 6.55054 11.5555C5.66094 10.6659 5.21615 9.59281 5.21615 8.33633C5.21615 7.08002 5.66094 6.00806 6.55054 5.12045C7.44014 4.23302 8.51318 3.78931 9.76967 3.78931C11.026 3.78931 12.099 4.23302 12.9888 5.12045C13.8784 6.00806 14.3232 7.08002 14.3232 8.33633C14.3232 9.59281 13.8784 10.6659 12.9888 11.5555C12.099 12.4451 11.026 12.8898 9.76967 12.8898ZM0.882812 21.9972V18.7306C0.882812 18.0765 1.05199 17.4753 1.39035 16.9272C1.72872 16.3788 2.1783 15.9604 2.7391 15.6719C3.87155 15.1078 5.02403 14.6837 6.19656 14.3995C7.36927 14.1153 8.56031 13.9732 9.76967 13.9732C10.9872 13.9732 12.1823 14.1142 13.3552 14.3962C14.5281 14.6783 15.6764 15.1013 16.8 15.6653C17.3608 15.9533 17.8104 16.3709 18.149 16.918C18.4873 17.465 18.6565 18.0691 18.6565 18.7301V21.9972H0.882812ZM3.3474 19.5326H16.1919V18.7629C16.1919 18.5684 16.1423 18.3916 16.043 18.2326C15.9437 18.0735 15.8128 17.9498 15.6503 17.8615C14.7011 17.3914 13.7365 17.0366 12.7564 16.7972C11.7764 16.5576 10.7808 16.4378 9.76967 16.4378C8.76722 16.4378 7.77155 16.5576 6.78265 16.7972C5.79392 17.0366 4.8294 17.3914 3.88906 17.8615C3.72656 17.9498 3.59566 18.0735 3.49635 18.2326C3.39705 18.3916 3.3474 18.5684 3.3474 18.7629V19.5326ZM9.7694 10.4253C10.3437 10.4253 10.8355 10.2208 11.2446 9.81183C11.6539 9.40287 11.8586 8.91113 11.8586 8.3366C11.8586 7.76225 11.654 7.27159 11.2449 6.86462C10.8359 6.45747 10.3443 6.25389 9.76994 6.25389C9.19541 6.25389 8.70358 6.45783 8.29444 6.8657C7.8853 7.27358 7.68073 7.76379 7.68073 8.33633C7.68073 8.91086 7.88521 9.40269 8.29417 9.81183C8.70331 10.2208 9.19505 10.4253 9.7694 10.4253Z" fill="#94A3B8"/>
</svg>
