<svg width="18" height="15" viewBox="0 0 18 15" fill="none" xmlns="http://www.w3.org/2000/svg">
<path d="M2.00671 14.4717C1.4513 14.4717 0.977996 14.2761 0.586798 13.8849C0.195599 13.4937 0 13.0204 0 12.465V2.00671C0 1.4513 0.195599 0.977995 0.586798 0.586797C0.977996 0.195599 1.4513 0 2.00671 0H15.9933C16.5487 0 17.022 0.195599 17.4132 0.586797C17.8044 0.977995 18 1.4513 18 2.00671V12.465C18 13.0204 17.8044 13.4937 17.4132 13.8849C17.022 14.2761 16.5487 14.4717 15.9933 14.4717H2.00671ZM8.99999 8.34461L15.9933 3.93426V2.00671L8.99999 6.41706L2.00671 2.00671V3.93426L8.99999 8.34461Z" fill="#94A3B8"/>
</svg>
