<svg width="19" height="19" viewBox="0 0 19 19" fill="none" xmlns="http://www.w3.org/2000/svg">
<path d="M9.62991 17.7648C8.513 17.7648 7.46345 17.5522 6.48126 17.1271C5.49919 16.7021 4.64399 16.1254 3.91566 15.3971C3.18746 14.6688 2.61159 13.813 2.18805 12.8297C1.76451 11.8465 1.55273 10.7958 1.55273 9.67769C1.55273 8.56157 1.76477 7.51275 2.18884 6.53121C2.61291 5.54955 3.18838 4.69567 3.91527 3.96958C4.64228 3.24336 5.49715 2.66847 6.47987 2.24493C7.46259 1.82139 8.51267 1.60962 9.63011 1.60962C10.7474 1.60962 11.7975 1.82139 12.7803 2.24493C13.7632 2.66847 14.6181 3.24336 15.3452 3.96958C16.0722 4.69567 16.6477 5.54955 17.0718 6.53121C17.4958 7.51275 17.7079 8.56157 17.7079 9.67769C17.7079 10.7958 17.4961 11.8465 17.0726 12.8297C16.649 13.813 16.0732 14.6688 15.345 15.3971C14.6166 16.1254 13.7613 16.7021 12.779 17.1271C11.7965 17.5522 10.7468 17.7648 9.62991 17.7648ZM9.63031 15.9637C10.3176 15.9637 10.9816 15.8562 11.6223 15.6411C12.2632 15.4259 12.8512 15.1085 13.3864 14.6889L4.61906 5.92638C4.20581 6.46788 3.89158 7.05747 3.67638 7.69516C3.46131 8.33272 3.35378 8.99356 3.35378 9.67769C3.35378 11.43 3.96257 12.9158 5.18015 14.135C6.39773 15.3541 7.88112 15.9637 9.63031 15.9637ZM14.6461 13.4292C15.0563 12.8876 15.369 12.298 15.5842 11.6604C15.7993 11.0227 15.9068 10.3618 15.9068 9.67769C15.9068 7.92811 15.298 6.44624 14.0805 5.23209C12.8629 4.0178 11.3795 3.41066 9.63031 3.41066C8.94618 3.41066 8.28612 3.51661 7.65015 3.72852C7.01405 3.94055 6.42525 4.25168 5.88375 4.66189L14.6461 13.4292Z" fill="white"/>
</svg>
