<svg width="57" height="64" viewBox="0 0 57 64" fill="none" xmlns="http://www.w3.org/2000/svg">
<path d="M57 31.4659C57 30.5704 56.7864 29.7301 56.4285 28.9664C54.0412 21.2651 42.8648 21.8276 26.9672 21.452C24.3093 21.3897 25.8296 18.2511 26.7625 11.3615C27.3695 6.88066 24.4802 0 19.6237 0C11.6161 0 19.3193 6.31632 12.2392 21.9362C8.45618 30.282 0 25.6071 0 33.9903V53.0728C0 56.336 0.320445 59.4728 4.90993 59.989C9.35877 60.4893 8.35827 63.6599 14.7761 63.6599H46.8989C48.4723 63.658 49.9807 63.032 51.0931 61.9193C52.2055 60.8065 52.831 59.298 52.8324 57.7246C52.8324 56.368 52.3571 55.1325 51.5898 54.132C53.4057 53.1155 54.6518 51.1964 54.6518 48.9711C54.6518 47.6181 54.1783 46.3826 53.4128 45.3839C55.234 44.3691 56.4837 42.4482 56.4837 40.2194C56.4837 38.6011 55.8286 37.1342 54.7729 36.0607C55.465 35.5109 56.0245 34.8124 56.41 34.0171C56.7955 33.2217 56.9971 32.3498 57 31.4659Z" fill="#FFDB5E"/>
<path d="M35.7509 37.3995H51.0682C53.1511 37.3995 55.1058 36.285 56.1704 34.4923C56.36 34.138 56.4054 33.7241 56.2973 33.3371C56.1892 32.95 55.9358 32.6197 55.5901 32.4149C55.2443 32.2101 54.8328 32.1467 54.4414 32.2379C54.05 32.329 53.709 32.5678 53.4893 32.9043C53.2389 33.3239 52.8841 33.6714 52.4595 33.9132C52.035 34.155 51.555 34.2827 51.0664 34.284H35.3824C33.8283 34.284 32.5643 33.02 32.5643 31.4659C32.5643 29.9117 33.8283 28.6478 35.3824 28.6478H45.8628C46.2759 28.6478 46.6721 28.4836 46.9642 28.1915C47.2564 27.8994 47.4205 27.5032 47.4205 27.09C47.4205 26.6769 47.2564 26.2807 46.9642 25.9886C46.6721 25.6964 46.2759 25.5323 45.8628 25.5323H35.3807C33.8076 25.5342 32.2994 26.16 31.1871 27.2723C30.0747 28.3847 29.449 29.8928 29.4471 31.4659C29.4471 33.2906 30.2927 34.9053 31.5923 35.9948C31.0298 36.5453 30.5829 37.2025 30.2778 37.9279C29.9727 38.6533 29.8156 39.4324 29.8156 40.2194C29.8156 42.0495 30.6666 43.6695 31.9733 44.7572C31.3561 45.3644 30.8799 46.0998 30.5784 46.9113C30.277 47.7229 30.1576 48.5909 30.2287 49.4537C30.2999 50.3165 30.5599 51.1532 30.9902 51.9044C31.4206 52.6556 32.0109 53.3031 32.7192 53.8009C31.7466 54.8767 31.2064 56.2743 31.2024 57.7246C31.2043 59.2977 31.83 60.8058 32.9424 61.9181C34.0548 63.0305 35.5629 63.6562 37.136 63.6581H46.8989C47.928 63.6554 48.9389 63.3864 49.8333 62.8773C50.7277 62.3681 51.4751 61.6363 52.0028 60.7528C52.204 60.3982 52.2582 59.9788 52.1537 59.5848C52.0492 59.1907 51.7944 58.8533 51.444 58.645C51.0935 58.4367 50.6754 58.3741 50.2793 58.4706C49.8832 58.5671 49.5407 58.815 49.3253 59.1612C49.0735 59.5804 48.718 59.9277 48.293 60.1697C47.868 60.4116 47.3879 60.5401 46.8989 60.5427H37.136C35.5818 60.5427 34.3178 59.2787 34.3178 57.7246C34.3178 56.1704 35.5818 54.9064 37.136 54.9064H48.7183C49.7476 54.9035 50.7586 54.6342 51.653 54.1248C52.5474 53.6153 53.2947 52.8831 53.8223 51.9993C53.9317 51.8233 54.0049 51.6273 54.0377 51.4227C54.0705 51.2181 54.0621 51.009 54.013 50.8077C53.964 50.6064 53.8752 50.4169 53.752 50.2503C53.6288 50.0837 53.4736 49.9433 53.2955 49.8375C53.1174 49.7316 52.9199 49.6623 52.7147 49.6337C52.5095 49.6051 52.3006 49.6177 52.1003 49.6708C51.9 49.7239 51.7124 49.8164 51.5483 49.943C51.3842 50.0695 51.247 50.2275 51.1448 50.4077C50.8971 50.8309 50.5426 51.1814 50.1167 51.4242C49.6908 51.667 49.2085 51.7935 48.7183 51.791H36.1444C35.418 51.7594 34.7318 51.4485 34.2289 50.9233C33.7261 50.3981 33.4454 49.6991 33.4454 48.972C33.4454 48.2449 33.7261 47.5458 34.2289 47.0206C34.7318 46.4954 35.418 46.1846 36.1444 46.1529H50.5484C51.5775 46.1502 52.5884 45.8812 53.4828 45.3721C54.3772 44.863 55.1246 44.1311 55.6523 43.2476C55.8535 42.893 55.9077 42.4737 55.8032 42.0796C55.6987 41.6855 55.4439 41.3481 55.0935 41.1398C54.743 40.9315 54.3249 40.8689 53.9288 40.9654C53.5327 41.0619 53.1902 41.3099 52.9748 41.656C52.727 42.0788 52.3724 42.429 51.9465 42.6715C51.5206 42.9139 51.0384 43.0402 50.5484 43.0375H35.7509C35.0245 43.0059 34.3383 42.6951 33.8355 42.1698C33.3327 41.6446 33.052 40.9456 33.052 40.2185C33.052 39.4914 33.3327 38.7923 33.8355 38.2671C34.3383 37.7419 35.0245 37.4311 35.7509 37.3995Z" fill="#EE9547"/>
</svg>
