<svg width="24" height="24" viewBox="0 0 24 24" fill="none" xmlns="http://www.w3.org/2000/svg">
<path d="M9.20918 18.0658C8.57951 18.0658 8.04293 17.8441 7.59943 17.4006C7.15593 16.9571 6.93418 16.4205 6.93418 15.7908V3.93432C6.93418 3.30465 7.15593 2.76807 7.59943 2.32457C8.04293 1.88107 8.57951 1.65932 9.20918 1.65932H18.0657C18.6953 1.65932 19.2319 1.88107 19.6754 2.32457C20.1189 2.76807 20.3407 3.30465 20.3407 3.93432V15.7908C20.3407 16.4205 20.1189 16.9571 19.6754 17.4006C19.2319 17.8441 18.6953 18.0658 18.0657 18.0658H9.20918ZM9.20918 15.7908H18.0657V3.93432H9.20918V15.7908ZM4.93418 22.3408C4.30451 22.3408 3.76793 22.1191 3.32443 21.6756C2.88093 21.2321 2.65918 20.6955 2.65918 20.0658V5.93432H4.93418V20.0658H16.0657V22.3408H4.93418Z" fill="#F8FAFC"/>
</svg>
