<svg width="19" height="19" viewBox="0 0 19 19" fill="none" xmlns="http://www.w3.org/2000/svg">
<path d="M7.48346 13.1288L13.1292 9.5L7.48346 5.8712V13.1288ZM9.50042 17.5776C8.38008 17.5776 7.32888 17.3657 6.34682 16.9419C5.36463 16.5181 4.51029 15.943 3.7838 15.2166C3.05745 14.4901 2.48237 13.6358 2.05856 12.6536C1.63475 11.6715 1.42285 10.6203 1.42285 9.5C1.42285 8.37966 1.63475 7.32846 2.05856 6.34639C2.48237 5.3642 3.05745 4.50986 3.7838 3.78337C4.51029 3.05702 5.36463 2.48194 6.34682 2.05813C7.32888 1.63433 8.38008 1.42242 9.50042 1.42242C10.6208 1.42242 11.672 1.63433 12.654 2.05813C13.6362 2.48194 14.4906 3.05702 15.2171 3.78337C15.9434 4.50986 16.5185 5.3642 16.9423 6.34639C17.3661 7.32846 17.578 8.37966 17.578 9.5C17.578 10.6203 17.3661 11.6715 16.9423 12.6536C16.5185 13.6358 15.9434 14.4901 15.2171 15.2166C14.4906 15.943 13.6362 16.5181 12.654 16.9419C11.672 17.3657 10.6208 17.5776 9.50042 17.5776ZM9.50042 15.7765C11.2558 15.7765 12.7408 15.1693 13.9553 13.9549C15.1697 12.7404 15.777 11.2554 15.777 9.5C15.777 7.74461 15.1697 6.25964 13.9553 5.04509C12.7408 3.83067 11.2558 3.22347 9.50042 3.22347C7.74504 3.22347 6.26007 3.83067 5.04552 5.04509C3.8311 6.25964 3.22389 7.74461 3.22389 9.5C3.22389 11.2554 3.8311 12.7404 5.04552 13.9549C6.26007 15.1693 7.74504 15.7765 9.50042 15.7765Z" fill="white"/>
</svg>
