<svg width="24" height="24" viewBox="0 0 24 24" fill="none" xmlns="http://www.w3.org/2000/svg">
<path d="M15.1609 13.7598L9.6707 13.5506L8.69096 22.9577C8.69096 22.9577 10.1958 22.8531 12.1874 22.8531C14.1791 22.8531 15.859 22.9939 15.859 22.9939L15.1609 13.7598Z" fill="#8A2E08"/>
<path d="M4.11816 15.0755L2.77428 14.7959C2.77428 14.7959 2.44435 16.9263 2.14057 18.2461C1.83679 19.5658 1.33183 21.3503 1.33183 21.3503L4.52655 22.9376C4.52655 22.9376 7.41749 23.1911 7.46779 23.0905C7.51808 22.9899 9.64857 18.0429 9.64857 18.0429L10.1555 16.1397L4.11816 15.0755ZM14.1107 16.1156L20.806 14.7214L21.1097 15.5322C21.1097 15.5322 21.5503 17.375 21.7937 18.3728C22.186 19.9742 22.691 21.4086 22.691 21.4086L19.6874 23.2675L16.5933 23.1669L14.1107 16.1156Z" fill="#FF6110"/>
<path d="M2.75819 14.0012C2.75819 14.0475 2.79038 14.3834 2.77428 14.6289C2.75819 14.8743 2.71192 15.1761 2.71192 15.1761C2.71192 15.1761 2.89499 15.2163 3.06398 15.325C3.23297 15.4336 3.57095 15.848 3.57095 15.848C3.57095 15.848 4.23082 15.6046 4.63116 15.7555C5.24677 15.9868 5.5083 16.5562 5.5083 16.5562C5.5083 16.5562 6.13799 15.9707 6.90851 16.0955C7.66092 16.2162 7.95464 16.9263 7.95464 16.9263C7.95464 16.9263 8.51995 16.4697 9.01485 16.4958C9.60029 16.526 9.81555 16.9565 9.81555 16.9565L10.6927 15.1882L4.17248 14.0032H2.75819V14.0012Z" fill="#AF0D03"/>
<path d="M1.00391 22.1832L1.35798 21.2457C1.35798 21.2457 2.92718 22.0142 4.06384 22.3521C5.2005 22.6901 6.54035 22.7364 6.54035 22.7364C6.54035 22.7364 6.52426 22.2053 6.03137 21.821C5.53848 21.4368 4.75791 20.791 4.75791 20.791L5.82416 20.4349L6.41763 20.1975L8.27854 22.4125L7.67903 23.9052C7.67903 23.9052 6.37136 24.0742 4.28111 23.5371C2.19086 22.9999 1.00391 22.1832 1.00391 22.1832Z" fill="#C9C9C9"/>
<path d="M13.984 14.8783C14.0142 15.0011 14.0001 15.9707 14.0001 15.9707L14.5694 16.6165C14.5694 16.6165 14.8772 16.2162 15.5854 16.2484C16.2935 16.2785 16.6154 16.6024 16.6154 16.6024C16.6154 16.6024 17.0459 16.0794 17.6314 15.9728C18.2168 15.8641 18.7841 16.1719 18.7841 16.1719C18.7841 16.1719 19.1845 15.4336 19.7679 15.2646C20.3533 15.0956 21.1097 15.5342 21.1097 15.5342L20.7979 13.6351L15.0623 14.0475L13.984 14.8783Z" fill="#AF0D03"/>
<path d="M22.6286 21.2155L22.9968 22.153C22.9968 22.153 21.8742 23.0301 20.4277 23.4305C18.9813 23.8308 16.9695 23.9918 16.9695 23.9918L16.382 20.6944L18.3657 20.0949L19.454 20.5596C19.454 20.5596 18.4904 21.3704 18.2268 21.7426C17.7259 22.4467 17.905 22.8933 17.905 22.8933C17.905 22.8933 19.442 22.7545 20.6269 22.2475C21.8139 21.7365 22.6286 21.2155 22.6286 21.2155Z" fill="#C9C9C9"/>
<path d="M5.51032 20.7689C5.51032 20.7689 6.19231 21.0747 6.54035 21.3221C6.97088 21.6299 7.4014 22.0906 7.54021 22.8289C7.63678 23.3379 7.67903 23.9052 7.67903 23.9052C7.67903 23.9052 8.15582 24.2734 9.09331 22.7062C10.0308 21.139 10.5076 18.9683 10.5861 17.4313C10.6625 15.8943 10.6323 15.5402 10.6323 15.5402L9.24822 17.8156L7.20223 19.6765L5.51032 20.7689Z" fill="#D92F0A"/>
<path d="M10.6444 15.5483C10.6444 15.5483 10.8053 16.9445 8.92432 18.6766C7.75547 19.7529 6.61479 20.4932 5.83421 20.799C5.56665 20.9037 5.32724 20.8614 5.15825 20.8594C4.60702 20.8513 4.70962 20.7568 5.01743 20.5999C5.37955 20.4148 6.43172 20.0305 8.40126 18.2159C9.97649 16.7634 10.0851 15.3109 10.0851 15.3109L10.6424 15.0091V15.5483H10.6444Z" fill="#FFFEFF"/>
<path d="M17.0459 23.9837C17.0459 23.9837 16.3539 24.2291 15.3077 22.8149C14.2616 21.4006 13.9397 18.8939 13.8934 18.0932C13.8472 17.2925 13.8633 15.7857 13.8633 15.7857L15.7865 18.1998C15.7865 18.1998 18.77 20.445 18.7238 20.4611C18.6775 20.4772 17.75 21.0606 17.402 21.646C16.6918 22.8289 17.0459 23.9837 17.0459 23.9837Z" fill="#D92F0A"/>
<path d="M13.7566 15.1198C13.7566 15.1198 13.7285 15.6468 13.8311 16.0472C14.0463 16.8921 14.7887 17.8055 15.7544 18.6625C16.9996 19.769 18.4461 20.5395 18.5528 20.5697C18.6614 20.5999 19.4299 20.6321 19.444 20.5536C19.45 20.5275 19.4963 20.4128 19.2448 20.2297C18.7278 19.8575 17.5831 19.2017 16.6456 18.4613C15.9837 17.9383 15.1347 17.2885 14.3964 15.9486C14.2616 15.7052 14.3099 15.0896 14.3099 15.0896L13.7566 15.1198Z" fill="white"/>
<path d="M3.5287 10.561C3.5287 10.561 1.92732 10.7703 1.87702 10.9976C1.82673 11.2269 2.00377 14.2487 2.00377 14.2487C2.00377 14.2487 2.67772 14.1239 3.01771 14.1984C3.3577 14.2728 3.99745 14.6872 3.99745 14.6872L5.06973 14.0274L5.84226 15.0996C5.84226 15.0996 6.38746 14.818 7.14188 14.8924C7.8963 14.9669 8.40327 15.4758 8.40327 15.4758L9.45745 14.6088L10.6343 15.5342C10.6343 15.5342 11.1715 14.9085 12.1693 14.8904C13.1672 14.8723 13.7707 15.6066 13.7707 15.6066L15.0884 14.4579L16.3881 15.4557C16.3881 15.4557 16.897 15.0413 17.4805 14.9105C18.0639 14.7778 18.4964 15.0051 18.4964 15.0051L19.3253 13.5365L20.2668 14.2145C20.2668 14.2145 20.5686 13.8564 21.0011 13.8C21.4336 13.7437 21.9607 13.7256 21.9607 13.7256C21.9607 13.7256 21.9225 11.6917 21.9225 11.3899C21.9225 11.0881 21.8098 10.5993 21.6771 10.5047C21.5443 10.4102 20.3593 10.1466 20.3593 10.1466L3.5287 10.561Z" fill="#D92F0A"/>
<path d="M5.64712 11.4402L4.07591 11.8043L3.99544 14.6892C3.99544 14.6892 4.47424 14.5504 4.95305 14.6007C5.43186 14.651 5.84025 15.1037 5.84025 15.1037C5.84025 15.1037 5.83019 13.2287 5.84629 12.9128C5.86238 12.597 5.9851 11.9975 6.05149 11.8828C6.11788 11.7661 5.64712 11.4402 5.64712 11.4402ZM9.78336 12.0538L8.34895 12.5789C8.34895 12.5789 8.31073 13.9066 8.34493 14.4358C8.37712 14.9649 8.40126 15.4799 8.40126 15.4799C8.40126 15.4799 9.05509 15.2626 9.5862 15.2948C10.1153 15.327 10.6323 15.5382 10.6323 15.5382L10.6122 12.6976L9.78336 12.0538ZM13.7224 12.6493C13.7224 12.6493 13.7727 13.7256 13.7888 14.2708C13.8049 14.816 13.7687 15.6126 13.7687 15.6126C13.7687 15.6126 14.5493 15.2143 15.1629 15.164C15.7745 15.1137 16.3861 15.4618 16.3861 15.4618C16.3861 15.4618 16.3378 14.3372 16.2714 13.5103C16.2251 12.9329 16.0561 12.434 16.0561 12.434L14.4849 11.5911L13.7224 12.6493ZM18.4944 15.0091C18.4944 15.0091 19.0155 14.4357 19.4299 14.303C19.8443 14.1702 20.2648 14.2185 20.2648 14.2185C20.2648 14.2185 20.2406 12.8645 20.1743 12.2509C20.1079 11.6394 20.0475 11.2873 20.0475 11.2873L18.1242 10.4645L18.1786 11.9773C18.1786 11.9773 18.4059 12.4823 18.4723 13.3594C18.5367 14.2366 18.4944 15.0091 18.4944 15.0091Z" fill="#E1E1E1"/>
<path d="M12.0688 5.03667L9.74715 6.07073C9.74715 6.07073 7.63678 7.65401 5.96699 8.7102C4.29721 9.76639 3.33758 10.1687 3.13842 10.2512C2.82055 10.384 2.30553 10.5409 2.08223 10.6938C1.71206 10.9513 1.86696 11.072 1.92732 11.0922C1.98767 11.1123 3.83449 11.9391 7.10768 12.424C10.3809 12.9088 14.8309 12.7116 17.1123 12.2691C19.3917 11.8265 21.6771 10.5067 21.6771 10.5067C21.6771 10.5067 21.4859 10.1868 20.2205 9.63763C18.9531 9.08841 17.8768 8.49695 16.04 7.29389C14.2033 6.09084 13.7607 5.49938 13.7607 5.49938L12.0688 5.03667Z" fill="#FF6110"/>
<path d="M10.1052 6.4932C10.1052 6.4932 7.55027 9.11054 4.40383 11.2853C4.05982 11.5227 4.07591 11.8043 4.07591 11.8043C4.07591 11.8043 4.3294 11.9009 4.95305 12.0457C5.58676 12.1926 5.9509 12.2288 5.9509 12.2288C5.9509 12.2288 6.23858 11.8989 6.85218 11.2853C7.95062 10.1868 8.63262 9.31574 9.49165 8.20322C10.061 7.4649 10.739 6.57971 10.739 6.57971L10.1052 6.4932ZM11.2037 6.83118C11.2037 6.83118 10.2742 8.9838 9.83164 9.91325C9.62241 10.3498 9.15568 11.1585 8.7332 11.8345C8.36505 12.424 8.34895 12.5809 8.34895 12.5809C8.34895 12.5809 9.1758 12.6996 9.57614 12.6996C9.97649 12.6996 10.6102 12.6956 10.6102 12.6956C10.6102 12.6956 10.9281 11.748 11.266 9.84887C11.4632 8.7444 11.7509 6.80905 11.7509 6.80905L11.2037 6.83118ZM12.4912 6.91568C12.4912 6.91568 12.7005 8.98983 12.9338 10.0822C13.2497 11.5609 13.7204 12.6473 13.7204 12.6473C13.7204 12.6473 14.5171 12.6151 14.9597 12.5728C15.4023 12.5306 16.0521 12.432 16.0521 12.432C16.0521 12.432 15.2916 11.2611 14.5573 10.0822C14.0725 9.30166 13.1632 7.48501 13.0163 6.78894C12.8916 6.18942 12.4912 6.91568 12.4912 6.91568ZM13.6299 6.53545C13.6299 6.59782 14.2978 8.02216 15.9515 9.80863C17.2813 11.2451 18.1685 11.9834 18.1685 11.9834C18.1685 11.9834 18.9269 11.75 19.2669 11.6253C19.6673 11.4784 20.0475 11.2873 20.0475 11.2873C20.0475 11.2873 18.253 10.042 17.1968 9.17693C16.1406 8.31186 14.6841 7.10881 14.2837 6.55959C13.8834 6.00836 13.6299 6.53545 13.6299 6.53545Z" fill="white"/>
<path d="M12.0466 3.60226C11.602 3.63445 11.4552 4.38283 11.2238 4.6162C10.9924 4.84756 9.74513 6.07274 9.74513 6.07274C9.74513 6.07274 9.96643 7.22952 12.1633 7.20739C14.1731 7.18526 14.5553 6.23368 14.5553 6.23368C14.5553 6.23368 13.2718 4.86969 12.9761 4.53171C12.6803 4.19171 12.6381 3.56001 12.0466 3.60226Z" fill="#D92F0A"/>
<path d="M12.1211 2.62453C12.1211 2.62453 12.5013 2.50382 13.0425 2.56619C13.5937 2.63057 13.9598 2.80961 14.5332 2.79754C15.4103 2.78145 16.1165 2.36903 16.37 2.13566C16.6234 1.9023 16.9473 1.52408 16.7784 1.39734C16.6094 1.2706 15.8891 1.46172 15.0844 1.14385C14.3743 0.864214 14.0182 0.133934 13.0103 0.0172501C12.1432 -0.0813276 11.8897 0.274759 11.8897 0.274759L12.1211 2.62453Z" fill="#FF6110"/>
<path d="M11.7831 0.0212737V3.97846L12.4168 3.80947L12.3544 0.0212737H11.7831Z" fill="#D92F0A"/>
</svg>
