<svg width="24" height="24" viewBox="0 0 24 24" fill="none" xmlns="http://www.w3.org/2000/svg">
<path d="M12.0001 17.5478C13.2621 17.5478 14.3356 17.1053 15.2206 16.2205C16.1055 15.3355 16.5479 14.262 16.5479 13C16.5479 11.738 16.1055 10.6645 15.2206 9.7795C14.3356 8.89467 13.2621 8.45225 12.0001 8.45225C10.7381 8.45225 9.66463 8.89467 8.77962 9.7795C7.89479 10.6645 7.45237 11.738 7.45237 13C7.45237 14.262 7.89479 15.3355 8.77962 16.2205C9.66463 17.1053 10.7381 17.5478 12.0001 17.5478ZM12.0001 15.3925C11.328 15.3925 10.7612 15.1618 10.2999 14.7003C9.83838 14.2389 9.60763 13.6722 9.60763 13C9.60763 12.3278 9.83838 11.7611 10.2999 11.2998C10.7612 10.8383 11.328 10.6075 12.0001 10.6075C12.6723 10.6075 13.239 10.8383 13.7004 11.2998C14.1619 11.7611 14.3926 12.3278 14.3926 13C14.3926 13.6722 14.1619 14.2389 13.7004 14.7003C13.239 15.1618 12.6723 15.3925 12.0001 15.3925ZM4.07187 21.2033C3.44221 21.2033 2.90562 20.9815 2.46213 20.538C2.01862 20.0945 1.79688 19.5579 1.79688 18.9283V7.07175C1.79688 6.44209 2.01862 5.9055 2.46213 5.462C2.90562 5.0185 3.44221 4.79675 4.07187 4.79675H7.04263L8.97613 2.79675H15.0241L16.9576 4.79675H19.9284C20.558 4.79675 21.0946 5.0185 21.5381 5.462C21.9816 5.9055 22.2034 6.44209 22.2034 7.07175V18.9283C22.2034 19.5579 21.9816 20.0945 21.5381 20.538C21.0946 20.9815 20.558 21.2033 19.9284 21.2033H4.07187Z" fill="#F8FAFC"/>
</svg>
