<svg width="19" height="19" viewBox="0 0 19 19" fill="none" xmlns="http://www.w3.org/2000/svg">
<path d="M4.01491 16.7859C3.51642 16.7859 3.09163 16.6104 2.74052 16.2593C2.38942 15.9082 2.21387 15.4834 2.21387 14.9849V4.01515C2.21387 3.51667 2.38942 3.09187 2.74052 2.74077C3.09163 2.38966 3.51642 2.21411 4.01491 2.21411H14.9846C15.4831 2.21411 15.9079 2.38966 16.259 2.74077C16.6101 3.09187 16.7857 3.51667 16.7857 4.01515V14.9849C16.7857 15.4834 16.6101 15.9082 16.259 16.2593C15.9079 16.6104 15.4831 16.7859 14.9846 16.7859H4.01491ZM4.01491 14.9849H14.9846V4.01515H4.01491V14.9849ZM4.66922 13.5152H14.3303L11.281 9.40541L8.90602 12.5721L7.12477 10.1971L4.66922 13.5152ZM6.72894 8.02554C7.08902 8.02554 7.39513 7.89953 7.64727 7.64752C7.89929 7.39537 8.02529 7.08926 8.02529 6.72918C8.02529 6.36911 7.89929 6.063 7.64727 5.81085C7.39513 5.55884 7.08902 5.43283 6.72894 5.43283C6.36886 5.43283 6.06275 5.55884 5.81061 5.81085C5.55859 6.063 5.43259 6.36911 5.43259 6.72918C5.43259 7.08926 5.55859 7.39537 5.81061 7.64752C6.06275 7.89953 6.36886 8.02554 6.72894 8.02554Z" fill="white"/>
</svg>
