<svg width="21" height="21" viewBox="0 0 21 21" fill="none" xmlns="http://www.w3.org/2000/svg">
<path d="M17.1395 18.5739L11.5905 13.0247C11.1565 13.3608 10.656 13.6275 10.089 13.8246C9.52195 14.0218 8.91587 14.1204 8.2707 14.1204C6.64962 14.1204 5.27638 13.5577 4.15098 12.4323C3.02559 11.3068 2.46289 9.93351 2.46289 8.31257C2.46289 6.69164 3.02559 5.3184 4.15098 4.19285C5.27638 3.06746 6.64962 2.50476 8.2707 2.50476C9.89164 2.50476 11.2648 3.06746 12.3902 4.19285C13.5157 5.3184 14.0785 6.69164 14.0785 8.31257C14.0785 8.96124 13.9799 9.56732 13.7828 10.1308C13.5855 10.6943 13.3188 11.1913 12.9828 11.6218L18.5371 17.1814L17.1395 18.5739ZM8.2707 12.1298C9.33295 12.1298 10.2347 11.7591 10.976 11.0179C11.7173 10.2767 12.0879 9.37497 12.0879 8.31257C12.0879 7.25018 11.7173 6.34842 10.976 5.60729C10.2347 4.86602 9.33295 4.49539 8.2707 4.49539C7.20831 4.49539 6.30647 4.86602 5.5652 5.60729C4.82408 6.34842 4.45352 7.25018 4.45352 8.31257C4.45352 9.37497 4.82408 10.2767 5.5652 11.0179C6.30647 11.7591 7.20831 12.1298 8.2707 12.1298Z" fill="#A78BFA"/>
</svg>
