<svg width="26" height="26" viewBox="0 0 26 26" fill="none" xmlns="http://www.w3.org/2000/svg">
<path d="M9.8988 15.0178H20.7321L16.9946 10.1428L14.503 13.3928L12.8238 11.2261L9.8988 15.0178ZM8.8932 19.5713C8.21106 19.5713 7.62976 19.3311 7.1493 18.8506C6.66884 18.3702 6.42861 17.7889 6.42861 17.1067V4.26219C6.42861 3.58005 6.66884 2.99875 7.1493 2.51829C7.62976 2.03784 8.21106 1.79761 8.8932 1.79761H21.7377C22.4199 1.79761 23.0012 2.03784 23.4816 2.51829C23.9621 2.99875 24.2023 3.58005 24.2023 4.26219V17.1067C24.2023 17.7889 23.9621 18.3702 23.4816 18.8506C23.0012 19.3311 22.4199 19.5713 21.7377 19.5713H8.8932ZM4.26195 24.2026C3.57981 24.2026 2.99851 23.9623 2.51805 23.4819C2.03759 23.0014 1.79736 22.4201 1.79736 21.738V6.42886H4.26195V21.738H19.5711V24.2026H4.26195Z" fill="#A78BFA"/>
</svg>
