<svg width="19" height="19" viewBox="0 0 19 19" fill="none" xmlns="http://www.w3.org/2000/svg">
<path d="M14.3356 10.8799V8.54269H11.9986V6.88356H14.3356V4.54656H15.9947V6.88356H18.3319V8.54269H15.9947V10.8799H14.3356ZM7.13975 9.41946C6.22155 9.41946 5.4374 9.09442 4.78731 8.44433C4.13722 7.79424 3.81217 7.01009 3.81217 6.09189C3.81217 5.17382 4.13722 4.39047 4.78731 3.74183C5.4374 3.09332 6.22155 2.76907 7.13975 2.76907C8.05782 2.76907 8.84196 3.09332 9.49219 3.74183C10.1423 4.39047 10.4673 5.17382 10.4673 6.09189C10.4673 7.01009 10.1423 7.79424 9.49219 8.44433C8.84196 9.09442 8.05782 9.41946 7.13975 9.41946ZM0.645508 16.0748V13.6877C0.645508 13.2097 0.76914 12.7704 1.0164 12.3698C1.26367 11.9691 1.59221 11.6633 2.00203 11.4525C2.82958 11.0403 3.67179 10.7303 4.52863 10.5227C5.38561 10.315 6.25598 10.2111 7.13975 10.2111C8.02945 10.2111 8.90286 10.3142 9.75997 10.5203C10.6171 10.7264 11.4562 11.0355 12.2773 11.4477C12.6871 11.6582 13.0157 11.9633 13.2631 12.3631C13.5104 12.7629 13.634 13.2043 13.634 13.6873V16.0748H0.645508ZM2.44655 14.2738H11.8329V13.7113C11.8329 13.5692 11.7967 13.44 11.7241 13.3238C11.6515 13.2075 11.5559 13.1171 11.4371 13.0526C10.7435 12.709 10.0386 12.4498 9.32237 12.2748C8.60618 12.0997 7.87864 12.0122 7.13975 12.0122C6.40719 12.0122 5.67958 12.0997 4.95692 12.2748C4.2344 12.4498 3.52955 12.709 2.84238 13.0526C2.72363 13.1171 2.62797 13.2075 2.5554 13.3238C2.48283 13.44 2.44655 13.5692 2.44655 13.7113V14.2738ZM7.13955 7.61842C7.55927 7.61842 7.91862 7.46899 8.2176 7.17014C8.51672 6.87129 8.66628 6.51193 8.66628 6.09209C8.66628 5.67237 8.51679 5.31381 8.2178 5.01641C7.91895 4.71888 7.55966 4.57011 7.13995 4.57011C6.7201 4.57011 6.36068 4.71914 6.0617 5.0172C5.76271 5.31526 5.61322 5.67349 5.61322 6.09189C5.61322 6.51174 5.76264 6.87115 6.0615 7.17014C6.36048 7.46899 6.71983 7.61842 7.13955 7.61842Z" fill="#F8FAFC"/>
</svg>
