<svg width="14" height="14" viewBox="0 0 14 14" fill="none" xmlns="http://www.w3.org/2000/svg">
<path d="M6.99975 12.9519C6.18629 12.9519 5.4177 12.7953 4.69398 12.482C3.97035 12.1689 3.33836 11.7421 2.798 11.2017C2.25764 10.6614 1.83088 10.0294 1.51773 9.30576C1.20448 8.58204 1.04785 7.81345 1.04785 6.99999C1.04785 6.17914 1.20448 5.40871 1.51773 4.68868C1.83088 3.96875 2.25764 3.3386 2.798 2.79824C3.33836 2.25788 3.97035 1.83112 4.69398 1.51797C5.4177 1.20472 6.18629 1.0481 6.99975 1.0481C7.8206 1.0481 8.59103 1.20472 9.31106 1.51797C10.031 1.83112 10.6611 2.25788 11.2015 2.79824C11.7419 3.3386 12.1686 3.96875 12.4818 4.68868C12.795 5.40871 12.9516 6.17914 12.9516 6.99999C12.9516 7.81345 12.795 8.58204 12.4818 9.30576C12.1686 10.0294 11.7419 10.6614 11.2015 11.2017C10.6611 11.7421 10.031 12.1689 9.31106 12.482C8.59103 12.7953 7.8206 12.9519 6.99975 12.9519ZM6.99275 11.5991C7.23629 11.2538 7.45042 10.8921 7.63514 10.5141C7.81987 10.1361 7.97056 9.73558 8.08723 9.31247H5.90892C6.02558 9.73558 6.17453 10.1361 6.35575 10.5141C6.53697 10.8921 6.7493 11.2538 6.99275 11.5991ZM5.49358 11.3658C5.31391 11.0496 5.16079 10.719 5.03421 10.3738C4.90762 10.0287 4.80058 9.67492 4.71308 9.31247H3.0131C3.28805 9.79392 3.63523 10.2133 4.05464 10.5707C4.47416 10.9281 4.9538 11.1931 5.49358 11.3658ZM8.49556 11.3658C9.03534 11.1931 9.5161 10.9281 9.93785 10.5707C10.3596 10.2133 10.7079 9.79392 10.9829 9.31247H9.28306C9.19556 9.67492 9.0873 10.0287 8.95829 10.3738C8.82937 10.719 8.67513 11.0496 8.49556 11.3658ZM2.52077 8.15616H4.47975C4.45058 7.96171 4.42871 7.77087 4.41412 7.58362C4.39954 7.39637 4.39225 7.20183 4.39225 6.99999C4.39225 6.79583 4.39954 6.6007 4.41412 6.41462C4.42871 6.22853 4.45058 6.03827 4.47975 5.84382H2.52077C2.47216 6.03594 2.4357 6.22562 2.41139 6.41287C2.38709 6.60012 2.37493 6.79583 2.37493 6.99999C2.37493 7.20183 2.38709 7.39695 2.41139 7.58537C2.4357 7.77378 2.47216 7.96405 2.52077 8.15616ZM5.64641 8.15616H8.34973C8.37889 7.96171 8.3996 7.77087 8.41185 7.58362C8.4241 7.39637 8.43023 7.20183 8.43023 6.99999C8.43023 6.79583 8.4241 6.6007 8.41185 6.41462C8.3996 6.22853 8.37889 6.03827 8.34973 5.84382H5.64641C5.61725 6.03827 5.59537 6.22853 5.58079 6.41462C5.56621 6.6007 5.55891 6.79583 5.55891 6.99999C5.55891 7.20183 5.56621 7.39637 5.58079 7.58362C5.59537 7.77087 5.61725 7.96171 5.64641 8.15616ZM9.51639 8.15616H11.4717C11.5203 7.96405 11.5568 7.77378 11.5811 7.58537C11.6054 7.39695 11.6176 7.20183 11.6176 6.99999C11.6176 6.79583 11.6054 6.60012 11.5811 6.41287C11.5568 6.22562 11.5203 6.03594 11.4717 5.84382H9.51639C9.54323 6.03827 9.56335 6.22853 9.57677 6.41462C9.59019 6.6007 9.59689 6.79583 9.59689 6.99999C9.59689 7.20183 9.59019 7.39637 9.57677 7.58362C9.56335 7.77087 9.54323 7.96171 9.51639 8.15616ZM9.28306 4.68416H10.9829C10.7079 4.20262 10.3596 3.78374 9.93785 3.42751C9.5161 3.07129 9.03534 2.80685 8.49556 2.63418C8.67513 2.95035 8.82937 3.28042 8.95829 3.62439C9.0873 3.96836 9.19556 4.32162 9.28306 4.68416ZM5.90892 4.68416H8.08723C7.9728 4.26095 7.82322 3.86093 7.6385 3.4841C7.45378 3.10726 7.23853 2.74618 6.99275 2.40085C6.7493 2.74618 6.53697 3.10726 6.35575 3.4841C6.17453 3.86093 6.02558 4.26095 5.90892 4.68416ZM3.0131 4.68416H4.71308C4.80058 4.32162 4.90762 3.96836 5.03421 3.62439C5.16079 3.28042 5.31391 2.95035 5.49358 2.63418C4.9538 2.80685 4.47416 3.07129 4.05464 3.42751C3.63523 3.78374 3.28805 4.20262 3.0131 4.68416Z" fill="#A78BFA"/>
</svg>
