<svg width="24" height="24" viewBox="0 0 24 24" fill="none" xmlns="http://www.w3.org/2000/svg">
<path d="M10.9104 17.2031H7.00013C5.56063 17.2031 4.33354 16.6959 3.31887 15.6814C2.30421 14.6669 1.79688 13.4399 1.79688 12.0004C1.79688 10.5609 2.30421 9.33371 3.31887 8.31888C4.33354 7.30405 5.56063 6.79663 7.00013 6.79663H10.9104V9.07163H7.00263C6.18863 9.07163 5.49662 9.3563 4.92663 9.92563C4.35679 10.4951 4.07187 11.1865 4.07187 11.9999C4.07187 12.8132 4.35679 13.5046 4.92663 14.0741C5.49662 14.6435 6.18863 14.9281 7.00263 14.9281H10.9104V17.2031ZM7.86263 13.0476V10.9521H16.1376V13.0476H7.86263ZM13.0899 17.2031V14.9281H16.9976C17.8116 14.9281 18.5036 14.6435 19.0736 14.0741C19.6435 13.5046 19.9284 12.8132 19.9284 11.9999C19.9284 11.1865 19.6435 10.4951 19.0736 9.92563C18.5036 9.3563 17.8116 9.07163 16.9976 9.07163H13.0899V6.79663H17.0001C18.4396 6.79663 19.6667 7.30388 20.6814 8.31838C21.696 9.33288 22.2034 10.5599 22.2034 11.9994C22.2034 13.4389 21.696 14.666 20.6814 15.6809C19.6667 16.6957 18.4396 17.2031 17.0001 17.2031H13.0899Z" fill="#94A3B8"/>
</svg>
