<svg width="25" height="25" viewBox="0 0 25 25" fill="none" xmlns="http://www.w3.org/2000/svg">
<path d="M6.37441 13.8934H18.6252V11.1063H6.37441V13.8934ZM12.4998 24.9996C10.7661 24.9996 9.13942 24.6717 7.61971 24.0159C6.09979 23.3601 4.77772 22.4702 3.6535 21.3461C2.52949 20.2219 1.63957 18.8999 0.983741 17.3799C0.327914 15.8602 0 14.2335 0 12.4998C0 10.7661 0.327914 9.13942 0.983741 7.61971C1.63957 6.09979 2.52949 4.77772 3.6535 3.6535C4.77772 2.52949 6.09979 1.63957 7.61971 0.983741C9.13942 0.327914 10.7661 0 12.4998 0C14.2335 0 15.8602 0.327914 17.3799 0.983741C18.8999 1.63957 20.2219 2.52949 21.3461 3.6535C22.4702 4.77772 23.3601 6.09979 24.0159 7.61971C24.6717 9.13942 24.9996 10.7661 24.9996 12.4998C24.9996 14.2335 24.6717 15.8602 24.0159 17.3799C23.3601 18.8999 22.4702 20.2219 21.3461 21.3461C20.2219 22.4702 18.8999 23.3601 17.3799 24.0159C15.8602 24.6717 14.2335 24.9996 12.4998 24.9996ZM12.4998 22.2126C15.2162 22.2126 17.5142 21.2729 19.3937 19.3937C21.2729 17.5142 22.2126 15.2162 22.2126 12.4998C22.2126 9.78341 21.2729 7.48546 19.3937 5.60598C17.5142 3.7267 15.2162 2.78706 12.4998 2.78706C9.78341 2.78706 7.48546 3.7267 5.60598 5.60598C3.7267 7.48546 2.78706 9.78341 2.78706 12.4998C2.78706 15.2162 3.7267 17.5142 5.60598 19.3937C7.48546 21.2729 9.78341 22.2126 12.4998 22.2126Z" fill="#94A3B8"/>
</svg>
