<svg width="24" height="24" viewBox="0 0 24 24" fill="none" xmlns="http://www.w3.org/2000/svg">
<path d="M20.3076 15.9002C20.2442 15.964 20.1687 16.0146 20.0856 16.0492C20.0026 16.0837 19.9135 16.1015 19.8235 16.1015C19.7335 16.1015 19.6444 16.0837 19.5613 16.0492C19.4782 16.0146 19.4028 15.964 19.3394 15.9002L18.3711 14.9319C18.3073 14.8685 18.2567 14.793 18.2221 14.71C18.1876 14.6269 18.1698 14.5378 18.1698 14.4478C18.1698 14.3578 18.1876 14.2687 18.2221 14.1856C18.2567 14.1026 18.3073 14.0271 18.3711 13.9637L20.3076 12.0272C20.436 11.8988 20.6102 11.8267 20.7917 11.8267C20.9733 11.8267 21.1474 11.8988 21.2758 12.0272L22.2441 12.9954C22.3079 13.0589 22.3585 13.1343 22.3931 13.2174C22.4276 13.3005 22.4454 13.3896 22.4454 13.4796C22.4454 13.5695 22.4276 13.6586 22.3931 13.7417C22.3585 13.8248 22.3079 13.9002 22.2441 13.9637L20.3076 15.9002ZM10.0363 5.62887C9.97287 5.69268 9.89744 5.74332 9.81436 5.77787C9.73127 5.81243 9.64218 5.83022 9.5522 5.83022C9.46222 5.83022 9.37312 5.81243 9.29004 5.77787C9.20695 5.74332 9.13152 5.69268 9.06808 5.62887L8.09984 4.66063C8.03603 4.59719 7.98539 4.52176 7.95084 4.43867C7.91628 4.35559 7.8985 4.2665 7.8985 4.17651C7.8985 4.08653 7.91628 3.99744 7.95084 3.91436C7.98539 3.83127 8.03603 3.75584 8.09984 3.69239L10.0363 1.75591C10.1647 1.62754 10.3389 1.55543 10.5204 1.55543C10.702 1.55543 10.8761 1.62754 11.0046 1.75591L11.9728 2.72415C12.0366 2.7876 12.0872 2.86303 12.1218 2.94611C12.1564 3.0292 12.1741 3.11829 12.1741 3.20827C12.1741 3.29826 12.1564 3.38735 12.1218 3.47043C12.0872 3.55352 12.0366 3.62895 11.9728 3.69239L10.0363 5.62887Z" fill="#66757F"/>
<path d="M1.13454 14.6484C2.50404 14.6484 8.66681 15.3332 8.66681 15.3332C8.66681 15.3332 9.35157 21.496 9.35157 22.8655C9.35157 24.235 7.98206 24.235 7.29731 23.5502C6.61256 22.8655 4.5583 19.4417 4.5583 19.4417C4.5583 19.4417 1.13454 17.3874 0.449783 16.7027C-0.23497 16.0179 -0.23497 14.6484 1.13454 14.6484ZM2.50404 3.7191C4.5583 3.69239 19.6229 4.37715 19.6229 4.37715C19.6229 4.37715 20.2556 19.4417 20.2816 21.496C20.3076 23.5502 18.3896 24.2363 17.6371 21.4966C16.8845 18.757 14.1448 9.85517 14.1448 9.85517C14.1448 9.85517 4.58911 6.83061 2.50062 6.36156C-0.23497 5.74665 0.449098 3.74512 2.50404 3.7191Z" fill="#55ACEE"/>
<path d="M18.2533 1.63814C19.6229 0.268632 23.0466 -0.416121 23.7314 0.268632C24.4161 0.953384 23.7314 4.37715 22.3619 5.74665C20.9924 7.11616 9.35157 18.0722 9.35157 18.0722C9.35157 18.0722 4.90067 21.1536 3.87355 20.1265C2.84642 19.0993 5.9278 14.6484 5.9278 14.6484C5.9278 14.6484 16.8838 3.00764 18.2533 1.63814Z" fill="#CCD6DD"/>
<path d="M9.35157 14.6484C9.35157 14.6484 9.69394 14.9908 6.61256 18.0722C3.53117 21.1536 3.18879 20.8112 3.18879 20.8112C3.18879 20.8112 2.84642 20.4688 5.9278 17.3874C9.00919 14.3061 9.35157 14.6484 9.35157 14.6484ZM19.6229 2.32289C20.1677 2.32289 20.6902 2.53932 21.0754 2.92457C21.4607 3.30982 21.6771 3.83232 21.6771 4.37715H22.2283C22.3064 4.16145 22.3619 3.93548 22.3619 3.69239C22.3619 3.14757 22.1454 2.62506 21.7602 2.23981C21.3749 1.85457 20.8524 1.63814 20.3076 1.63814C20.0645 1.63814 19.8386 1.6936 19.6229 1.77166V2.32289Z" fill="#66757F"/>
</svg>
