<svg width="24" height="24" viewBox="0 0 24 24" fill="none" xmlns="http://www.w3.org/2000/svg">
<path d="M0.814941 20.3051V17.2898C0.814941 16.686 0.971108 16.1311 1.28344 15.6251C1.59577 15.1189 2.01077 14.7327 2.52844 14.4663C3.57377 13.9457 4.63761 13.5542 5.71994 13.2918C6.80244 13.0295 7.90186 12.8983 9.01819 12.8983C10.142 12.8983 11.2453 13.0285 12.3279 13.2888C13.4106 13.5492 14.4705 13.9397 15.5077 14.4603C16.0254 14.7262 16.4404 15.1116 16.7529 15.6166C17.0653 16.1216 17.2214 16.6792 17.2214 17.2893V20.3051H0.814941ZM19.3112 20.3051V17.1076C19.3112 16.3584 19.1089 15.6363 18.7044 14.9413C18.3001 14.2465 17.717 13.6275 16.9552 13.0843C17.7614 13.1923 18.5234 13.3642 19.2414 13.5998C19.9596 13.8355 20.6357 14.1223 21.2697 14.4603C21.8857 14.7937 22.359 15.1871 22.6897 15.6406C23.0202 16.0939 23.1854 16.5889 23.1854 17.1256V20.3051H19.3112ZM9.01819 11.8983C7.88619 11.8983 6.91961 11.4977 6.11844 10.6966C5.31711 9.89524 4.91644 8.92865 4.91644 7.79682C4.91644 6.66499 5.31711 5.6984 6.11844 4.89707C6.91961 4.09574 7.88619 3.69507 9.01819 3.69507C10.15 3.69507 11.1166 4.09574 11.9179 4.89707C12.7191 5.6984 13.1197 6.66499 13.1197 7.79682C13.1197 8.92865 12.7191 9.89524 11.9179 10.6966C11.1166 11.4977 10.15 11.8983 9.01819 11.8983ZM19.3112 7.79682C19.3112 8.92465 18.9096 9.89024 18.1064 10.6936C17.3034 11.4967 16.3381 11.8983 15.2104 11.8983C15.0224 11.8983 14.7888 11.8766 14.5094 11.8331C14.2301 11.7894 13.9908 11.7386 13.7914 11.6806C14.2494 11.1392 14.6003 10.5359 14.8439 9.87057C15.0876 9.20524 15.2094 8.51424 15.2094 7.79757C15.2094 7.08107 15.0876 6.3899 14.8439 5.72407C14.6003 5.05807 14.2494 4.4544 13.7914 3.91307C14.0288 3.82574 14.2641 3.76757 14.4974 3.73857C14.7308 3.70957 14.9672 3.69507 15.2067 3.69507C16.3354 3.69507 17.3016 4.09674 18.1054 4.90007C18.9093 5.70324 19.3112 6.66882 19.3112 7.79682ZM3.08994 18.0301H14.9464V17.3196C14.9464 17.1401 14.9006 16.9769 14.8089 16.8301C14.7173 16.6832 14.5964 16.5691 14.4464 16.4876C13.5703 16.0536 12.6799 15.7261 11.7752 15.5051C10.8705 15.2839 9.95152 15.1733 9.01819 15.1733C8.09286 15.1733 7.17377 15.2839 6.26094 15.5051C5.34827 15.7261 4.45794 16.0536 3.58994 16.4876C3.43994 16.5691 3.31911 16.6832 3.22744 16.8301C3.13577 16.9769 3.08994 17.1401 3.08994 17.3196V18.0301ZM9.01719 9.71307C9.54386 9.71307 9.99511 9.52557 10.3709 9.15057C10.7466 8.7754 10.9344 8.32448 10.9344 7.79782C10.9344 7.27098 10.7469 6.81974 10.3717 6.44407C9.99669 6.0684 9.54586 5.88057 9.01919 5.88057C8.49236 5.88057 8.04111 6.06807 7.66544 6.44307C7.28977 6.81823 7.10194 7.26915 7.10194 7.79582C7.10194 8.32249 7.28944 8.77373 7.66444 9.14957C8.03961 9.52523 8.49053 9.71307 9.01719 9.71307Z" fill="#F8FAFC"/>
</svg>
