<svg width="21" height="21" viewBox="0 0 21 21" fill="none" xmlns="http://www.w3.org/2000/svg">
<path d="M2 20.25V16.75H19.5V20.25H2ZM5.5 13.25H6.725L13.55 6.44688L12.3031 5.2L5.5 12.025V13.25ZM3.75 15V11.2812L13.55 1.50313C13.7104 1.34271 13.8964 1.21875 14.1078 1.13125C14.3193 1.04375 14.5417 1 14.775 1C15.0083 1 15.2344 1.04375 15.4531 1.13125C15.6719 1.21875 15.8688 1.35 16.0438 1.525L17.2469 2.75C17.4219 2.91042 17.5495 3.1 17.6297 3.31875C17.7099 3.5375 17.75 3.76354 17.75 3.99688C17.75 4.21563 17.7099 4.43073 17.6297 4.64219C17.5495 4.85365 17.4219 5.04688 17.2469 5.22188L7.46875 15H3.75Z" fill="#F8FAFC"/>
</svg>
