<svg width="24" height="24" viewBox="0 0 24 24" fill="none" xmlns="http://www.w3.org/2000/svg">
<path d="M5.88012 17.0103C6.73012 16.3683 7.67613 15.8638 8.71813 15.4968C9.76013 15.1298 10.8545 14.9463 12.0014 14.9463C13.1482 14.9463 14.2452 15.1328 15.2924 15.5058C16.3395 15.8788 17.2821 16.3823 18.1201 17.0163C18.6916 16.3289 19.1359 15.5629 19.4529 14.7183C19.7699 13.8734 19.9284 12.9673 19.9284 12C19.9284 9.80717 19.1552 7.93759 17.6089 6.39125C16.0625 4.84492 14.193 4.07175 12.0001 4.07175C9.80729 4.07175 7.93771 4.84492 6.39138 6.39125C4.84504 7.93759 4.07187 9.80717 4.07187 12C4.07187 12.9633 4.22938 13.8674 4.54438 14.7123C4.85938 15.5569 5.30462 16.3229 5.88012 17.0103ZM12.0001 13.0538C11.0008 13.0538 10.1597 12.7133 9.47688 12.0323C8.79388 11.3513 8.45237 10.5112 8.45237 9.512C8.45237 8.51267 8.79388 7.6715 9.47688 6.9885C10.1597 6.30567 11.0008 5.96425 12.0001 5.96425C12.9995 5.96425 13.8405 6.30567 14.5234 6.9885C15.2064 7.6715 15.5479 8.51267 15.5479 9.512C15.5479 10.5112 15.2064 11.3513 14.5234 12.0323C13.8405 12.7133 12.9995 13.0538 12.0001 13.0538ZM11.9996 22.2033C10.5888 22.2033 9.26304 21.9358 8.02238 21.4008C6.78188 20.8658 5.70162 20.1383 4.78162 19.2185C3.86179 18.2985 3.13437 17.2181 2.59937 15.9773C2.06437 14.7363 1.79688 13.4103 1.79688 11.9995C1.79688 10.5887 2.06437 9.26292 2.59937 8.02225C3.13437 6.78175 3.86179 5.7015 4.78162 4.7815C5.70162 3.86167 6.78204 3.13425 8.02288 2.59925C9.26388 2.06425 10.5898 1.79675 12.0006 1.79675C13.4115 1.79675 14.7372 2.06425 15.9779 2.59925C17.2184 3.13425 18.2986 3.86167 19.2186 4.7815C20.1385 5.7015 20.8659 6.78192 21.4009 8.02275C21.9359 9.26375 22.2034 10.5897 22.2034 12.0005C22.2034 13.4113 21.9359 14.7371 21.4009 15.9778C20.8659 17.2183 20.1385 18.2985 19.2186 19.2185C18.2986 20.1383 17.2182 20.8658 15.9774 21.4008C14.7364 21.9358 13.4105 22.2033 11.9996 22.2033ZM12.0001 19.9283C12.8635 19.9283 13.6749 19.8041 14.4344 19.5558C15.1937 19.3074 15.8984 18.9495 16.5484 18.482C15.8905 18.0107 15.1869 17.6518 14.4374 17.4055C13.6879 17.159 12.8755 17.0358 12.0001 17.0358C11.1248 17.0358 10.3134 17.159 9.56588 17.4055C8.81838 17.6518 8.11562 18.0107 7.45762 18.482C8.10763 18.9495 8.81138 19.3074 9.56888 19.5558C10.3264 19.8041 11.1368 19.9283 12.0001 19.9283ZM12.0001 10.9643C12.4175 10.9643 12.7639 10.8265 13.0394 10.551C13.3147 10.2757 13.4524 9.92934 13.4524 9.512C13.4524 9.0945 13.3147 8.74709 13.0394 8.46975C12.7639 8.19242 12.4175 8.05375 12.0001 8.05375C11.5828 8.05375 11.2364 8.19242 10.9609 8.46975C10.6855 8.74709 10.5479 9.0945 10.5479 9.512C10.5479 9.92934 10.6855 10.2757 10.9609 10.551C11.2364 10.8265 11.5828 10.9643 12.0001 10.9643Z" fill="#F8FAFC"/>
</svg>
