<svg width="32" height="32" viewBox="0 0 32 32" fill="none" xmlns="http://www.w3.org/2000/svg">
<path d="M12.1829 18.4834H25.5162L20.9162 12.4834L17.8496 16.4834L15.7829 13.8167L12.1829 18.4834ZM10.9452 24.0877C10.1057 24.0877 9.39025 23.7921 8.79891 23.2007C8.20758 22.6094 7.91191 21.894 7.91191 21.0544V5.24574C7.91191 4.40618 8.20758 3.69074 8.79891 3.0994C9.39025 2.50807 10.1057 2.2124 10.9452 2.2124H26.7539C27.5935 2.2124 28.3089 2.50807 28.9002 3.0994C29.4916 3.69074 29.7872 4.40618 29.7872 5.24574V21.0544C29.7872 21.894 29.4916 22.6094 28.9002 23.2007C28.3089 23.7921 27.5935 24.0877 26.7539 24.0877H10.9452ZM10.9452 21.0544H26.7539V5.24574H10.9452V21.0544ZM5.24525 29.7877C4.40569 29.7877 3.69025 29.4921 3.09891 28.9007C2.50758 28.3094 2.21191 27.594 2.21191 26.7544V7.9124H5.24525V26.7544H24.0872V29.7877H5.24525Z" fill="#F8FAFC"/>
</svg>
