<svg width="26" height="26" viewBox="0 0 26 26" fill="none" xmlns="http://www.w3.org/2000/svg">
<path d="M19.6166 14.8883V11.6901H16.4186V9.41966H19.6166V6.22166H21.887V9.41966H25.0853V11.6901H21.887V14.8883H19.6166ZM9.76967 12.8898C8.51318 12.8898 7.44014 12.4451 6.55054 11.5555C5.66094 10.6659 5.21615 9.59281 5.21615 8.33633C5.21615 7.08002 5.66094 6.00806 6.55054 5.12045C7.44014 4.23302 8.51318 3.78931 9.76967 3.78931C11.026 3.78931 12.099 4.23302 12.9888 5.12045C13.8784 6.00806 14.3232 7.08002 14.3232 8.33633C14.3232 9.59281 13.8784 10.6659 12.9888 11.5555C12.099 12.4451 11.026 12.8898 9.76967 12.8898ZM0.882812 21.9972V18.7306C0.882812 18.0765 1.05199 17.4753 1.39035 16.9272C1.72872 16.3788 2.1783 15.9604 2.7391 15.6719C3.87155 15.1078 5.02403 14.6837 6.19656 14.3995C7.36927 14.1153 8.56031 13.9732 9.76967 13.9732C10.9872 13.9732 12.1823 14.1142 13.3552 14.3962C14.5281 14.6783 15.6764 15.1013 16.8 15.6653C17.3608 15.9533 17.8104 16.3709 18.149 16.918C18.4873 17.465 18.6565 18.0691 18.6565 18.7301V21.9972H0.882812Z" fill="#A78BFA"/>
</svg>
