<svg width="13" height="13" viewBox="0 0 13 13" fill="none" xmlns="http://www.w3.org/2000/svg">
<path d="M1.60671 12.9995C1.16201 12.9995 0.783048 12.8429 0.469829 12.5297C0.15661 12.2164 0 11.8375 0 11.3928V1.60671C0 1.16201 0.15661 0.783048 0.469829 0.469829C0.783048 0.156609 1.16201 0 1.60671 0H11.3928C11.8375 0 12.2164 0.156609 12.5297 0.469829C12.8429 0.783048 12.9995 1.16201 12.9995 1.60671V11.3928C12.9995 11.8375 12.8429 12.2164 12.5297 12.5297C12.2164 12.8429 11.8375 12.9995 11.3928 12.9995H1.60671ZM2.19042 10.0816H10.8091L8.08879 6.41535L5.97006 9.24033L4.38101 7.12159L2.19042 10.0816ZM4.02789 5.18436C4.35029 5.18436 4.62366 5.07225 4.84802 4.84802C5.07225 4.62366 5.18436 4.35029 5.18436 4.02789C5.18436 3.70549 5.07225 3.43211 4.84802 3.20776C4.62366 2.98353 4.35029 2.87141 4.02789 2.87141C3.70549 2.87141 3.43211 2.98353 3.20776 3.20776C2.98353 3.43211 2.87141 3.70549 2.87141 4.02789C2.87141 4.35029 2.98353 4.62366 3.20776 4.84802C3.43211 5.07225 3.70549 5.18436 4.02789 5.18436Z" fill="#F8FAFC"/>
</svg>
