<svg width="32" height="32" viewBox="0 0 32 32" fill="none" xmlns="http://www.w3.org/2000/svg">
<path d="M12.1834 18.4834H25.5167L20.9167 12.4834L17.8501 16.4834L15.7834 13.8167L12.1834 18.4834ZM10.9457 24.0877C10.1062 24.0877 9.39074 23.7921 8.7994 23.2007C8.20807 22.6094 7.9124 21.894 7.9124 21.0544V5.24574C7.9124 4.40618 8.20807 3.69074 8.7994 3.0994C9.39074 2.50807 10.1062 2.2124 10.9457 2.2124H26.7544C27.594 2.2124 28.3094 2.50807 28.9007 3.0994C29.4921 3.69074 29.7877 4.40618 29.7877 5.24574V21.0544C29.7877 21.894 29.4921 22.6094 28.9007 23.2007C28.3094 23.7921 27.594 24.0877 26.7544 24.0877H10.9457ZM10.9457 21.0544H26.7544V5.24574H10.9457V21.0544ZM5.24574 29.7877C4.40618 29.7877 3.69074 29.4921 3.0994 28.9007C2.50807 28.3094 2.2124 27.594 2.2124 26.7544V7.9124H5.24574V26.7544H24.0877V29.7877H5.24574Z" fill="#A78BFA"/>
</svg>
