<svg width="14" height="14" viewBox="0 0 14 14" fill="none" xmlns="http://www.w3.org/2000/svg">
<path d="M3.54193 12.9413C3.17695 12.9413 2.86453 12.8114 2.60466 12.5515C2.34478 12.2916 2.21484 11.9792 2.21484 11.6142V5.86462C2.21484 5.49964 2.34478 5.18722 2.60466 4.92735C2.86453 4.66747 3.17695 4.53753 3.54193 4.53753H4.03105V3.47207C4.03105 2.64646 4.32009 1.9435 4.89818 1.36318C5.47626 0.782761 6.17689 0.492554 7.00007 0.492554C7.82325 0.492554 8.52388 0.782761 9.10197 1.36318C9.68005 1.9435 9.96909 2.64646 9.96909 3.47207V4.53753H10.4582C10.8232 4.53753 11.1356 4.66747 11.3955 4.92735C11.6554 5.18722 11.7853 5.49964 11.7853 5.86462V11.6142C11.7853 11.9792 11.6554 12.2916 11.3955 12.5515C11.1356 12.8114 10.8232 12.9413 10.4582 12.9413H3.54193ZM3.54193 11.6142H10.4582V5.86462H3.54193V11.6142ZM7.00007 9.9061C7.32091 9.9061 7.59556 9.79186 7.82403 9.56339C8.0525 9.33492 8.16674 9.06026 8.16674 8.73943C8.16674 8.4186 8.0525 8.14394 7.82403 7.91547C7.59556 7.687 7.32091 7.57276 7.00007 7.57276C6.67924 7.57276 6.40459 7.687 6.17611 7.91547C5.94764 8.14394 5.83341 8.4186 5.83341 8.73943C5.83341 9.06026 5.94764 9.33492 6.17611 9.56339C6.40459 9.79186 6.67924 9.9061 7.00007 9.9061ZM5.35814 4.53753H8.64201V3.47207C8.64201 3.01309 8.48291 2.62294 8.1647 2.30162C7.84649 1.9803 7.45828 1.81964 7.00007 1.81964C6.54186 1.81964 6.15366 1.9803 5.83545 2.30162C5.51724 2.62294 5.35814 3.01309 5.35814 3.47207V4.53753Z" fill="#A78BFA"/>
</svg>
