<svg width="27" height="26" viewBox="0 0 27 26" fill="none" xmlns="http://www.w3.org/2000/svg">
<path d="M0 19.6037V17.7937C0 16.9828 0.408056 16.325 1.22417 15.8202C2.04028 15.3153 3.11124 15.0629 4.43706 15.0629C4.6373 15.0629 4.82733 15.0663 5.00717 15.0732C5.18718 15.0801 5.36358 15.0973 5.53638 15.1249C5.2706 15.5213 5.07235 15.9375 4.94163 16.3737C4.8109 16.8101 4.74554 17.2654 4.74554 17.7396V19.6037H0ZM6.5 19.6037V17.7396C6.5 17.1488 6.65907 16.6067 6.97721 16.1132C7.29535 15.6196 7.74981 15.1879 8.34058 14.8181C8.93136 14.4483 9.6339 14.171 10.4482 13.9861C11.2623 13.8012 12.1474 13.7087 13.1035 13.7087C14.0779 13.7087 14.9711 13.8012 15.7831 13.9861C16.5952 14.171 17.2967 14.4483 17.8875 14.8181C18.4782 15.1879 18.9293 15.6196 19.2405 16.1132C19.5518 16.6067 19.7075 17.1488 19.7075 17.7396V19.6037H6.5ZM21.4619 19.6037V17.7396C21.4619 17.247 21.4 16.7828 21.2761 16.3469C21.1523 15.9111 20.9665 15.5037 20.7188 15.1249C20.8915 15.0973 21.0647 15.0801 21.2382 15.0732C21.4119 15.0663 21.5893 15.0629 21.7704 15.0629C23.1015 15.0629 24.1737 15.3116 24.9871 15.8091C25.8007 16.3063 26.2075 16.9679 26.2075 17.7937V19.6037H21.4619ZM4.4376 14.0056C3.82408 14.0056 3.29875 13.7872 2.86163 13.3504C2.42432 12.9137 2.20567 12.3886 2.20567 11.7753C2.20567 11.1433 2.42405 10.6133 2.86081 10.1852C3.29758 9.75692 3.82263 9.54278 4.43598 9.54278C5.06792 9.54278 5.59794 9.75656 6.02604 10.1841C6.45432 10.6117 6.66846 11.1415 6.66846 11.7736C6.66846 12.3872 6.45468 12.9125 6.02713 13.3496C5.59957 13.7869 5.06973 14.0056 4.4376 14.0056ZM21.7709 14.0056C21.1574 14.0056 20.6321 13.7872 20.195 13.3504C19.7577 12.9137 19.539 12.3886 19.539 11.7753C19.539 11.1433 19.7574 10.6133 20.1941 10.1852C20.6309 9.75692 21.156 9.54278 21.7693 9.54278C22.4013 9.54278 22.9313 9.75656 23.3594 10.1841C23.7877 10.6117 24.0018 11.1415 24.0018 11.7736C24.0018 12.3872 23.788 12.9125 23.3605 13.3496C22.9329 13.7869 22.4031 14.0056 21.7709 14.0056ZM13.1037 12.9027C12.1722 12.9027 11.3804 12.5768 10.7283 11.9248C10.0761 11.2726 9.75 10.4808 9.75 9.54929C9.75 8.60245 10.0761 7.80683 10.7283 7.16243C11.3804 6.51785 12.1722 6.19556 13.1037 6.19556C14.0504 6.19556 14.846 6.51785 15.4906 7.16243C16.1352 7.80683 16.4575 8.60245 16.4575 9.54929C16.4575 10.4808 16.1352 11.2726 15.4906 11.9248C14.846 12.5768 14.0504 12.9027 13.1037 12.9027Z" fill="#A78BFA"/>
</svg>
