<svg width="22" height="22" viewBox="0 0 22 22" fill="none" xmlns="http://www.w3.org/2000/svg">
<path d="M11.1425 12.2545L16.6425 8.58779L11.1425 4.92113V12.2545ZM11.543 17.4824H16.6982C16.6169 17.949 16.4171 18.332 16.0989 18.6313C15.7806 18.9305 15.3806 19.1126 14.8987 19.1774L5.20842 20.3534C4.63489 20.4335 4.12011 20.2968 3.66407 19.9435C3.20803 19.5901 2.94403 19.1266 2.87207 18.5531L1.66826 8.67557C1.5963 8.10189 1.73594 7.58817 2.08717 7.13442C2.43841 6.68052 2.90079 6.41934 3.47432 6.3509L4.52849 6.2189V8.30432L3.73076 8.4134L4.95198 18.3019L11.543 17.4824ZM8.44723 15.6491C7.87004 15.6491 7.37817 15.4458 6.97163 15.0393C6.56509 14.6328 6.36182 14.1409 6.36182 13.5637V3.6174C6.36182 3.0402 6.56509 2.54834 6.97163 2.1418C7.37817 1.73525 7.87004 1.53198 8.44723 1.53198H18.399C18.9762 1.53198 19.4681 1.73525 19.8746 2.1418C20.2812 2.54834 20.4844 3.0402 20.4844 3.6174V13.5637C20.4844 14.1409 20.2812 14.6328 19.8746 15.0393C19.4681 15.4458 18.9762 15.6491 18.399 15.6491H8.44723ZM8.44723 13.5637H18.399V3.6174H8.44723V13.5637Z" fill="#A78BFA"/>
</svg>
