<svg width="24" height="24" viewBox="0 0 24 24" fill="none" xmlns="http://www.w3.org/2000/svg">
<path d="M2.57099 24H21.4803C22.831 24 24 22.662 24 21.324C24 18.4105 20.8705 13.9649 12.0257 13.9649C2.91406 13.9649 0 18.286 0 21.324C0 22.662 1.22033 24 2.57099 24Z" fill="#77B255"/>
<path d="M7.49553 19.6515C7.49553 19.6515 8.1425 20.0977 8.81783 20.0977C10.309 16.8363 17.5972 15.0802 18.2725 15.0802C18.3738 15.0802 18.4954 15.0681 18.6183 15.0487C18.1039 14.8543 17.5785 14.6896 17.0447 14.5557C13.9206 14.5978 8.24447 17.1762 7.49553 19.6515Z" fill="#5C913B"/>
<path d="M8.31133 21.993C10.7357 21.993 12.701 21.2442 12.701 20.3205C12.701 19.3968 10.7357 18.648 8.31133 18.648C5.88698 18.648 3.92166 19.3968 3.92166 20.3205C3.92166 21.2442 5.88698 21.993 8.31133 21.993Z" fill="#292F33"/>
<path d="M6.623 2.59188V19.986C6.623 20.3559 6.92555 20.5506 7.29833 20.5506C7.67111 20.5506 7.97366 20.3559 7.97366 19.986V2.59188H6.623Z" fill="#FFAC33"/>
<path d="M6.623 1.92288C6.623 0.451072 7.76769 -0.348387 9.16698 0.146675L15.5597 2.40858C16.9583 2.90364 16.9583 3.7138 15.5597 4.2082L9.16698 6.4701C7.76769 6.96583 6.623 6.16637 6.623 4.69456V1.92288Z" fill="#DD2E44"/>
</svg>
