<svg width="21" height="21" viewBox="0 0 21 21" fill="none" xmlns="http://www.w3.org/2000/svg">
<path d="M7.40764 14.875L10.5001 11.7825L13.5926 14.875L14.8751 13.5925L11.7826 10.5L14.8751 7.40752L13.5926 6.12499L10.5001 9.21746L7.40764 6.12499L6.12511 7.40752L9.21758 10.5L6.12511 13.5925L7.40764 14.875ZM10.5001 19.4278C9.26184 19.4278 8.09999 19.1936 7.01455 18.7252C5.92896 18.2568 4.98469 17.6212 4.18173 16.8184C3.37892 16.0154 2.74331 15.0711 2.27489 13.9855C1.80647 12.9001 1.57227 11.7383 1.57227 10.5C1.57227 9.26172 1.80647 8.09986 2.27489 7.01442C2.74331 5.92884 3.37892 4.98457 4.18173 4.18161C4.98469 3.3788 5.92896 2.74319 7.01455 2.27477C8.09999 1.80635 9.26184 1.57214 10.5001 1.57214C11.7384 1.57214 12.9002 1.80635 13.9857 2.27477C15.0713 2.74319 16.0155 3.3788 16.8185 4.18161C17.6213 4.98457 18.2569 5.92884 18.7253 7.01442C19.1937 8.09986 19.428 9.26172 19.428 10.5C19.428 11.7383 19.1937 12.9001 18.7253 13.9855C18.2569 15.0711 17.6213 16.0154 16.8185 16.8184C16.0155 17.6212 15.0713 18.2568 13.9857 18.7252C12.9002 19.1936 11.7384 19.4278 10.5001 19.4278ZM10.5001 17.4372C12.4403 17.4372 14.0816 16.7661 15.424 15.4238C16.7662 14.0814 17.4373 12.4402 17.4373 10.5C17.4373 8.55982 16.7662 6.91854 15.424 5.57614C14.0816 4.23389 12.4403 3.56277 10.5001 3.56277C8.55994 3.56277 6.91866 4.23389 5.57627 5.57614C4.23402 6.91854 3.56289 8.55982 3.56289 10.5C3.56289 12.4402 4.23402 14.0814 5.57627 15.4238C6.91866 16.7661 8.55994 17.4372 10.5001 17.4372Z" fill="#F8FAFC"/>
</svg>
