<svg width="22" height="22" viewBox="0 0 22 22" fill="none" xmlns="http://www.w3.org/2000/svg">
<path d="M13.9427 15.3411L15.3521 13.9427L11.9989 10.5895V6.44412H10.001V11.3971L13.9427 15.3411ZM11 20.3529C9.70272 20.3529 8.48554 20.1076 7.34841 19.6168C6.21113 19.1261 5.2219 18.4602 4.3807 17.6192C3.53966 16.778 2.87378 15.7888 2.38306 14.6515C1.89233 13.5144 1.64697 12.2972 1.64697 11C1.64697 9.70272 1.89233 8.48554 2.38306 7.34841C2.87378 6.21113 3.53966 5.2219 4.3807 4.3807C5.2219 3.53966 6.21113 2.87378 7.34841 2.38306C8.48554 1.89233 9.70272 1.64697 11 1.64697C12.2972 1.64697 13.5144 1.89233 14.6515 2.38306C15.7888 2.87378 16.778 3.53966 17.6192 4.3807C18.4602 5.2219 19.1261 6.21113 19.6168 7.34841C20.1076 8.48554 20.3529 9.70272 20.3529 11C20.3529 12.2972 20.1076 13.5144 19.6168 14.6515C19.1261 15.7888 18.4602 16.778 17.6192 17.6192C16.778 18.4602 15.7888 19.1261 14.6515 19.6168C13.5144 20.1076 12.2972 20.3529 11 20.3529ZM11 18.2675C13.0136 18.2675 14.7283 17.5606 16.1441 16.1468C17.5597 14.7328 18.2675 13.0172 18.2675 11C18.2675 8.98267 17.5597 7.26706 16.1441 5.8531C14.7284 4.43929 13.0137 3.73239 11 3.73239C8.98634 3.73239 7.27164 4.43929 5.85585 5.8531C4.44021 7.26706 3.73239 8.98267 3.73239 11C3.73239 13.0172 4.44021 14.7328 5.85585 16.1468C7.27149 17.5606 8.98619 18.2675 11 18.2675Z" fill="#A78BFA"/>
</svg>
