<svg width="24" height="24" viewBox="0 0 24 24" fill="none" xmlns="http://www.w3.org/2000/svg">
<path d="M6.83195 0.68143C6.26374 0.689404 5.96468 1.5487 5.41242 2.63728C4.92196 3.60623 3.78753 5.72756 3.53632 6.07447C3.28311 6.42138 2.59129 6.67458 2.51154 6.86199C2.43179 7.0514 7.79493 6.88392 7.79493 6.88392L10.8374 6.54698C10.8374 6.54698 10.4326 6.19808 10.0498 5.71161C9.72286 5.29691 8.44089 3.01609 7.93648 2.06907C7.62346 1.48291 7.32241 0.675448 6.83195 0.68143Z" fill="#F687A9"/>
<path d="M3.20735 7.92864C3.20735 7.92864 2.30419 7.4003 2.35603 7.02548C2.3959 6.7324 2.94019 6.541 2.94019 6.541L10.7855 6.50113C10.7855 6.50113 11.4494 6.83009 11.4494 7.16703C11.4494 7.5279 10.5941 7.98845 10.5941 7.98845L10.2831 7.21488L3.69183 7.22685L3.20735 7.92864Z" fill="#EF5593"/>
<path d="M6.90572 10.2972C6.6904 10.2872 6.50099 10.369 6.47508 10.6381C6.45314 10.8634 6.64654 11.0428 6.84392 11.0508C7.0413 11.0608 7.2307 10.9332 7.23867 10.7099C7.24665 10.5025 7.13101 10.3052 6.90572 10.2972Z" fill="#FEA62D"/>
<path d="M7.20079 7.30859C6.86983 7.24678 6.85987 7.60167 6.85987 7.60167C6.85987 7.60167 6.40928 7.55182 6.09029 7.99244C5.75933 8.45299 5.81116 9.24051 5.68556 9.47378C5.55995 9.70704 5.16519 9.9762 5.17317 10.048C5.18314 10.1197 5.4822 10.3969 6.79208 10.4886C8.09797 10.5803 8.48675 10.4427 8.50469 10.353C8.52264 10.2633 8.16376 9.9762 8.11791 9.71502C8.07205 9.45384 8.22956 8.64638 8.06009 8.21773C7.87069 7.73525 7.42608 7.65749 7.42608 7.65749C7.42608 7.65749 7.49387 7.36242 7.20079 7.30859Z" fill="#FEB804"/>
<path d="M5.75733 9.22656C5.75733 9.22656 6.19795 9.34618 6.86585 9.39802C7.69125 9.46182 8.11592 9.44188 8.11592 9.44188C8.11592 9.44188 8.10993 9.61932 8.12987 9.70904C8.1518 9.79876 8.25149 9.99215 8.25149 9.99215C8.25149 9.99215 7.62745 10.0181 6.8499 9.94829C6.07434 9.87851 5.46425 9.73895 5.46425 9.73895C5.46425 9.73895 5.65964 9.54555 5.68356 9.47577C5.70948 9.404 5.75733 9.22656 5.75733 9.22656Z" fill="#FEA62D"/>
<path d="M10.618 7.06934C10.618 7.06934 3.17944 7.07732 3.16548 7.10323C3.14555 7.1451 3.14754 7.75718 3.14754 7.75718L4.4953 12.259L9.79264 12.271L10.6041 7.72129L10.618 7.06934ZM8.72002 11.7227L5.1014 11.7147C5.1014 11.7147 5.07747 9.63328 5.20906 8.82582C5.30675 8.2277 5.80917 7.47207 7.00142 7.45612C8.19367 7.44017 8.61435 8.35729 8.69808 8.83977C8.77983 9.32425 8.72002 11.7227 8.72002 11.7227Z" fill="#BFB5B3"/>
<path d="M3.14156 12.6637V7.74721H3.65793L4.0507 12.7993L3.14156 12.6637ZM10.6061 12.5342L10.6081 7.72129L10.1356 7.7193L9.70492 12.7555L10.6061 12.5342Z" fill="#5F4D4E"/>
<path d="M3.65594 12.6857L3.65793 7.74721H5.12532C5.12532 7.74721 4.76446 8.27355 4.7505 8.88364C4.73654 9.48175 4.70863 12.1015 4.70863 12.1015L9.20449 12.0736C9.20449 12.0736 9.17857 9.01323 9.14867 8.66034C9.1068 8.15991 8.70407 7.73126 8.70407 7.73126L10.1336 7.7173V12.8512L3.65594 12.6857Z" fill="#EBE7E6"/>
<path d="M0.890638 15.6683L0.0034277 15.4669L2.25834 12.5182H21.755C21.755 12.5182 24.0059 15.3433 23.996 15.3752C23.988 15.4071 23.9142 15.4889 23.9142 15.4889L5.34264 16.0252L0.890638 15.6683Z" fill="#F687A9"/>
<path d="M0.944468 16.067V17.1576L3.71575 23.0311H22.8635C23.0988 23.0311 23.1965 22.774 23.1965 22.6503C23.1965 22.5267 23.1805 16.1528 23.1805 16.1528L21.4121 15.7839L10.1415 15.8378L7.02335 13.0665L3.48249 15.8637L0.944468 16.067Z" fill="#C0B5B1"/>
<path d="M0.944468 17.1576C0.944468 17.1576 0.912569 22.9514 0.912569 23.0511C0.912569 23.1508 2.83652 22.8876 2.83652 22.8876L3.26118 21.8449L8.05012 20.3994L12.1393 22.9374L11.4494 18.5951L10.9111 18.1226L2.9043 18.2881L2.15267 19.0078L1.46084 17.1656L0.944468 17.1576ZM23.1865 17.0101H22.4708L21.6813 21.1152L22.5645 22.2117H23.1965L23.1865 17.0101Z" fill="#5F4D4E"/>
<path d="M1.46284 17.1616H2.44973L2.40587 22.4968L1.48876 22.3194C1.48676 22.3174 1.45088 17.1516 1.46284 17.1616ZM2.90829 22.136V18.2861L6.86385 14.6336L10.9151 18.1226V22.2994H3.18741L2.90829 22.136ZM11.3936 22.2177V16.9842H22.6083V22.2097C22.6063 22.2117 11.3936 22.2496 11.3936 22.2177Z" fill="#EBE7E6"/>
<path d="M17.8314 21.7452C17.8553 21.7891 20.1481 21.7591 20.1979 21.7392C20.2677 21.7133 20.2258 18.7287 20.2318 18.4535C20.2418 18.0329 19.8929 17.2992 19.0316 17.3071C18.1703 17.3151 17.8393 17.977 17.8314 18.4157C17.8234 18.8044 17.7975 21.6834 17.8314 21.7452ZM16.4577 21.7272C16.4318 21.7532 14.1529 21.7591 14.0971 21.7213C14.0413 21.6834 14.0752 19.1414 14.0931 18.5094C14.1051 18.0967 14.4041 17.3171 15.2654 17.3271C16.1267 17.3371 16.4377 18.0428 16.4477 18.4635C16.4577 18.8842 16.5115 21.6714 16.4577 21.7272Z" fill="#A5D0D6"/>
<path d="M4.80832 23.0331C4.80832 22.9634 4.85816 20.7084 4.85816 20.1422C4.85816 19.3368 5.46027 18.3818 6.87582 18.3897C8.32725 18.3977 8.78581 19.5401 8.78581 20.1941C8.78581 20.6546 8.77385 23.0292 8.77385 23.0292L4.80832 23.0331Z" fill="#D27856"/>
<path d="M8.52463 20.3336C8.51666 19.6797 8.04613 18.6409 6.82198 18.633H6.80404C5.57192 18.633 5.10937 19.6318 5.0994 20.3077C5.09143 20.7942 5.08146 22.6703 5.08146 22.6703V22.7899H8.49672L8.49871 22.6723C8.49871 22.6563 8.5346 20.9836 8.52463 20.3336ZM5.34064 20.3117C5.34662 19.9209 5.61179 18.9261 6.72429 18.8762V22.5507H5.32469C5.32669 22.13 5.33466 20.7224 5.34064 20.3117ZM8.26146 22.5526H6.97351V18.8822C7.91255 18.9719 8.2794 19.8033 8.28538 20.3376C8.29336 20.8819 8.26943 22.1599 8.26146 22.5526Z" fill="#AE5734"/>
<path d="M7.17687 20.3875C7.13899 20.4353 7.14896 21.3744 7.18484 21.3983C7.22871 21.4302 7.48789 21.4302 7.52777 21.3943C7.56764 21.3584 7.56764 20.4154 7.54172 20.3855C7.51182 20.3556 7.21874 20.3336 7.17687 20.3875ZM6.16605 20.3715C6.12817 20.4194 6.13814 21.3584 6.17402 21.3823C6.21788 21.4142 6.47707 21.4142 6.51694 21.3783C6.55682 21.3425 6.55682 20.3994 6.5309 20.3695C6.50099 20.3396 6.20792 20.3177 6.16605 20.3715Z" fill="#FAC010"/>
<path d="M1.35717 23.3103C1.84364 23.3342 3.55027 23.3003 3.86329 23.2903C4.1783 23.2804 4.28397 22.9853 4.0826 22.5945C3.93108 22.2994 3.56822 22.0423 3.18741 21.9844C2.80661 21.9266 2.47167 22.108 2.3959 22.0901C2.32014 22.0722 1.9852 21.8907 1.55654 21.9665C1.12789 22.0423 0.832819 22.3772 0.840794 22.7859C0.852757 23.1966 1.1578 23.3003 1.35717 23.3103ZM9.46966 22.9295C9.47564 23.1966 9.92822 23.2026 11.1484 23.2205C12.3685 23.2405 12.7593 23.2644 12.7493 22.6045C12.7394 21.9665 12.3486 21.6615 11.9578 21.6615C11.5671 21.6615 11.282 21.8229 11.1564 21.8429C11.0327 21.8628 10.8254 21.5538 10.327 21.7153C9.94018 21.8409 9.45969 22.5566 9.46966 22.9295ZM4.31985 18.3259C4.2082 18.2721 3.93307 18.2721 3.60012 18.7486C3.3509 19.1035 3.39277 19.584 3.42666 19.6019C3.46056 19.6199 3.9231 19.5441 4.18827 19.263C4.45343 18.9799 4.47736 18.4017 4.31985 18.3259Z" fill="#709923"/>
<path d="M4.22415 20.86C4.34777 20.846 4.62888 20.4453 4.58901 19.9748C4.54714 19.5022 4.25007 19.2211 4.15836 19.2391C4.06665 19.255 3.8593 19.4943 3.85133 19.9269C3.84335 20.4951 4.15039 20.8679 4.22415 20.86ZM9.46966 18.5114C9.43576 18.5911 9.22044 19.1234 9.60124 19.5541C9.93619 19.9329 10.0478 20.1083 10.1555 20.1083C10.2632 20.1083 10.3549 19.3886 10.1894 19.0317C10.0239 18.6768 9.49358 18.4535 9.46966 18.5114Z" fill="#709923"/>
<path d="M9.45171 21.1371C9.53146 21.1172 9.73084 20.6147 9.75875 20.2359C9.79464 19.7235 9.5514 19.3667 9.5514 19.3667C9.5514 19.3667 9.02107 19.4903 9.02107 20.21C9.02107 20.9457 9.38592 21.153 9.45171 21.1371Z" fill="#709923"/>
<path d="M5.20906 16.4259C5.02962 16.5794 4.90601 17.0739 5.14326 17.3829C5.37454 17.686 5.7673 17.668 5.97864 17.5225C6.18997 17.3769 6.19595 16.8207 6.00854 16.5655C5.82113 16.3103 5.41441 16.2505 5.20906 16.4259ZM8.19367 16.3581C7.92053 16.3761 7.55169 16.8306 7.70919 17.2294C7.8667 17.6281 8.44289 17.6481 8.61833 17.5444C8.79378 17.4407 8.99914 17.0978 8.9154 16.7987C8.84761 16.5655 8.45485 16.3422 8.19367 16.3581Z" fill="#FFB1D1"/>
<path d="M8.14582 16.7649C8.03617 16.8426 8.00626 17.05 8.11592 17.1457C8.22557 17.2433 8.38308 17.2374 8.46681 17.1516C8.5645 17.05 8.55254 16.8845 8.47279 16.7948C8.39304 16.703 8.23554 16.6991 8.14582 16.7649ZM5.42837 16.7828C5.34064 16.8705 5.34264 17.044 5.44033 17.1397C5.53802 17.2374 5.6736 17.2194 5.7693 17.1516C5.87297 17.0759 5.86101 16.8645 5.76531 16.7868C5.68356 16.723 5.54201 16.6692 5.42837 16.7828ZM6.79407 16.0391C6.79407 16.0391 7.05724 16.0092 7.26659 16.083C7.57163 16.1907 7.69324 16.5475 7.66733 16.705C7.64739 16.8306 7.5816 17.1756 7.5816 17.1756L7.14098 17.4068L6.59669 17.2992L6.22785 17.028C6.22785 17.028 6.23583 16.4359 6.24779 16.4279C6.25975 16.4179 6.79407 16.0391 6.79407 16.0391ZM9.11677 17.4188L8.61634 17.5444L8.36314 18.0987C8.36314 18.0987 8.3113 18.6768 8.8217 18.8662C9.28025 19.0357 9.50754 18.7785 9.50754 18.7785L9.77071 18.3259L9.78068 17.985L9.57533 17.5364L9.11677 17.4188ZM5.16519 18.2342C5.16519 18.2342 4.99573 18.7247 4.4016 18.5891C3.80946 18.4555 3.95899 17.6042 3.95899 17.6042L4.28397 17.2593L4.63885 17.1975L4.98377 17.2752L5.23697 17.6162L5.22102 17.9312L5.16519 18.2342Z" fill="#F687A9"/>
<path d="M9.90429 18.0548C9.88236 17.7936 9.76074 17.5763 9.56336 17.4427C9.39988 17.3331 9.2005 17.2972 8.99914 17.3311C9.06528 17.1794 9.08084 17.0104 9.04349 16.8492C9.00615 16.688 8.9179 16.543 8.79179 16.4359C8.51067 16.2006 7.9923 16.2245 7.76303 16.4817C7.63941 16.6213 7.56565 16.8187 7.58957 17.036C7.58957 17.036 7.31045 17.347 6.83993 17.2852C6.63657 17.2573 6.48504 17.1656 6.39931 17.02C6.31358 16.8745 6.30361 16.6811 6.37339 16.5057C6.43719 16.3442 6.60068 16.2265 6.68641 16.2006C6.86385 16.1488 7.06921 16.1687 7.18484 16.2525C7.34235 16.3661 7.34434 16.6512 7.28054 16.7649C7.19681 16.9124 7.04129 16.9503 6.92965 16.9204C6.89176 16.9104 6.80603 16.8785 6.80603 16.7888C6.80603 16.7489 6.82198 16.711 6.85189 16.6911C6.89176 16.6632 6.9436 16.6572 6.97749 16.6711C7.0074 16.6831 7.08316 16.6791 7.09911 16.6054C7.11706 16.5216 7.04528 16.4877 7.01936 16.4778C6.99344 16.4678 6.8479 16.4299 6.72828 16.5136C6.67445 16.5515 6.60068 16.6193 6.60068 16.7768C6.60068 16.9303 6.71233 17.0699 6.87781 17.1118C7.05924 17.1596 7.31643 17.1018 7.452 16.8605C7.56764 16.6552 7.53773 16.2584 7.29849 16.087C7.13301 15.9694 6.86385 15.9375 6.6266 16.0072C6.41526 16.069 6.25377 16.2505 6.18399 16.4299C6.16605 16.4738 6.15608 16.5196 6.14611 16.5655C6.09029 16.4 5.79721 16.1986 5.37055 16.3382C4.85816 16.5057 4.85417 16.9543 4.908 17.1337C4.70863 17.0519 4.47935 17.0519 4.32185 17.1237C4.13643 17.2075 3.98491 17.4048 3.93506 17.6261C3.88721 17.8435 3.93706 18.0548 4.07861 18.2223C4.1763 18.3379 4.30789 18.3818 4.43748 18.3818C4.56309 18.3818 4.68471 18.3399 4.76645 18.2801C4.88209 18.1944 4.95585 18.0448 4.94987 17.8913C4.94588 17.7637 4.88408 17.658 4.80433 17.6062C4.73255 17.5623 4.64483 17.5424 4.57106 17.5623C4.42751 17.6002 4.37767 17.7099 4.3677 17.7258C4.35973 17.7438 4.29992 17.8694 4.38764 17.9132C4.47536 17.9571 4.51325 17.8754 4.52521 17.8654C4.53717 17.8554 4.56907 17.7896 4.61692 17.7697C4.63885 17.7617 4.66876 17.7577 4.69866 17.7757C4.71661 17.7876 4.7505 17.8315 4.75449 17.9013C4.75648 17.9431 4.74053 18.0528 4.65081 18.1206C4.56309 18.1844 4.33979 18.2183 4.22615 18.0827C4.12646 17.9631 4.10054 17.8255 4.13444 17.672C4.17032 17.5105 4.27798 17.3809 4.40558 17.3171C4.58103 17.2294 4.8781 17.2633 5.03361 17.4607C5.2589 17.7478 5.08943 18.1904 5.08744 18.1944C5.08744 18.1944 5.06152 18.2681 5.10538 18.2881C5.14924 18.308 5.1951 18.2522 5.1951 18.2522C5.20308 18.2342 5.38849 17.9431 5.32071 17.6222C5.4164 17.672 5.52407 17.7019 5.6397 17.7019C5.73341 17.7019 5.83309 17.682 5.93677 17.6401C6.0863 17.5783 6.19396 17.4666 6.24978 17.3191C6.26573 17.2792 6.27371 17.2374 6.28168 17.1955C6.4033 17.351 6.58473 17.4547 6.81202 17.4846C6.86983 17.4926 6.92366 17.4965 6.97749 17.4965C7.30646 17.4965 7.52577 17.359 7.63742 17.2673C7.68726 17.3969 7.77299 17.5045 7.89461 17.5803C8.05411 17.682 8.21361 17.7238 8.36115 17.7238C8.39703 17.7238 8.43292 17.7179 8.46681 17.7139C8.42295 17.7916 8.39105 17.8774 8.3751 17.9671C8.33523 18.2063 8.41298 18.4196 8.58843 18.5512C8.78382 18.6968 9.02107 18.7087 9.19652 18.6091C9.36997 18.5114 9.45969 18.314 9.42978 18.1166C9.39988 17.9093 9.28623 17.8315 9.22044 17.8016C9.12873 17.7617 9.01708 17.7697 8.93933 17.8235C8.80176 17.9192 8.79578 18.0787 8.81372 18.1585C8.81372 18.1585 8.82768 18.2641 8.92736 18.2462C9.03901 18.2263 9.00711 18.1126 9.00711 18.1126C9.00512 18.1046 8.98718 18.0269 9.04699 17.985C9.06094 17.975 9.10082 17.9671 9.1387 17.983C9.18456 18.003 9.21845 18.0608 9.22842 18.1425C9.24437 18.2601 9.19054 18.3738 9.09085 18.4336C8.97521 18.5014 8.83565 18.4854 8.70407 18.3877C8.59042 18.302 8.54058 18.1605 8.56849 17.995C8.60438 17.7856 8.7559 17.6002 8.93534 17.5444C9.11677 17.4866 9.30418 17.5105 9.44972 17.6082C9.59526 17.7059 9.68498 17.8694 9.70292 18.0707C9.73881 18.4974 9.42978 18.7546 9.41383 18.7646C9.41383 18.7646 9.35602 18.8124 9.37197 18.8543C9.38792 18.8961 9.45371 18.8623 9.45371 18.8623C9.47763 18.8503 9.95214 18.6091 9.90429 18.0548ZM6.05041 17.2174C6.01452 17.3151 5.94674 17.3829 5.84705 17.4248C5.50612 17.5643 5.25691 17.3929 5.13728 17.1736C5.0695 17.0519 5.02962 16.6871 5.44631 16.5196C5.7055 16.4159 5.91683 16.5336 6.0205 16.7389C6.08829 16.8725 6.11022 17.0579 6.05041 17.2174ZM8.74793 17.365C8.63229 17.4826 8.3432 17.6261 8.00028 17.4108C7.88464 17.337 7.81486 17.2274 7.79493 17.0858C7.76901 16.8984 7.83679 16.705 7.91256 16.6173C8.07205 16.4379 8.46482 16.4239 8.66419 16.5914C8.78581 16.6931 8.85559 16.8406 8.86356 17.0061C8.86955 17.1476 8.82768 17.2832 8.74793 17.365Z" fill="#BF077C"/>
<path d="M0.840794 16.2166C0.840794 16.2166 -0.0623654 15.5088 0.0034277 15.4669C0.0692208 15.4251 3.48249 15.4689 3.48249 15.4689C3.48249 15.4689 6.48903 12.7694 6.59271 12.6677C6.69638 12.5661 6.78809 12.5042 6.94161 12.5042C7.09513 12.5042 7.28054 12.6677 7.40415 12.7614C7.52776 12.8532 10.4426 15.461 10.4426 15.461C10.4426 15.461 24.0259 15.3134 24 15.3772C23.974 15.441 23.2264 16.2824 23.2264 16.2824H11.4355C11.4355 16.2824 12.1991 16.8705 12.1732 16.9084C12.1472 16.9463 11.6468 17.7218 11.573 17.7218C11.4973 17.7218 6.90373 13.7284 6.90373 13.7284L2.28425 17.8953L1.62034 17.1317L2.64711 16.2305L0.840794 16.2166Z" fill="#EF5593"/>
<path d="M12.9288 7.13912C12.9288 7.13912 13.812 6.8281 14.3084 7.25675C14.8567 7.73126 14.757 8.28552 14.757 8.28552L15.3771 7.47207C15.3771 7.47207 16.4437 7.06934 16.8804 8.00241C17.2811 8.85971 16.667 9.76088 15.9453 10.351C15.1299 11.0189 14.1808 11.3618 14.1808 11.3618L14.141 11.0229L12.9288 7.13912Z" fill="#D82E75"/>
<path d="M14.5716 8.27355C14.5716 8.27355 14.2566 6.71844 13.0185 7.10722C12.1512 7.37837 12.233 8.54071 12.552 9.2126C13.0105 10.1776 14.1808 11.3618 14.1808 11.3618C14.1808 11.3618 15.084 10.8016 15.7958 10.1178C16.2842 9.64923 17.1854 8.34932 16.3141 7.65151C15.3173 6.85202 14.5716 8.27355 14.5716 8.27355Z" fill="#EF5593"/>
<path d="M12.857 8.53673C12.9447 8.52476 12.9966 8.07817 13.2558 7.94658C13.4731 7.83892 13.7004 7.71132 13.5867 7.49201C13.479 7.28267 13.1002 7.36441 12.9029 7.6216C12.6198 7.99443 12.6596 8.56265 12.857 8.53673ZM15.1319 8.31343C15.1717 8.3852 15.4628 8.32738 15.6662 8.19181C15.8356 8.08016 15.9632 7.88677 15.8297 7.77113C15.6941 7.6555 15.4648 7.73724 15.3552 7.82496C15.1737 7.97449 15.072 8.20377 15.1319 8.31343Z" fill="#F687A9"/>
<path d="M17.0518 0.946596C17.0518 0.946596 18.0068 0.629593 18.7405 1.24566C19.4224 1.81786 19.5041 2.59541 19.5041 2.59541L20.5987 1.49487C20.5987 1.49487 22.2554 1.00641 22.8735 2.36613C23.4656 3.67202 22.4648 5.20122 21.3244 6.13628C20.0364 7.19295 18.4634 7.70534 18.4634 7.70534L17.0518 0.946596Z" fill="#D82E75"/>
<path d="M19.1552 2.8526C19.1552 2.8526 18.7565 0.292652 16.7408 1.02036C15.3173 1.53475 15.4608 3.27527 15.9652 4.33793C16.689 5.86313 18.4614 7.70335 18.4614 7.70335C18.4614 7.70335 20.0364 6.81215 21.0911 5.76943C21.5676 5.29891 22.3192 4.33992 22.4628 3.39888C22.5505 2.83466 22.4449 2.14881 21.8986 1.77399C20.2298 0.629593 19.1552 2.8526 19.1552 2.8526Z" fill="#EF5593"/>
<path d="M16.4517 3.28325C16.5913 3.2653 16.673 2.55753 17.0837 2.35218C17.4266 2.18071 17.8074 2.0272 17.6061 1.63244C17.4386 1.30148 16.7687 1.41313 16.4577 1.81985C16.0091 2.40999 16.1407 3.32312 16.4517 3.28325ZM20.1222 2.85858C20.186 2.97023 20.6465 2.88051 20.9675 2.66519C21.2347 2.48775 21.438 2.18271 21.2247 2.00128C21.0114 1.81985 20.6465 1.94745 20.475 2.08701C20.186 2.32227 20.0245 2.68712 20.1222 2.85858Z" fill="#F687A9"/>
</svg>
