<svg width="26" height="26" viewBox="0 0 26 26" fill="none" xmlns="http://www.w3.org/2000/svg">
<mask id="mask0_0_2799" style="mask-type:alpha" maskUnits="userSpaceOnUse" x="0" y="0" width="42" height="42">
<rect width="42" height="42" fill="#A78BFA"/>
</mask>
<g mask="url(#mask0_0_2799)">
<mask id="mask1_0_2799" style="mask-type:alpha" maskUnits="userSpaceOnUse" x="0" y="0" width="42" height="42">
<rect width="42" height="42" fill="#A78BFA"/>
</mask>
<g mask="url(#mask1_0_2799)">
<path d="M4.11328 20.8036V18.339H6.20222V10.9758C6.20222 9.42108 6.66552 8.03441 7.59214 6.81585C8.51857 5.59728 9.72991 4.80103 11.2262 4.4271V3.72049C11.2262 3.22776 11.3986 2.80887 11.7435 2.46382C12.0885 2.11896 12.5074 1.94653 13.0001 1.94653C13.4929 1.94653 13.9118 2.11896 14.2568 2.46382C14.6017 2.80887 14.7741 3.22776 14.7741 3.72049V4.4271C16.2747 4.80103 17.4871 5.59619 18.4114 6.8126C19.3358 8.029 19.7981 9.41675 19.7981 10.9758V18.339H21.887V20.8036H4.11328ZM13.0066 24.1248C12.3895 24.1248 11.8611 23.9057 11.4214 23.4675C10.982 23.0293 10.7622 22.5024 10.7622 21.8869H15.2445C15.2445 22.5044 15.0254 23.0317 14.5872 23.4688C14.1488 23.9062 13.622 24.1248 13.0066 24.1248ZM8.6668 18.339H17.3335V10.9758C17.3335 9.78418 16.9092 8.76404 16.0606 7.91543C15.2119 7.06682 14.1918 6.64251 13.0001 6.64251C11.8085 6.64251 10.7883 7.06682 9.93972 7.91543C9.09111 8.76404 8.6668 9.78418 8.6668 10.9758V18.339Z" fill="#A78BFA"/>
</g>
</g>
</svg>
