<svg width="24" height="24" viewBox="0 0 24 24" fill="none" xmlns="http://www.w3.org/2000/svg">
<path d="M11.7144 21C10.4644 21 9.29352 20.7625 8.20186 20.2875C7.11019 19.8125 6.16019 19.1708 5.35186 18.3625C4.54352 17.5542 3.90186 16.6042 3.42686 15.5125C2.95186 14.4208 2.71436 13.25 2.71436 12C2.71436 10.75 2.95186 9.57917 3.42686 8.4875C3.90186 7.39583 4.54352 6.44583 5.35186 5.6375C6.16019 4.82917 7.11019 4.1875 8.20186 3.7125C9.29352 3.2375 10.4644 3 11.7144 3V5.275C9.84002 5.275 8.25061 5.92725 6.94611 7.23175C5.64161 8.53625 4.98936 10.1257 4.98936 12C4.98936 13.8743 5.64161 15.4637 6.94611 16.7682C8.25061 18.0727 9.84002 18.725 11.7144 18.725V21ZM15.7144 17.1973L14.1171 15.575L16.5546 13.1375H8.57686V10.8625H16.5546L14.1171 8.4L15.7144 6.80275L20.9116 12L15.7144 17.1973Z" fill="#EF4444"/>
</svg>
