<svg width="64" height="64" viewBox="0 0 64 64" fill="none" xmlns="http://www.w3.org/2000/svg">
<path d="M54.6279 9.37213C67.124 21.8683 67.124 42.1317 54.6279 54.6279C42.1317 67.124 21.8701 67.124 9.37213 54.6279C-3.12404 42.1317 -3.12404 21.8683 9.37213 9.37213C21.8683 -3.12404 42.1299 -3.12404 54.6279 9.37213Z" fill="#FFCB4C"/>
<path d="M34.274 34.2758C28.0624 40.4874 23.2178 43.883 17.1271 47.9897C15.7386 48.9302 13.6995 51.4191 17.1289 54.8503C23.9859 61.7073 40.4376 62.4006 51.4174 51.4209C62.3988 40.4394 61.7073 23.9894 54.8467 17.1307C51.4173 13.6995 48.9266 15.7404 47.988 17.1307C43.8848 23.2161 40.4874 28.0624 34.274 34.2758Z" fill="#65471B"/>
<path d="M20.5583 51.4191C20.5583 51.4191 27.417 47.9897 37.7034 37.7016C47.9915 27.4152 51.4191 20.5583 51.4191 20.5583C51.4191 20.5583 54.8467 30.8464 42.8466 42.8466C30.8464 54.8467 20.5583 51.4191 20.5583 51.4191Z" fill="white"/>
<path d="M14.6933 44.8608C14.4303 45.1269 14.09 45.303 13.7209 45.364C13.3519 45.4251 12.9729 45.3679 12.6383 45.2007C12.3037 45.0335 12.0305 44.7648 11.8577 44.433C11.6849 44.1012 11.6215 43.7233 11.6764 43.3532C11.7208 43.0403 12.6417 36.8998 16.608 31.0473C11.9377 32.5993 8.44964 36.018 8.4052 36.0625C8.07161 36.3958 7.61926 36.583 7.14766 36.5828C6.67607 36.5827 6.22385 36.3952 5.8905 36.0616C5.55715 35.728 5.36996 35.2756 5.37013 34.804C5.3703 34.3324 5.5578 33.8802 5.89139 33.5469C6.16872 33.2695 12.7928 26.7415 20.976 26.7415C21.328 26.7407 21.6722 26.8445 21.9651 27.0397C22.2579 27.2349 22.4861 27.5127 22.6208 27.8379C22.7555 28.163 22.7905 28.5209 22.7215 28.866C22.6524 29.2111 22.4824 29.5279 22.2329 29.7762C16.4338 35.5754 15.2053 43.7746 15.1928 43.8546C15.1395 44.2352 14.9642 44.5882 14.6933 44.8608ZM44.859 14.6915C44.5881 14.962 44.237 15.1379 43.8581 15.1928C43.7746 15.2053 35.5451 16.464 29.7762 22.2329C29.5275 22.4815 29.2108 22.6508 28.866 22.7193C28.5212 22.7879 28.1638 22.7527 27.839 22.6182C27.5142 22.4836 27.2365 22.2558 27.0412 21.9635C26.8458 21.6712 26.7415 21.3276 26.7415 20.976C26.7415 12.791 33.2695 6.16872 33.5469 5.89139C33.8819 5.5673 34.3309 5.38778 34.797 5.3915C35.2632 5.39522 35.7092 5.58187 36.0391 5.91126C36.3689 6.24065 36.5562 6.68642 36.5606 7.15256C36.565 7.61869 36.3861 8.0679 36.0625 8.40342C36.0162 8.44965 32.5975 11.9359 31.0455 16.6062C36.898 12.6399 43.0368 11.719 43.3497 11.6746C43.7191 11.6216 44.0958 11.6863 44.4265 11.8593C44.7571 12.0324 45.0249 12.3052 45.1919 12.639C45.3589 12.9727 45.4166 13.3506 45.3568 13.719C45.2971 14.0874 45.1229 14.4276 44.859 14.6915Z" fill="#65471B"/>
<path d="M53.5134 21.4312C54.6722 21.5721 55.8474 21.4834 56.9719 21.1701C58.0964 20.8568 59.1482 20.3251 60.0672 19.6053C60.9863 18.8856 61.7545 17.9918 62.3282 16.9751C62.9018 15.9585 63.2695 14.8387 63.4104 13.6799C63.5516 12.5211 63.4631 11.3459 63.1501 10.2213C62.837 9.09663 62.3055 8.04469 61.5859 7.1255C60.8663 6.2063 59.9727 5.43785 58.9561 4.86402C57.9395 4.29019 56.8198 3.92223 55.661 3.78114C50.788 3.18913 37.1558 8.6932 36.9407 10.4586C36.7256 12.2239 48.6404 20.8356 53.5134 21.4312ZM21.6125 53.332C21.7534 54.4908 21.6647 55.6661 21.3514 56.7906C21.0381 57.9151 20.5064 58.9669 19.7867 59.8859C19.0669 60.8049 18.1731 61.5732 17.1565 62.1468C16.1398 62.7204 15.0201 63.0882 13.8613 63.2291C12.7025 63.3702 11.5272 63.2818 10.4026 62.9687C9.27797 62.6557 8.22603 62.1242 7.30683 61.4046C6.38763 60.6849 5.61918 59.7913 5.04535 58.7747C4.47153 57.7581 4.10356 56.6384 3.96247 55.4796C3.36869 50.6049 8.87454 36.9727 10.6399 36.7576C12.4035 36.5443 21.0169 48.4591 21.6125 53.332Z" fill="#64AADD"/>
</svg>
