<svg width="24" height="24" viewBox="0 0 24 24" fill="none" xmlns="http://www.w3.org/2000/svg">
<path d="M12.0999 22.1195C10.6834 22.1195 9.35537 21.8497 8.11587 21.31C6.87637 20.7705 5.79704 20.0412 4.87787 19.122C3.9587 18.2028 3.22937 17.1235 2.68987 15.884C2.1502 14.6445 1.88037 13.3165 1.88037 11.9C1.88037 9.41883 2.67529 7.23517 4.26512 5.349C5.85495 3.46267 7.86979 2.2925 10.3096 1.8385C10.0455 3.5045 10.1491 5.133 10.6206 6.724C11.092 8.31484 11.9213 9.70392 13.1086 10.8913C14.296 12.0786 15.684 12.905 17.2729 13.3705C18.8619 13.8358 20.4874 13.9504 22.1494 13.7143C21.716 16.1501 20.553 18.1599 18.6604 19.7438C16.7679 21.3276 14.581 22.1195 12.0999 22.1195ZM12.0999 19.8445C13.4949 19.8445 14.7925 19.5038 15.9926 18.8223C17.1928 18.1408 18.1492 17.1982 18.8619 15.9945C17.4604 15.8373 16.132 15.4629 14.8766 14.8713C13.6211 14.2796 12.493 13.4833 11.4924 12.4825C10.4915 11.4818 9.69112 10.3548 9.09112 9.10125C8.49112 7.84792 8.11887 6.5205 7.97437 5.119C6.7787 5.83567 5.84329 6.79625 5.16812 8.00075C4.49295 9.20525 4.15537 10.505 4.15537 11.9C4.15537 14.1102 4.92687 15.9868 6.46987 17.53C8.01304 19.073 9.8897 19.8445 12.0999 19.8445Z" fill="#F8FAFC"/>
</svg>
