<svg width="14" height="14" viewBox="0 0 14 14" fill="none" xmlns="http://www.w3.org/2000/svg">
<path d="M5.25204 10.1446L10.1446 6.99992L5.25204 3.85525V10.1446ZM6.99992 13.9998C6.02905 13.9998 5.11809 13.8162 4.26705 13.4489C3.41589 13.0817 2.67553 12.5833 2.04597 11.9539C1.41652 11.3243 0.918161 10.5839 0.550896 9.73279C0.183632 8.88175 0 7.97079 0 6.99992C0 6.02905 0.183632 5.11809 0.550896 4.26705C0.918161 3.41589 1.41652 2.67553 2.04597 2.04597C2.67553 1.41652 3.41589 0.918161 4.26705 0.550896C5.11809 0.183632 6.02905 0 6.99992 0C7.97079 0 8.88175 0.183632 9.73279 0.550896C10.5839 0.918161 11.3243 1.41652 11.9539 2.04597C12.5833 2.67553 13.0817 3.41589 13.4489 4.26705C13.8162 5.11809 13.9998 6.02905 13.9998 6.99992C13.9998 7.97079 13.8162 8.88175 13.4489 9.73279C13.0817 10.5839 12.5833 11.3243 11.9539 11.9539C11.3243 12.5833 10.5839 13.0817 9.73279 13.4489C8.88175 13.8162 7.97079 13.9998 6.99992 13.9998ZM6.99992 12.4391C8.52112 12.4391 9.80797 11.9129 10.8605 10.8605C11.9129 9.80797 12.4391 8.52112 12.4391 6.99992C12.4391 5.47872 11.9129 4.19187 10.8605 3.13936C9.80797 2.08696 8.52112 1.56076 6.99992 1.56076C5.47872 1.56076 4.19187 2.08696 3.13936 3.13936C2.08696 4.19187 1.56076 5.47872 1.56076 6.99992C1.56076 8.52112 2.08696 9.80797 3.13936 10.8605C4.19187 11.9129 5.47872 12.4391 6.99992 12.4391Z" fill="#F8FAFC"/>
</svg>
