<svg width="21" height="21" viewBox="0 0 21 21" fill="none" xmlns="http://www.w3.org/2000/svg">
<path d="M5.31289 19.412C4.76543 19.412 4.2968 19.2171 3.90698 18.8273C3.51717 18.4375 3.32227 17.9689 3.32227 17.4214V8.79699C3.32227 8.24953 3.51717 7.78089 3.90698 7.39108C4.2968 7.00127 4.76543 6.80636 5.31289 6.80636H6.04658V5.20817C6.04658 3.96976 6.48014 2.91531 7.34727 2.04483C8.21439 1.1742 9.26534 0.738892 10.5001 0.738892C11.7349 0.738892 12.7858 1.1742 13.653 2.04483C14.5201 2.91531 14.9536 3.96976 14.9536 5.20817V6.80636H15.6873C16.2348 6.80636 16.7034 7.00127 17.0932 7.39108C17.483 7.78089 17.678 8.24953 17.678 8.79699V17.4214C17.678 17.9689 17.483 18.4375 17.0932 18.8273C16.7034 19.2171 16.2348 19.412 15.6873 19.412H5.31289ZM10.5001 14.8592C10.9814 14.8592 11.3933 14.6879 11.736 14.3451C12.0788 14.0024 12.2501 13.5905 12.2501 13.1092C12.2501 12.628 12.0788 12.216 11.736 11.8733C11.3933 11.5306 10.9814 11.3592 10.5001 11.3592C10.0189 11.3592 9.60688 11.5306 9.26417 11.8733C8.92146 12.216 8.75011 12.628 8.75011 13.1092C8.75011 13.5905 8.92146 14.0024 9.26417 14.3451C9.60688 14.6879 10.0189 14.8592 10.5001 14.8592ZM8.0372 6.80636H12.963V5.20817C12.963 4.51969 12.7244 3.93446 12.247 3.45249C11.7697 2.97051 11.1874 2.72952 10.5001 2.72952C9.8128 2.72952 9.23048 2.97051 8.75317 3.45249C8.27586 3.93446 8.0372 4.51969 8.0372 5.20817V6.80636Z" fill="#94A3B8"/>
</svg>
