<svg width="24" height="24" viewBox="0 0 24 24" fill="none" xmlns="http://www.w3.org/2000/svg">
<path d="M18.1077 13.7431V10.7908H15.1557V8.69505H18.1077V5.74305H20.2034V8.69505H23.1557V10.7908H20.2034V13.7431H18.1077ZM9.01819 11.8983C7.85836 11.8983 6.86786 11.4877 6.04669 10.6666C5.22552 9.84539 4.81494 8.85489 4.81494 7.69505C4.81494 6.53539 5.22552 5.54589 6.04669 4.72655C6.86786 3.90739 7.85836 3.4978 9.01819 3.4978C10.1779 3.4978 11.1684 3.90739 11.9897 4.72655C12.8109 5.54589 13.2214 6.53539 13.2214 7.69505C13.2214 8.85489 12.8109 9.84539 11.9897 10.6666C11.1684 11.4877 10.1779 11.8983 9.01819 11.8983ZM0.814941 20.3051V17.2898C0.814941 16.686 0.971108 16.1311 1.28344 15.6251C1.59577 15.1189 2.01077 14.7326 2.52844 14.4663C3.57377 13.9456 4.63761 13.5541 5.71994 13.2918C6.80244 13.0295 7.90186 12.8983 9.01819 12.8983C10.142 12.8983 11.2453 13.0285 12.3279 13.2888C13.4106 13.5491 14.4705 13.9396 15.5077 14.4603C16.0254 14.7261 16.4404 15.1116 16.7529 15.6166C17.0653 16.1216 17.2214 16.6791 17.2214 17.2893V20.3051H0.814941Z" fill="#F8FAFC"/>
</svg>
