<svg width="132" height="28" viewBox="0 0 132 28" fill="none" xmlns="http://www.w3.org/2000/svg">
<path fill-rule="evenodd" clip-rule="evenodd" d="M67.9186 5.59395C69.4658 5.59395 70.8775 5.97205 72.141 6.73411C73.3953 7.49067 74.3923 8.51774 75.1272 9.80755C75.8682 11.0893 76.2349 12.5268 76.235 14.1064C76.235 15.6666 75.8678 17.1 75.1311 18.3965L75.1321 18.3975C74.4154 19.6916 73.426 20.7218 72.1694 21.4798C70.9039 22.2431 69.4723 22.6199 67.8901 22.6199C66.7799 22.6199 65.7396 22.421 64.7745 22.019L64.7628 22.0141C64.4972 21.8954 64.2464 21.7584 64.0079 21.6092V27.9041H58.7875V5.9312H63.7265V6.87136C64.0233 6.65018 64.3459 6.45558 64.6942 6.28903C65.652 5.82114 66.7307 5.59396 67.9186 5.59395ZM65.3608 17.7897C65.4357 17.8341 65.512 17.8753 65.5892 17.9142L65.3608 17.7897ZM67.3843 10.3918C66.7204 10.3919 66.1365 10.5472 65.6216 10.8516L65.6226 10.8526C65.1232 11.1588 64.7252 11.5867 64.4275 12.1487C64.1522 12.7036 64.008 13.3523 64.0079 14.1064C64.0079 14.8606 64.1523 15.5093 64.4275 16.0642L64.5432 16.2691C64.8244 16.7298 65.1822 17.0897 65.6167 17.3573C66.1329 17.6638 66.718 17.821 67.3843 17.821C68.093 17.821 68.6962 17.6616 69.2087 17.3573C69.7261 17.0501 70.1308 16.6226 70.4263 16.0642C70.7201 15.5093 70.8744 14.8609 70.8744 14.1064C70.8743 13.3518 70.7199 12.7158 70.4293 12.183L70.4263 12.1771C70.1307 11.6188 69.7261 11.1912 69.2087 10.884L69.1989 10.8781C68.6879 10.5587 68.0882 10.3918 67.3843 10.3918ZM71.8822 7.16449C71.9702 7.21758 72.0567 7.27231 72.142 7.32821C72.1281 7.3191 72.1148 7.30882 72.1008 7.29978L71.8822 7.16449C71.8105 7.12127 71.7383 7.07853 71.6655 7.03803L71.8822 7.16449Z" fill="#A78BFA"/>
<path d="M14.0545 7.72624C15.7178 7.72624 17.0662 9.07461 17.0662 10.7379V19.7729C17.0662 21.4362 15.7178 22.7846 14.0545 22.7846H3.01168C1.34837 22.7846 5.1741e-07 21.4362 0 19.7729V10.7379C0 9.07461 1.34837 7.72624 3.01168 7.72624H14.0545Z" fill="#A78BFA"/>
<path fill-rule="evenodd" clip-rule="evenodd" d="M33.251 5.59395C34.4527 5.59396 35.5764 5.80075 36.6156 6.2204C37.6482 6.63749 38.5396 7.22687 39.2831 7.98898C40.0349 8.74071 40.5743 9.63633 40.8978 10.6673L41.0331 11.0997L36.4646 13.0673L36.2891 12.5545C36.0594 11.8821 35.6724 11.3612 35.1254 10.9752L35.1195 10.9712C34.5939 10.589 33.978 10.3919 33.251 10.3918C32.6085 10.3918 32.0467 10.5472 31.552 10.8487L31.3755 10.9693C30.9763 11.2615 30.644 11.6473 30.3824 12.1379C30.1039 12.695 29.958 13.3478 29.9579 14.1064C29.9579 14.864 30.1038 15.5155 30.3815 16.0721C30.6807 16.6345 31.0714 17.0602 31.551 17.3642C32.0459 17.6661 32.6081 17.821 33.251 17.821C33.9995 17.821 34.6243 17.6235 35.148 17.2426C35.6773 16.8576 36.058 16.336 36.2891 15.6593L36.4656 15.1427L36.9656 15.3613L41.0321 17.1446L40.8978 17.573C40.5919 18.5518 40.0617 19.4262 39.3165 20.1916C38.5736 20.9544 37.6827 21.553 36.6509 21.9895L36.643 21.9925C35.6029 22.4125 34.4704 22.6199 33.251 22.6199C31.6359 22.6199 30.1632 22.2548 28.8452 21.516L28.8374 21.5111C27.5461 20.7562 26.5104 19.7304 25.7365 18.4406L25.7335 18.4357C24.9737 17.1354 24.5974 15.6783 24.5973 14.079C24.5973 12.5792 24.9279 11.2116 25.5973 9.98892L25.7355 9.74677C26.4928 8.45254 27.5319 7.43412 28.8452 6.69784C30.1632 5.95901 31.6358 5.59395 33.251 5.59395ZM31.2834 17.7897C31.344 17.8268 31.4064 17.8603 31.4687 17.8936L31.2834 17.7897ZM29.7246 12.4094L29.7256 12.4104C29.7555 12.3247 29.7877 12.2403 29.8226 12.1575C29.7878 12.24 29.7545 12.324 29.7246 12.4094ZM36.4273 6.68608L36.1048 6.56451C36.098 6.5621 36.0911 6.56004 36.0842 6.55765C36.1996 6.59803 36.3142 6.6404 36.4273 6.68608Z" fill="#A78BFA"/>
<path fill-rule="evenodd" clip-rule="evenodd" d="M49.6191 5.59395C50.9731 5.59395 52.1921 5.83877 53.2631 6.34393C54.3287 6.84656 55.1703 7.55884 55.7689 8.48308L55.8817 8.65661C56.4304 9.53351 56.6993 10.5409 56.6993 11.6614V22.2827H51.7602V21.4249C51.2394 21.7912 50.6683 22.0704 50.0475 22.2601L50.0466 22.2591C49.3166 22.5008 48.5167 22.6199 47.6515 22.6199C46.4934 22.6199 45.4657 22.433 44.582 22.0425C43.6992 21.6524 43.0009 21.0876 42.5105 20.3416L42.5066 20.3357C42.017 19.5692 41.7812 18.6761 41.7811 17.6769C41.7811 16.736 41.9969 15.885 42.4429 15.1417C42.8893 14.3789 43.5602 13.7595 44.4281 13.2751L44.432 13.2722C45.0104 12.9567 45.6704 12.7065 46.4074 12.5163L42.1948 10.5164L42.3429 10.0909C42.6688 9.15377 43.1913 8.34477 43.9065 7.67036C44.6158 7.00166 45.4625 6.48887 46.4388 6.13021C47.4181 5.77049 48.4799 5.59399 49.6191 5.59395ZM45.0545 21.6945C45.061 21.6969 45.0677 21.6989 45.0742 21.7013C44.9757 21.6645 44.8793 21.6254 44.7849 21.5837L45.0545 21.6945ZM47.1741 18.6328C47.2077 18.6576 47.2429 18.68 47.278 18.7024L47.1741 18.6328C47.1296 18.6 47.0876 18.5649 47.0486 18.5289L47.1741 18.6328ZM48.5839 16.2878L48.5829 16.2868C48.0382 16.3895 47.6763 16.5603 47.4496 16.7603L47.4437 16.7652L47.4368 16.7711C47.2601 16.9166 47.1418 17.1429 47.1417 17.5358C47.1417 17.8558 47.2532 18.0665 47.4721 18.2279C47.7267 18.4154 48.0576 18.524 48.4956 18.524C49.1143 18.5239 49.6349 18.3909 50.073 18.1406C50.5217 17.8842 50.8581 17.5461 51.0926 17.124L51.0955 17.1181C51.3318 16.7046 51.4573 16.2578 51.4749 15.7711L48.5839 16.2878ZM46.9123 12.9114C46.9038 12.9133 46.8953 12.9154 46.8868 12.9173C47.0182 12.8879 47.1521 12.8597 47.2888 12.8339L46.9123 12.9114ZM49.423 10.1115C48.7732 10.1115 48.2108 10.2868 47.7202 10.634C47.2398 10.9872 46.887 11.4521 46.6584 12.0398L46.479 12.4996C46.7109 12.4414 46.9498 12.3873 47.1966 12.3408L47.6603 12.2614L51.4779 11.6438C51.4734 11.228 51.312 10.8837 50.9553 10.584L50.9475 10.5771C50.615 10.2863 50.1275 10.1115 49.423 10.1115ZM56.1836 11.2536C56.1924 11.3873 56.1974 11.5233 56.1974 11.6614L56.1836 11.2536C56.1748 11.1197 56.162 10.988 56.1444 10.8585L56.1836 11.2536ZM48.1162 9.85069C48.0357 9.88288 47.9568 9.91892 47.879 9.95755L48.1162 9.85069C48.1966 9.81851 48.2783 9.79017 48.3613 9.76442L48.1162 9.85069ZM53.0484 6.79882L52.7171 6.65372C52.7099 6.6508 52.7027 6.6478 52.6955 6.6449C52.8152 6.69308 52.9328 6.74429 53.0484 6.79882Z" fill="#A78BFA"/>
<path fill-rule="evenodd" clip-rule="evenodd" d="M83.8524 5.59395C85.4301 5.59397 86.8341 5.969 88.0464 6.73411C89.2882 7.48735 90.1687 8.56286 90.6757 9.94186L90.8346 10.3742L86.7955 12.2663L86.6112 11.7438C86.4259 11.2193 86.0897 10.8025 85.5818 10.485L85.5739 10.4801L85.5661 10.4742C85.0742 10.1411 84.5085 9.97032 83.8524 9.97029C83.3764 9.97029 83.059 10.0684 82.8524 10.2124C82.6912 10.3362 82.6113 10.493 82.6113 10.734C82.6113 10.8425 82.6393 10.9328 82.6956 11.0173C82.7485 11.0966 82.8528 11.1957 83.0466 11.3006C83.2747 11.4138 83.5614 11.5248 83.9122 11.63L86.3572 12.3604C87.6925 12.7533 88.7561 13.3651 89.5091 14.2202C90.2749 15.071 90.6502 16.1231 90.6502 17.3397C90.6502 18.389 90.3711 19.3269 89.7993 20.1318L89.7983 20.1308C89.2546 20.9225 88.4989 21.5377 87.5503 21.9817L87.5425 21.9856C86.5838 22.414 85.4711 22.6199 84.2181 22.6199C82.4506 22.6199 80.8839 22.2059 79.5378 21.3621L79.531 21.3582C78.2031 20.493 77.2857 19.3243 76.7987 17.8632L76.6575 17.4407L80.6045 15.575L80.8201 16.027C81.1804 16.7816 81.6604 17.3568 82.2554 17.7701C82.8456 18.1799 83.4955 18.3828 84.2181 18.3828C84.7594 18.3827 85.0935 18.2717 85.2906 18.121C85.4742 17.9804 85.5709 17.796 85.571 17.5083C85.5709 17.3699 85.5374 17.2932 85.5024 17.2465L85.4945 17.2358L85.4867 17.224C85.4269 17.1345 85.3222 17.033 85.1455 16.9299C84.9682 16.8265 84.7298 16.7284 84.421 16.6426L84.42 16.6417L81.8054 15.9113L81.8035 15.9103C80.4778 15.5343 79.4179 14.9189 78.6643 14.0398L78.6604 14.0359C77.9075 13.1365 77.532 12.0744 77.532 10.8742C77.532 9.82878 77.8002 8.89339 78.3506 8.08898C78.8961 7.29185 79.6565 6.68238 80.6113 6.2557C81.5675 5.80971 82.6518 5.59395 83.8524 5.59395ZM83.971 18.8759C84.0526 18.8816 84.135 18.8857 84.2181 18.8857L83.971 18.8759ZM80.3672 16.2436C80.4163 16.3464 80.4678 16.4463 80.5211 16.5436L80.3672 16.2436ZM90.1483 17.3397L90.1444 17.1348C90.1436 17.1151 90.1424 17.0955 90.1414 17.076C90.1458 17.1627 90.1483 17.2507 90.1483 17.3397ZM87.7876 7.16449C87.884 7.22295 87.9773 7.2843 88.069 7.34684C88.0452 7.33059 88.0224 7.3128 87.9984 7.29684L87.7876 7.16449C87.7194 7.12129 87.6504 7.07854 87.5807 7.03803L87.7876 7.16449Z" fill="#A78BFA"/>
<path fill-rule="evenodd" clip-rule="evenodd" d="M97.0775 15.3995C97.0775 15.9077 97.1747 16.3396 97.355 16.7064C97.5532 17.0541 97.8228 17.3238 98.1716 17.521C98.5199 17.7179 98.9209 17.821 99.3863 17.821C99.8743 17.821 100.271 17.7164 100.593 17.5259L100.601 17.521C100.949 17.3242 101.208 17.0566 101.387 16.7132L101.391 16.7064C101.59 16.3396 101.696 15.9082 101.696 15.3995V5.9312H106.915V22.2827H101.976V21.3621C101.744 21.5692 101.487 21.752 101.206 21.9092L101.202 21.9111C100.328 22.3896 99.3146 22.6199 98.1785 22.6199C96.8701 22.6199 95.7182 22.3416 94.7452 21.7621L94.7335 21.7552C93.7878 21.1588 93.0684 20.3342 92.5796 19.2955C92.0927 18.2607 91.8571 17.0697 91.8571 15.7368V5.9312H97.0775V15.3995Z" fill="#A78BFA"/>
<path fill-rule="evenodd" clip-rule="evenodd" d="M123.909 5.59395C125.177 5.59397 126.319 5.79809 127.327 6.21942C128.328 6.62004 129.181 7.19627 129.873 7.94878C130.573 8.69084 131.103 9.55225 131.463 10.5291L131.589 10.8938C131.865 11.7531 132 12.6753 132 13.6565C132 13.9673 131.98 14.2784 131.942 14.5888L131.943 14.5898C131.922 14.9051 131.868 15.1974 131.774 15.4584L131.653 15.7887H121.167C121.206 15.9264 121.252 16.0591 121.306 16.1858C121.549 16.7517 121.915 17.1868 122.407 17.5054C122.893 17.8011 123.498 17.9612 124.246 17.9612C124.929 17.9612 125.476 17.8251 125.909 17.5779L125.915 17.574C126.38 17.3174 126.734 16.9703 126.986 16.5279L127.218 16.124L127.637 16.324L131.436 18.1279L131.262 18.5661C130.931 19.3937 130.403 20.112 129.693 20.7219L129.694 20.7229C129.005 21.3308 128.19 21.8017 127.256 22.1395L127.247 22.1435C126.308 22.4631 125.288 22.6199 124.19 22.6199C122.485 22.6199 120.979 22.2461 119.69 21.4807L119.685 21.4778C118.411 20.7013 117.42 19.6619 116.721 18.3642C116.023 17.068 115.677 15.6362 115.677 14.079C115.677 12.4665 116.032 11.011 116.753 9.72814L116.898 9.48795C117.616 8.327 118.557 7.39672 119.716 6.7047C120.962 5.96126 122.364 5.59395 123.909 5.59395ZM124.246 18.4642L123.942 18.4553C124.042 18.4609 124.143 18.4642 124.246 18.4642ZM120.678 12.1251C120.672 12.1484 120.668 12.1722 120.663 12.1957C120.69 12.0749 120.72 11.9573 120.754 11.8438L120.678 12.1251ZM123.909 9.97029C123.263 9.97029 122.737 10.127 122.307 10.4183C121.896 10.6973 121.571 11.1127 121.34 11.6938H126.416C126.414 11.6891 126.413 11.6837 126.412 11.6791L126.411 11.6751C126.237 11.138 125.937 10.7354 125.51 10.4458L125.502 10.4409L125.493 10.434C125.089 10.1349 124.572 9.97032 123.909 9.97029ZM129.503 8.28799L129.288 8.06643C129.282 8.06011 129.275 8.05409 129.269 8.0478C129.349 8.12577 129.427 8.20551 129.503 8.28799Z" fill="#A78BFA"/>
<path d="M114.214 22.2827H108.994V0H114.214V22.2827Z" fill="#A78BFA"/>
<path d="M8.53308 4.72633C13.3844 4.72633 16.0623 4.44079 16.0623 6.72235H1.00389C1.00389 4.44079 3.68178 4.72633 8.53308 4.72633Z" fill="#A78BFA"/>
</svg>
