<svg width="44" height="28" viewBox="0 0 44 28" fill="none" xmlns="http://www.w3.org/2000/svg">
<path d="M42.4015 27.9303H1.59487C0.71494 27.9303 0 27.2154 0 26.3355V1.6022C0 0.718607 0.71494 0 1.6022 0H42.3978C43.2814 0 44 0.714941 44 1.6022V26.3355C43.9963 27.2154 43.2814 27.9303 42.4015 27.9303Z" fill="#2E7D32"/>
<path d="M42.4491 23.4647H1.5472C0.692942 23.4647 0 22.7718 0 21.9175V1.6022C0 0.718607 0.71494 0 1.6022 0H42.3978C43.2814 0 44 0.714941 44 1.6022V21.9175C43.9963 22.7718 43.3034 23.4647 42.4491 23.4647Z" fill="#66BB6A"/>
<path d="M13.0829 14.4677C13.0829 14.0167 12.9252 13.6354 12.6099 13.3275C12.2946 13.0195 11.7593 12.7372 11.0077 12.4879C9.96281 12.1689 9.2002 11.7546 8.72358 11.2413C8.24328 10.728 8.00497 10.0754 8.00497 9.28713C8.00497 8.48053 8.23962 7.82059 8.70891 7.3073C9.1782 6.79034 9.82348 6.48603 10.6411 6.38704V5.11481C10.6411 4.92783 10.7951 4.77384 10.9821 4.77384H11.3964C11.5833 4.77384 11.7373 4.92783 11.7373 5.11481V6.39437C12.5623 6.50803 13.2039 6.85267 13.6622 7.43195C14.0728 7.95258 14.3001 8.64185 14.3441 9.50345C14.3514 9.6721 14.2121 9.81142 14.0435 9.81142H13.2845C13.1232 9.81142 12.9986 9.6831 12.9839 9.52178C12.9436 8.96082 12.7822 8.5062 12.4999 8.15789C12.17 7.75093 11.7263 7.54561 11.169 7.54561C10.5861 7.54561 10.1388 7.69593 9.83082 8.00024C9.52284 8.30088 9.36519 8.72618 9.36519 9.26513C9.36519 9.76742 9.53018 10.1671 9.85648 10.464C10.1828 10.761 10.7217 11.0323 11.4697 11.2743C12.2176 11.5163 12.8006 11.7839 13.2222 12.0772C13.6402 12.3705 13.9518 12.7078 14.1498 13.0965C14.3478 13.4851 14.4468 13.9397 14.4468 14.4604C14.4468 15.289 14.1975 15.9562 13.6988 16.4622C13.2002 16.9682 12.5036 17.2688 11.6053 17.3605V18.4237C11.6053 18.6107 11.4513 18.7647 11.2644 18.7647H10.8537C10.6667 18.7647 10.5128 18.6107 10.5128 18.4237V17.3605C9.59984 17.2761 8.8849 16.9535 8.36794 16.3852C7.90598 15.8792 7.64933 15.212 7.60167 14.387C7.59067 14.2184 7.73366 14.0791 7.90231 14.0791H8.66858C8.82257 14.0791 8.95456 14.1927 8.96556 14.3467C9.00589 14.9003 9.18187 15.3366 9.49351 15.6556C9.85282 16.0222 10.3588 16.2092 11.0187 16.2092C11.6603 16.2092 12.1663 16.0552 12.5366 15.7436C12.8996 15.4246 13.0829 15.003 13.0829 14.4677Z" fill="white"/>
<path d="M11.5992 17.6647L10.5103 17.353L10.6349 6.41994V6.04964L11.7312 6.39061L11.5992 17.3457V17.6647Z" fill="white"/>
<path opacity="0.5" d="M29.6177 18.5151C33.3637 18.5151 36.4005 15.4784 36.4005 11.7324C36.4005 7.98633 33.3637 4.94958 29.6177 4.94958C25.8717 4.94958 22.835 7.98633 22.835 11.7324C22.835 15.4784 25.8717 18.5151 29.6177 18.5151Z" fill="#2E7D32"/>
<path d="M37.5639 2.63632C37.8792 4.61616 39.4484 6.18536 41.4282 6.50067V16.9645C39.4484 17.2798 37.8792 18.849 37.5639 20.8288H6.38882C5.98552 18.9553 4.46032 17.5108 2.56847 17.2101V6.74632C4.63263 6.42001 6.24583 4.73348 6.46582 2.63632H37.5639ZM38.2385 1.90305H5.75454C5.75821 1.98371 5.76187 2.06437 5.76187 2.1487C5.76187 4.31552 4.00569 6.07171 1.83887 6.07171V17.8884C3.92136 17.8884 5.62622 19.5126 5.75454 21.5658H38.2422C38.2422 19.3989 39.9984 17.6427 42.1652 17.6427V5.82606C39.9947 5.82606 38.2385 4.06987 38.2385 1.90305Z" fill="#2E7D32"/>
<path d="M26.034 0H17.9644V27.9303H26.034V0Z" fill="#FFECB3"/>
<path d="M26.034 23.4646H17.9644V27.9302H26.034V23.4646Z" fill="#FFC06C"/>
</svg>
