<svg width="24" height="24" viewBox="0 0 24 24" fill="none" xmlns="http://www.w3.org/2000/svg">
<path d="M1.77246 22.3647L7.02371 7.67121L16.472 17.1195L1.77246 22.3647ZM14.783 12.6397L13.6432 11.5L19.1415 6.00171C19.6988 5.44437 20.3714 5.16571 21.1592 5.16571C21.947 5.16571 22.6196 5.44437 23.177 6.00171L23.777 6.60171L22.6312 7.74121L22.0312 7.14121C21.7979 6.90787 21.5062 6.79121 21.1562 6.79121C20.8062 6.79121 20.5145 6.90787 20.2812 7.14121L14.783 12.6397ZM10.5975 8.46021L9.45796 7.31471L10.022 6.75046C10.2553 6.51712 10.372 6.23379 10.372 5.90046C10.372 5.56712 10.2553 5.28379 10.022 5.05046L9.37196 4.40046L10.5117 3.26071L11.1617 3.91071C11.7189 4.46804 11.9975 5.13229 11.9975 5.90346C11.9975 6.67462 11.7189 7.33887 11.1617 7.89621L10.5975 8.46021ZM12.6932 10.55L11.5475 9.4102L15.0757 5.88196C15.309 5.64862 15.4257 5.35696 15.4257 5.00696C15.4257 4.65696 15.309 4.36529 15.0757 4.13196L13.4757 2.53196L14.6215 1.39246L16.2215 2.99246C16.7786 3.54962 17.0572 4.22112 17.0572 5.00696C17.0572 5.79279 16.7786 6.46437 16.2215 7.02171L12.6932 10.55ZM16.8725 14.7352L15.733 13.5897L17.297 12.0255C17.8543 11.4683 18.5269 11.1897 19.3147 11.1897C20.1025 11.1897 20.775 11.4683 21.3322 12.0255L22.9322 13.6255L21.7867 14.7712L20.1867 13.1712C19.9534 12.9379 19.6617 12.8212 19.3117 12.8212C18.9617 12.8212 18.67 12.9379 18.4367 13.1712L16.8725 14.7352Z" fill="#913AF9"/>
</svg>
