<svg width="21" height="21" viewBox="0 0 21 21" fill="none" xmlns="http://www.w3.org/2000/svg">
<path d="M11.4951 18.8562V16.9859H13.3654V18.8562H11.4951ZM9.6248 16.9859V12.3703H11.4951V16.9859H9.6248ZM16.944 14.1988V10.5H18.8143V14.1988H16.944ZM15.0736 10.5V8.62967H16.944V10.5H15.0736ZM4.01387 12.3703V10.5H5.88418V12.3703H4.01387ZM2.14355 10.5V8.62967H4.01387V10.5H2.14355ZM10.4998 4.01405V2.14374H12.3701V4.01405H10.4998ZM3.61815 6.28008H6.2799V3.61833H3.61815V6.28008ZM2.14355 7.75467V2.14374H7.75449V7.75467H2.14355ZM3.61815 17.3816H6.2799V14.7199H3.61815V17.3816ZM2.14355 18.8562V13.2453H7.75449V18.8562H2.14355ZM14.7197 6.28008H17.3815V3.61833H14.7197V6.28008ZM13.2451 7.75467V2.14374H18.8561V7.75467H13.2451ZM15.1572 18.8562V16.0691H13.3236V14.1988H16.944V16.9859H18.8143V18.8562H15.1572ZM11.4951 12.3703V10.5H15.0736V12.3703H11.4951ZM7.75449 12.3703V10.5H5.88418V8.62967H11.4951V10.5H9.6248V12.3703H7.75449ZM8.62949 7.75467V4.01405H10.4998V5.92614H12.3701V7.75467H8.62949ZM4.31115 5.58708V4.31133H5.5869V5.58708H4.31115ZM4.31115 16.6886V15.4129H5.5869V16.6886H4.31115ZM15.4127 5.58708V4.31133H16.6885V5.58708H15.4127Z" fill="white"/>
</svg>
