<svg width="22" height="22" viewBox="0 0 22 22" fill="none" xmlns="http://www.w3.org/2000/svg">
<path d="M7.98818 18.4595C7.67239 18.4595 7.388 18.3681 7.135 18.1854C6.88215 18.0028 6.69859 17.7688 6.58431 17.4834L4.51425 12.0428H0.528809V9.95738H5.96212L7.98818 15.319L12.0843 4.51673C12.1986 4.23134 12.3822 3.99736 12.635 3.81479C12.888 3.63207 13.1724 3.54071 13.4882 3.54071C13.804 3.54071 14.0884 3.63207 14.3414 3.81479C14.5942 3.99736 14.7778 4.23134 14.8921 4.51673L16.9621 9.95738H20.9476V12.0428H15.5142L13.4882 6.68121L9.39206 17.4834C9.27778 17.7688 9.09422 18.0028 8.84137 18.1854C8.58837 18.3681 8.30398 18.4595 7.98818 18.4595Z" fill="#0062FF"/>
</svg>
