<svg width="30" height="30" viewBox="0 0 30 30" fill="none" xmlns="http://www.w3.org/2000/svg">
<path d="M11.2545 21.7387L21.7387 15L11.2545 8.26134V21.7387ZM15 30C12.9195 30 10.9675 29.6065 9.14378 28.8195C7.31985 28.0325 5.73335 26.9646 4.38427 25.6157C3.03543 24.2667 1.96751 22.6802 1.18051 20.8562C0.393502 19.0325 0 17.0805 0 15C0 12.9195 0.393502 10.9675 1.18051 9.14378C1.96751 7.31985 3.03543 5.73334 4.38427 4.38426C5.73335 3.03543 7.31985 1.96751 9.14378 1.18051C10.9675 0.393502 12.9195 0 15 0C17.0805 0 19.0325 0.393502 20.8562 1.18051C22.6802 1.96751 24.2667 3.03543 25.6157 4.38426C26.9646 5.73334 28.0325 7.31985 28.8195 9.14378C29.6065 10.9675 30 12.9195 30 15C30 17.0805 29.6065 19.0325 28.8195 20.8562C28.0325 22.6802 26.9646 24.2667 25.6157 25.6157C24.2667 26.9646 22.6802 28.0325 20.8562 28.8195C19.0325 29.6065 17.0805 30 15 30ZM15 26.6555C18.2597 26.6555 21.0173 25.5279 23.2727 23.2727C25.5279 21.0173 26.6555 18.2597 26.6555 15C26.6555 11.7403 25.5279 8.98268 23.2727 6.72727C21.0173 4.4721 18.2597 3.34452 15 3.34452C11.7403 3.34452 8.98268 4.4721 6.72727 6.72727C4.47211 8.98268 3.34452 11.7403 3.34452 15C3.34452 18.2597 4.47211 21.0173 6.72727 23.2727C8.98268 25.5279 11.7403 26.6555 15 26.6555Z" fill="#F8FAFC"/>
</svg>
