<svg width="26" height="26" viewBox="0 0 26 26" fill="none" xmlns="http://www.w3.org/2000/svg">
<path d="M2.47607 25.0714V20.7381H24.1427V25.0714H2.47607ZM6.80941 16.4048H8.32607L16.7761 7.98185L15.2323 6.4381L6.80941 14.8881V16.4048ZM4.64274 18.5714V13.9673L16.7761 1.86101C16.9747 1.6624 17.2049 1.50893 17.4667 1.4006C17.7285 1.29226 18.0039 1.2381 18.2927 1.2381C18.5816 1.2381 18.8615 1.29226 19.1323 1.4006C19.4032 1.50893 19.6469 1.67143 19.8636 1.8881L21.3532 3.40476C21.5698 3.60338 21.7278 3.8381 21.8271 4.10893C21.9264 4.37977 21.9761 4.65963 21.9761 4.94851C21.9761 5.21935 21.9264 5.48567 21.8271 5.74747C21.7278 6.00928 21.5698 6.24852 21.3532 6.46518L9.24691 18.5714H4.64274Z" fill="white"/>
</svg>
