<svg width="26" height="26" viewBox="0 0 26 26" fill="none" xmlns="http://www.w3.org/2000/svg">
<path d="M9.83271 24.0536L9.38638 20.5157C9.18614 20.4384 8.9962 20.3451 8.81654 20.2359C8.63707 20.1268 8.46094 20.0109 8.28815 19.8882L5.0005 21.2746L1.82715 15.7791L4.66846 13.6276C4.65474 13.5185 4.64788 13.414 4.64788 13.3139V12.6862C4.64788 12.5861 4.65474 12.4816 4.66846 12.3725L1.82715 10.221L5.0005 4.73855L8.30115 6.11845C8.47394 5.99567 8.65134 5.88075 8.83334 5.77368C9.01552 5.66679 9.19986 5.57471 9.38638 5.49743L9.83271 1.94653H16.1664L16.6128 5.49743C16.813 5.57471 17.0029 5.66679 17.1826 5.77368C17.3621 5.88075 17.5382 5.99567 17.711 6.11845L20.9986 4.73855L24.172 10.221L21.3242 12.3725C21.3379 12.4816 21.3448 12.5861 21.3448 12.6862V13.0001C21.3448 13.1091 21.3437 13.2137 21.3415 13.3139C21.3393 13.414 21.3245 13.5185 21.2971 13.6276L24.1449 15.7791L20.965 21.2746L17.698 19.8882C17.5252 20.0109 17.3478 20.1268 17.1658 20.2359C16.9836 20.3451 16.7993 20.4384 16.6128 20.5157L16.1664 24.0536H9.83271ZM13.0342 16.7917C14.0815 16.7917 14.9752 16.4216 15.7155 15.6813C16.4558 14.941 16.8259 14.0473 16.8259 13.0001C16.8259 11.9528 16.4558 11.0591 15.7155 10.3188C14.9752 9.57853 14.0815 9.20839 13.0342 9.20839C11.9733 9.20839 11.0761 9.57853 10.3427 10.3188C9.60927 11.0591 9.24256 11.9528 9.24256 13.0001C9.24256 14.0473 9.60927 14.941 10.3427 15.6813C11.0761 16.4216 11.9733 16.7917 13.0342 16.7917Z" fill="#A78BFA"/>
</svg>
