<svg width="24" height="24" viewBox="0 0 24 24" fill="none" xmlns="http://www.w3.org/2000/svg">
<path d="M13.1377 21.55V19.4125H15.2752V21.55H13.1377ZM11.0002 19.4125V14.1375H13.1377V19.4125H11.0002ZM19.3649 16.2272V12H21.5024V16.2272H19.3649ZM17.2274 12V9.86245H19.3649V12H17.2274ZM4.5877 14.1375V12H6.7252V14.1375H4.5877ZM2.4502 12V9.86245H4.5877V12H2.4502ZM12.0002 4.58745V2.44995H14.1377V4.58745H12.0002ZM4.13545 7.1772H7.17745V4.1352H4.13545V7.1772ZM2.4502 8.86245V2.44995H8.8627V8.86245H2.4502ZM4.13545 19.8647H7.17745V16.8227H4.13545V19.8647ZM2.4502 21.55V15.1375H8.8627V21.55H2.4502ZM16.8229 7.1772H19.8649V4.1352H16.8229V7.1772ZM15.1377 8.86245V2.44995H21.5502V8.86245H15.1377ZM17.3229 21.55V18.3647H15.2274V16.2272H19.3649V19.4125H21.5024V21.55H17.3229ZM13.1377 14.1375V12H17.2274V14.1375H13.1377ZM8.8627 14.1375V12H6.7252V9.86245H13.1377V12H11.0002V14.1375H8.8627ZM9.8627 8.86245V4.58745H12.0002V6.7727H14.1377V8.86245H9.8627ZM4.92745 6.3852V4.9272H6.38545V6.3852H4.92745ZM4.92745 19.0727V17.6147H6.38545V19.0727H4.92745ZM17.6149 6.3852V4.9272H19.0729V6.3852H17.6149Z" fill="#A78BFA"/>
</svg>
