<svg width="24" height="24" viewBox="0 0 24 24" fill="none" xmlns="http://www.w3.org/2000/svg">
<path d="M9.07676 22.2033L8.66476 18.9375C8.47993 18.8662 8.30459 18.7801 8.13876 18.6793C7.97309 18.5786 7.81051 18.4716 7.65101 18.3583L4.61626 19.638L1.68701 14.5653L4.30976 12.5793C4.2971 12.4786 4.29076 12.3821 4.29076 12.2898V11.7103C4.29076 11.6179 4.2971 11.5214 4.30976 11.4208L1.68701 9.43475L4.61626 4.374L7.66301 5.64775C7.82251 5.53442 7.98626 5.42834 8.15426 5.3295C8.32243 5.23084 8.49259 5.14584 8.66476 5.0745L9.07676 1.79675H14.9233L15.3353 5.0745C15.5201 5.14584 15.6954 5.23084 15.8613 5.3295C16.0269 5.42834 16.1895 5.53442 16.349 5.64775L19.3838 4.374L22.313 9.43475L19.6843 11.4208C19.6969 11.5214 19.7033 11.6179 19.7033 11.7103V12C19.7033 12.1007 19.7023 12.1973 19.7003 12.2898C19.6983 12.3821 19.6846 12.4786 19.6593 12.5793L22.288 14.5653L19.3528 19.638L16.337 18.3583C16.1775 18.4716 16.0138 18.5786 15.8458 18.6793C15.6776 18.7801 15.5074 18.8662 15.3353 18.9375L14.9233 22.2033H9.07676ZM11.0658 19.9283H12.9033L13.2593 17.2903C13.7799 17.1569 14.2661 16.9601 14.7178 16.6998C15.1693 16.4394 15.5783 16.1179 15.945 15.7353L18.4143 16.7603L19.3175 15.168L17.1853 13.555C17.2686 13.3137 17.3289 13.0618 17.3663 12.7995C17.4036 12.5372 17.4223 12.2707 17.4223 12C17.4223 11.7293 17.4036 11.4628 17.3663 11.2005C17.3289 10.9382 17.2686 10.6863 17.1853 10.445L19.3293 8.832L18.4143 7.23975L15.951 8.28975C15.5843 7.89442 15.1753 7.56459 14.7238 7.30025C14.2721 7.03592 13.7839 6.83909 13.2593 6.70975L12.9343 4.07175H11.0848L10.7468 6.70375C10.2181 6.83309 9.72693 7.02992 9.27326 7.29425C8.81976 7.55859 8.40768 7.88209 8.03701 8.26475L5.58001 7.23975L4.67076 8.832L6.79676 10.4143C6.71343 10.6721 6.6531 10.929 6.61576 11.185C6.57843 11.441 6.55976 11.7127 6.55976 12C6.55976 12.2707 6.57843 12.535 6.61576 12.793C6.6531 13.051 6.71343 13.3089 6.79676 13.5668L4.67076 15.168L5.58001 16.7603L8.03701 15.7163C8.40768 16.1076 8.82076 16.4354 9.27626 16.6998C9.73193 16.9641 10.2221 17.1629 10.7468 17.2963L11.0658 19.9283ZM12.032 15.5C12.9987 15.5 13.8237 15.1583 14.507 14.475C15.1903 13.7917 15.532 12.9667 15.532 12C15.532 11.0333 15.1903 10.2083 14.507 9.525C13.8237 8.84167 12.9987 8.5 12.032 8.5C11.0527 8.5 10.2245 8.84167 9.54751 9.525C8.87051 10.2083 8.53201 11.0333 8.53201 12C8.53201 12.9667 8.87051 13.7917 9.54751 14.475C10.2245 15.1583 11.0527 15.5 12.032 15.5Z" fill="#F8FAFC"/>
</svg>
