<svg width="29" height="29" viewBox="0 0 29 29" fill="none" xmlns="http://www.w3.org/2000/svg">
<path d="M14.4998 26.829C12.8148 26.829 11.2227 26.5046 9.72359 25.8557C8.22465 25.207 6.91552 24.323 5.7962 23.2037C4.67688 22.0844 3.79288 20.7752 3.14421 19.2763C2.49534 17.7772 2.1709 16.1851 2.1709 14.5001C2.1709 12.7997 2.49534 11.2038 3.14421 9.71235C3.79288 8.22107 4.67688 6.91576 5.7962 5.79645C6.91552 4.67713 8.22465 3.79313 9.72359 3.14446C11.2227 2.49558 12.8148 2.17114 14.4998 2.17114C16.2002 2.17114 17.7961 2.49558 19.2875 3.14446C20.7788 3.79313 22.0841 4.67713 23.2035 5.79645C24.3228 6.91576 25.2068 8.22107 25.8554 9.71235C26.5043 11.2038 26.8288 12.7997 26.8288 14.5001C26.8288 16.1851 26.5043 17.7772 25.8554 19.2763C25.2068 20.7752 24.3228 22.0844 23.2035 23.2037C22.0841 24.323 20.7788 25.207 19.2875 25.8557C17.7961 26.5046 16.2002 26.829 14.4998 26.829ZM14.4853 24.0269C14.9898 23.3115 15.4334 22.5624 15.816 21.7794C16.1986 20.9964 16.5108 20.1667 16.7525 19.2902H12.2402C12.4819 20.1667 12.7904 20.9964 13.1658 21.7794C13.5412 22.5624 13.981 23.3115 14.4853 24.0269ZM11.3799 23.5435C11.0077 22.8886 10.6906 22.2037 10.4283 21.4888C10.1661 20.7738 9.94441 20.041 9.76316 19.2902H6.24177C6.8113 20.2875 7.53046 21.1563 8.39925 21.8966C9.26825 22.6369 10.2618 23.1859 11.3799 23.5435ZM17.5983 23.5435C18.7164 23.1859 19.7123 22.6369 20.5859 21.8966C21.4595 21.1563 22.1811 20.2875 22.7506 19.2902H19.2295C19.0483 20.041 18.824 20.7738 18.5568 21.4888C18.2898 22.2037 17.9703 22.8886 17.5983 23.5435ZM5.22194 16.895H9.27983C9.21941 16.4922 9.1741 16.0969 9.14389 15.709C9.11368 15.3211 9.09858 14.9182 9.09858 14.5001C9.09858 14.0772 9.11368 13.673 9.14389 13.2875C9.1741 12.902 9.21941 12.5079 9.27983 12.1052H5.22194C5.12125 12.5031 5.04572 12.896 4.99538 13.2839C4.94503 13.6718 4.91986 14.0772 4.91986 14.5001C4.91986 14.9182 4.94503 15.3223 4.99538 15.7126C5.04572 16.1029 5.12125 16.497 5.22194 16.895ZM11.6965 16.895H17.2962C17.3566 16.4922 17.3995 16.0969 17.4249 15.709C17.4503 15.3211 17.463 14.9182 17.463 14.5001C17.463 14.0772 17.4503 13.673 17.4249 13.2875C17.3995 12.902 17.3566 12.5079 17.2962 12.1052H11.6965C11.6361 12.5079 11.5908 12.902 11.5606 13.2875C11.5303 13.673 11.5152 14.0772 11.5152 14.5001C11.5152 14.9182 11.5303 15.3211 11.5606 15.709C11.5908 16.0969 11.6361 16.4922 11.6965 16.895ZM19.7129 16.895H23.7632C23.8639 16.497 23.9394 16.1029 23.9898 15.7126C24.0401 15.3223 24.0653 14.9182 24.0653 14.5001C24.0653 14.0772 24.0401 13.6718 23.9898 13.2839C23.9394 12.896 23.8639 12.5031 23.7632 12.1052H19.7129C19.7685 12.5079 19.8102 12.902 19.8379 13.2875C19.8657 13.673 19.8796 14.0772 19.8796 14.5001C19.8796 14.9182 19.8657 15.3211 19.8379 15.709C19.8102 16.0969 19.7685 16.4922 19.7129 16.895ZM19.2295 9.70299H22.7506C22.1811 8.70551 21.4595 7.83782 20.5859 7.09994C19.7123 6.36205 18.7164 5.81427 17.5983 5.4566C17.9703 6.11152 18.2898 6.79523 18.5568 7.50775C18.824 8.22026 19.0483 8.95201 19.2295 9.70299ZM12.2402 9.70299H16.7525C16.5154 8.82634 16.2056 7.99773 15.823 7.21714C15.4403 6.43656 14.9944 5.6886 14.4853 4.97327C13.981 5.6886 13.5412 6.43656 13.1658 7.21714C12.7904 7.99773 12.4819 8.82634 12.2402 9.70299ZM6.24177 9.70299H9.76316C9.94441 8.95201 10.1661 8.22026 10.4283 7.50775C10.6906 6.79523 11.0077 6.11152 11.3799 5.4566C10.2618 5.81427 9.26825 6.36205 8.39925 7.09994C7.53046 7.83782 6.8113 8.70551 6.24177 9.70299Z" fill="#35B557"/>
</svg>
