<svg width="19" height="19" viewBox="0 0 19 19" fill="none" xmlns="http://www.w3.org/2000/svg">
<path d="M0.644531 16.0749V13.6878C0.644531 13.2098 0.768163 12.7705 1.01543 12.3699C1.26269 11.9692 1.59123 11.6634 2.00105 11.4525C2.82861 11.0403 3.67081 10.7304 4.52766 10.5227C5.38464 10.315 6.25501 10.2112 7.13877 10.2112C8.02847 10.2112 8.90188 10.3142 9.75899 10.5203C10.6161 10.7264 11.4552 11.0356 12.2763 11.4478C12.6861 11.6582 13.0147 11.9634 13.2621 12.3631C13.5094 12.7629 13.633 13.2044 13.633 13.6874V16.0749H0.644531ZM15.2874 16.0749V13.5435C15.2874 12.9504 15.1273 12.3788 14.8071 11.8286C14.487 11.2785 14.0253 10.7885 13.4222 10.3584C14.0604 10.444 14.6638 10.58 15.2322 10.7666C15.8007 10.9531 16.336 11.1802 16.8379 11.4478C17.3255 11.7117 17.7003 12.0231 17.962 12.3821C18.2237 12.741 18.3545 13.1329 18.3545 13.5578V16.0749H15.2874ZM7.13877 9.41953C6.2426 9.41953 5.47739 9.1024 4.84314 8.46815C4.20875 7.83376 3.89155 7.06855 3.89155 6.17251C3.89155 5.27648 4.20875 4.51127 4.84314 3.87688C5.47739 3.24249 6.2426 2.92529 7.13877 2.92529C8.03481 2.92529 8.80002 3.24249 9.43441 3.87688C10.0687 4.51127 10.3858 5.27648 10.3858 6.17251C10.3858 7.06855 10.0687 7.83376 9.43441 8.46815C8.80002 9.1024 8.03481 9.41953 7.13877 9.41953ZM15.2874 6.17251C15.2874 7.06538 14.9695 7.8298 14.3336 8.46577C13.6979 9.10161 12.9337 9.41953 12.041 9.41953C11.8921 9.41953 11.7071 9.40231 11.486 9.36788C11.2649 9.33331 11.0754 9.29306 10.9176 9.24715C11.2802 8.81859 11.5579 8.34095 11.7508 7.81423C11.9437 7.28751 12.0402 6.74047 12.0402 6.17311C12.0402 5.60588 11.9437 5.0587 11.7508 4.53159C11.5579 4.00434 11.2802 3.52643 10.9176 3.09788C11.1055 3.02874 11.2918 2.98269 11.4765 2.95973C11.6612 2.93677 11.8484 2.92529 12.038 2.92529C12.9315 2.92529 13.6965 3.24328 14.3328 3.87925C14.9692 4.51509 15.2874 5.27951 15.2874 6.17251ZM2.44557 14.2738H11.832V13.7114C11.832 13.5693 11.7957 13.4401 11.7231 13.3238C11.6505 13.2076 11.5549 13.1172 11.4361 13.0527C10.7425 12.7091 10.0376 12.4498 9.3214 12.2749C8.6052 12.0998 7.87766 12.0122 7.13877 12.0122C6.40622 12.0122 5.67861 12.0998 4.95595 12.2749C4.23342 12.4498 3.52857 12.7091 2.84141 13.0527C2.72266 13.1172 2.627 13.2076 2.55443 13.3238C2.48186 13.4401 2.44557 13.5693 2.44557 13.7114V14.2738ZM7.13798 7.68954C7.55492 7.68954 7.91216 7.54111 8.2097 7.24423C8.5071 6.94722 8.6558 6.59025 8.6558 6.1733C8.6558 5.75623 8.5073 5.39899 8.21029 5.10159C7.91342 4.80418 7.55651 4.65548 7.13956 4.65548C6.72249 4.65548 6.36525 4.80392 6.06784 5.10079C5.77044 5.3978 5.62174 5.75478 5.62174 6.17172C5.62174 6.58867 5.77018 6.9459 6.06705 7.24344C6.36406 7.54084 6.72104 7.68954 7.13798 7.68954Z" fill="white"/>
</svg>
