<svg width="32" height="32" viewBox="0 0 32 32" fill="none" xmlns="http://www.w3.org/2000/svg">
<mask id="mask0_0_484" style="mask-type:alpha" maskUnits="userSpaceOnUse" x="0" y="0" width="42" height="42">
<rect width="42" height="42" fill="#F8FAFC"/>
</mask>
<g mask="url(#mask0_0_484)">
<mask id="mask1_0_484" style="mask-type:alpha" maskUnits="userSpaceOnUse" x="0" y="0" width="42" height="42">
<rect width="42" height="42" fill="#F8FAFC"/>
</mask>
<g mask="url(#mask1_0_484)">
<path d="M5.0625 25.6043V22.571H7.6335V13.5086C7.6335 11.5951 8.20372 9.88841 9.34417 8.38863C10.4844 6.88885 11.9753 5.90885 13.8168 5.44863V4.57896C13.8168 3.97252 14.0291 3.45696 14.4535 3.0323C14.8782 2.60785 15.3937 2.39563 16.0002 2.39563C16.6066 2.39563 17.1222 2.60785 17.5468 3.0323C17.9713 3.45696 18.1835 3.97252 18.1835 4.57896V5.44863C20.0304 5.90885 21.5226 6.88752 22.6602 8.38463C23.7979 9.88174 24.3668 11.5897 24.3668 13.5086V22.571H26.9378V25.6043H5.0625ZM16.0082 29.692C15.2486 29.692 14.5983 29.4223 14.0572 28.883C13.5163 28.3436 13.2458 27.6952 13.2458 26.9376H18.7625C18.7625 27.6976 18.4928 28.3466 17.9535 28.8846C17.4139 29.4229 16.7655 29.692 16.0082 29.692ZM10.6668 22.571H21.3335V13.5086C21.3335 12.042 20.8113 10.7864 19.7668 9.74196C18.7224 8.69752 17.4668 8.1753 16.0002 8.1753C14.5335 8.1753 13.2779 8.69752 12.2335 9.74196C11.1891 10.7864 10.6668 12.042 10.6668 13.5086V22.571Z" fill="#F8FAFC"/>
</g>
</g>
</svg>
