<svg width="40" height="40" viewBox="0 0 40 40" fill="none" xmlns="http://www.w3.org/2000/svg">
<path d="M15.199 35.3387H8.4528C7.40335 35.3387 6.50905 34.9691 5.76988 34.23C5.03072 33.4908 4.66113 32.5965 4.66113 31.547V8.45288C4.66113 7.40343 5.03072 6.50913 5.76988 5.76996C6.50905 5.03079 7.40335 4.66121 8.4528 4.66121H15.199V8.45288H8.4528V31.547H15.199V35.3387ZM18.1341 38.642V1.35788H21.9257V38.642H18.1341ZM24.8603 35.3387V31.547H28.622V35.3387H24.8603ZM24.8603 8.45288V4.66121H28.622V8.45288H24.8603ZM31.547 35.3387V31.547H35.3386C35.3386 32.5965 34.9691 33.4908 34.2299 34.23C33.4907 34.9691 32.5964 35.3387 31.547 35.3387ZM31.547 28.6125V24.8208H35.3386V28.6125H31.547ZM31.547 21.8958V18.1041H35.3386V21.8958H31.547ZM31.547 15.1695V11.3779H35.3386V15.1695H31.547ZM31.547 8.45288V4.66121C32.5964 4.66121 33.4907 5.03079 34.2299 5.76996C34.9691 6.50913 35.3386 7.40343 35.3386 8.45288H31.547Z" fill="#F8FAFC"/>
</svg>
