<svg width="24" height="24" viewBox="0 0 24 24" fill="none" xmlns="http://www.w3.org/2000/svg">
<path d="M12.1553 13.3684L18.1553 9.36839L12.1553 5.36839V13.3684ZM12.5923 19.0716H18.2161C18.1274 19.5806 17.9095 19.9984 17.5623 20.3249C17.2152 20.6514 16.7787 20.85 16.2531 20.9206L5.68183 22.2036C5.05616 22.291 4.49458 22.1419 3.99708 21.7564C3.49958 21.3709 3.21158 20.8653 3.13308 20.2396L1.81983 9.46414C1.74133 8.83831 1.89366 8.27789 2.27683 7.78289C2.65999 7.28773 3.16441 7.00281 3.79008 6.92814L4.94008 6.78414V9.05914L4.06983 9.17814L5.40208 19.9656L12.5923 19.0716ZM9.21508 17.0716C8.58541 17.0716 8.04883 16.8499 7.60533 16.4064C7.16183 15.9629 6.94008 15.4263 6.94008 14.7966V3.94614C6.94008 3.31648 7.16183 2.77989 7.60533 2.33639C8.04883 1.89289 8.58541 1.67114 9.21508 1.67114H20.0716C20.7012 1.67114 21.2378 1.89289 21.6813 2.33639C22.1248 2.77989 22.3466 3.31648 22.3466 3.94614V14.7966C22.3466 15.4263 22.1248 15.9629 21.6813 16.4064C21.2378 16.8499 20.7012 17.0716 20.0716 17.0716H9.21508ZM9.21508 14.7966H20.0716V3.94614H9.21508V14.7966Z" fill="#94A3B8"/>
</svg>
