<?xml version="1.0" encoding="UTF-8" standalone="no"?>
<svg
   width="1024"
   height="216.46765"
   viewBox="0 403.76617 1024 216.46765"
   fill="none"
   version="1.1"
   id="svg200"
   sodipodi:docname="logo.svg"
   inkscape:version="1.2.2 (b0a84865, 2022-12-01)"
   inkscape:export-filename="ios_splash.png"
   inkscape:export-xdpi="64"
   inkscape:export-ydpi="64"
   xml:space="preserve"
   xmlns:inkscape="http://www.inkscape.org/namespaces/inkscape"
   xmlns:sodipodi="http://sodipodi.sourceforge.net/DTD/sodipodi-0.dtd"
   xmlns="http://www.w3.org/2000/svg"
   xmlns:svg="http://www.w3.org/2000/svg"><defs
     id="defs204" /><sodipodi:namedview
     id="namedview202"
     pagecolor="#ffffff"
     bordercolor="#666666"
     borderopacity="1.0"
     inkscape:showpageshadow="2"
     inkscape:pageopacity="0.0"
     inkscape:pagecheckerboard="0"
     inkscape:deskcolor="#d1d1d1"
     showgrid="false"
     inkscape:zoom="0.54990865"
     inkscape:cx="230.03821"
     inkscape:cy="27.277258"
     inkscape:window-width="1920"
     inkscape:window-height="1052"
     inkscape:window-x="1920"
     inkscape:window-y="0"
     inkscape:window-maximized="0"
     inkscape:current-layer="svg200" /><g
     id="g428"
     transform="matrix(7.7877829,0,0,7.7877829,0,403.76617)"><path
       fill-rule="evenodd"
       clip-rule="evenodd"
       d="m 67.6553,5.57227 c 1.5412,0 2.9474,0.37663 4.206,1.13574 1.2495,0.75362 2.2426,1.77671 2.9746,3.06152 0.7382,1.27677 1.1035,2.70867 1.1036,4.28227 0,1.554 -0.3658,2.9819 -1.0997,4.2734 l 0.001,0.001 c -0.7139,1.289 -1.6995,2.3153 -2.9512,3.0703 -1.2606,0.7604 -2.6866,1.1357 -4.2626,1.1357 -1.106,0 -2.1423,-0.1981 -3.1036,-0.5986 l -0.0117,-0.005 c -0.2645,-0.1182 -0.5144,-0.2547 -0.7519,-0.4033 v 6.2705 H 58.5596 V 5.9081 h 4.9199 V 6.84463 C 63.7751,6.62429 64.0965,6.43046 64.4434,6.26455 65.3975,5.79848 66.472,5.57218 67.6553,5.57217 Z M 65.1074,17.7207 c 0.0746,0.0443 0.1506,0.0853 0.2276,0.124 z m 2.0156,-7.3691 c -0.6613,0 -1.2429,0.1548 -1.7558,0.458 l 0.001,9e-4 c -0.4975,0.305 -0.894,0.7313 -1.1905,1.2911 -0.2742,0.5527 -0.4179,1.1989 -0.4179,1.9502 0,0.7511 0.1438,1.3974 0.4179,1.9502 l 0.1153,0.2041 c 0.2801,0.4588 0.6366,0.8174 1.0693,1.0839 0.5142,0.3054 1.0971,0.4619 1.7607,0.462 0.706,0 1.3069,-0.1588 1.8174,-0.462 0.5154,-0.306 0.9185,-0.7319 1.2129,-1.288 0.2926,-0.5528 0.4463,-1.1987 0.4463,-1.9502 -10e-5,-0.7517 -0.1539,-1.3853 -0.4434,-1.9161 l -0.0029,-0.006 c -0.2944,-0.5561 -0.6975,-0.9821 -1.2129,-1.2881 l -0.0097,-0.006 C 68.4216,10.5175 67.8242,10.3513 67.123,10.3513 Z m 4.4805,-3.21488 c 0.0877,0.0529 0.1738,0.1074 0.2588,0.16308 -0.0138,-0.009 -0.0271,-0.0193 -0.041,-0.0283 L 71.6035,7.13674 c -0.0714,-0.043 -0.1433,-0.0856 -0.2158,-0.12598 z"
       fill="#A78BFA"
       id="path478"
       style="fill:#a78bfa;fill-opacity:1" /><path
       d="m 14,7.69629 c 1.6569,0 3,1.34314 3,3.00001 v 9 c 0,1.6568 -1.3431,3 -3,3 H 3 c -1.65685,0 -2.999999,-1.3432 -3,-3 v -9 C 0,9.03943 1.34315,7.69629 3,7.69629 Z"
       fill="#A78BFA"
       id="path480"
       style="fill:#a78bfa;fill-opacity:1" /><path
       fill-rule="evenodd"
       clip-rule="evenodd"
       d="m 33.1221,5.57227 c 1.1971,1e-5 2.3164,0.20599 3.3515,0.62402 1.0287,0.41547 1.9166,1.00256 2.6573,1.76172 0.7488,0.74882 1.2861,1.64096 1.6084,2.66799 l 0.1347,0.4306 -4.5508,1.96 -0.1748,-0.5107 C 35.9197,11.836 35.5341,11.3172 34.9893,10.9326 l -0.0059,-0.004 c -0.5236,-0.3807 -1.1371,-0.5771 -1.8613,-0.5771 -0.64,0 -1.1997,0.1547 -1.6924,0.455 l -0.1758,0.1202 c -0.3977,0.2911 -0.7287,0.6754 -0.9893,1.164 -0.2774,0.555 -0.4227,1.2052 -0.4228,1.961 0,0.7546 0.1453,1.4035 0.4219,1.958 0.298,0.5602 0.6872,0.9842 1.165,1.2871 0.493,0.3008 1.053,0.4551 1.6934,0.4551 0.7456,-10e-5 1.3679,-0.1969 1.8896,-0.5762 0.5273,-0.3836 0.9065,-0.9031 1.1367,-1.5772 l 0.1758,-0.5146 0.4981,0.2178 4.0507,1.7763 -0.1337,0.4268 c -0.3047,0.975 -0.8329,1.846 -1.5752,2.6084 -0.74,0.7599 -1.6275,1.3561 -2.6553,1.791 l -0.0078,0.003 c -1.0361,0.4184 -2.1643,0.625 -3.3789,0.625 -1.6089,0 -3.0759,-0.3636 -4.3887,-1.0996 l -0.0078,-0.005 c -1.2863,-0.752 -2.318,-1.7737 -3.0889,-3.0586 l -0.0029,-0.005 c -0.757,-1.2953 -1.1318,-2.7468 -1.1318,-4.3399 0,-1.494 0.3293,-2.8563 0.996,-4.0742 L 25.6357,9.70868 C 26.3901,8.41947 27.4251,7.405 28.7334,6.67158 30.0462,5.93561 31.5132,5.57197 33.1221,5.57197 Z m -1.96,12.14843 c 0.0604,0.037 0.1226,0.0704 0.1846,0.1035 z m -1.5527,-5.3594 10e-4,10e-4 c 0.0298,-0.0854 0.0618,-0.1695 0.0966,-0.2519 -0.0347,0.0821 -0.0679,0.1658 -0.0976,0.2509 z m 6.6767,-5.70114 -0.3213,-0.1211 c -0.0067,-0.002 -0.0137,-0.004 -0.0205,-0.007 0.115,0.0402 0.2292,0.0824 0.3418,0.12793 z"
       fill="#A78BFA"
       id="path482"
       style="fill:#a78bfa;fill-opacity:1" /><path
       fill-rule="evenodd"
       clip-rule="evenodd"
       d="m 49.4268,5.57227 c 1.3487,0 2.563,0.24387 3.6298,0.74707 1.0615,0.50067 1.8998,1.21019 2.4961,2.13086 l 0.1123,0.17285 c 0.5466,0.8735 0.8145,1.87705 0.8145,2.99315 v 10.5801 h -4.9199 v -0.8545 c -0.5188,0.3649 -1.0877,0.643 -1.7061,0.832 l -10e-4,-9e-4 c -0.7271,0.2407 -1.5238,0.3593 -2.3857,0.3593 -1.1536,0 -2.1774,-0.1862 -3.0576,-0.5752 -0.8794,-0.3886 -1.575,-0.9511 -2.0635,-1.6943 l -0.0039,-0.006 c -0.4877,-0.7635 -0.7226,-1.6531 -0.7227,-2.6484 10e-5,-0.9373 0.215,-1.785 0.6592,-2.5254 0.4447,-0.7599 1.1131,-1.3769 1.9776,-1.8594 l 0.0039,-0.003 c 0.5761,-0.3142 1.2336,-0.5634 1.9677,-0.7529 l -4.1963,-1.9922 0.1475,-0.4238 c 0.3247,-0.93352 0.8452,-1.73938 1.5576,-2.41118 0.7065,-0.66611 1.5499,-1.1769 2.5225,-1.53417 0.9755,-0.35833 2.0332,-0.53414 3.168,-0.53418 z M 44.8799,21.6104 c 0.0064,0.002 0.0131,0.004 0.0195,0.007 -0.0981,-0.0367 -0.1941,-0.0757 -0.2881,-0.1172 z m 2.1113,-3.0499 c 0.0335,0.0247 0.0685,0.047 0.1035,0.0694 L 46.9912,18.5605 C 46.9469,18.5279 46.905,18.4929 46.8662,18.457 Z m 1.4043,-2.3359 -10e-4,-10e-4 c -0.5425,0.1023 -0.903,0.2725 -1.1289,0.4717 l -0.0058,0.005 -0.0069,0.006 c -0.176,0.145 -0.2938,0.3704 -0.2939,0.7617 0,0.3187 0.111,0.5287 0.3291,0.6894 0.2536,0.1868 0.5832,0.2949 1.0195,0.2949 0.6163,0 1.1349,-0.1325 1.5713,-0.3818 0.4469,-0.2554 0.782,-0.5922 1.0156,-1.0127 l 0.003,-0.006 c 0.2353,-0.412 0.3603,-0.8571 0.3779,-1.3418 z m -1.665,-3.3633 c -0.0085,0.002 -0.017,0.004 -0.0254,0.006 0.1308,-0.0292 0.2642,-0.0574 0.4004,-0.083 z m 2.5009,-2.789 c -0.6472,0 -1.2075,0.1746 -1.6962,0.5205 -0.4786,0.3518 -0.8299,0.8149 -1.0577,1.4004 l -0.1787,0.458 c 0.231,-0.058 0.469,-0.1119 0.7149,-0.1582 l 0.4619,-0.0791 3.8027,-0.6153 C 51.2739,11.1844 51.1131,10.8415 50.7578,10.543 L 50.75,10.536 c -0.3312,-0.2897 -0.8169,-0.4638 -1.5186,-0.4638 z m 6.7344,1.1377 c 0.0088,0.1332 0.0137,0.2686 0.0137,0.4062 L 55.9658,11.21 C 55.957,11.0766 55.9443,10.9454 55.9268,10.8164 Z M 47.9297,9.8125 c -0.0802,0.0321 -0.1588,0.068 -0.2363,0.10645 L 47.9297,9.8125 c 0.0801,-0.032 0.1614,-0.0603 0.2441,-0.0859 z M 52.8428,6.77246 52.5127,6.62793 c -0.0072,-0.003 -0.0143,-0.006 -0.0215,-0.009 0.1192,0.048 0.2364,0.099 0.3516,0.15332 z"
       fill="#A78BFA"
       id="path484"
       style="fill:#a78bfa;fill-opacity:1" /><path
       fill-rule="evenodd"
       clip-rule="evenodd"
       d="m 83.5273,5.57227 c 1.5716,2e-5 2.9701,0.37359 4.1778,1.13574 1.237,0.75032 2.114,1.82165 2.6191,3.19531 L 90.4824,10.334 86.459,12.2188 86.2754,11.6982 C 86.0909,11.1758 85.756,10.7606 85.25,10.4443 l -0.0078,-0.005 -0.0078,-0.006 c -0.49,-0.3318 -1.0535,-0.50193 -1.7071,-0.50196 -0.4742,0 -0.7903,0.0977 -0.9961,0.24126 -0.1605,0.1232 -0.2401,0.2795 -0.2402,0.5195 1e-4,0.1081 0.0279,0.198 0.084,0.2822 0.0527,0.079 0.1566,0.1777 0.3496,0.2822 0.2273,0.1128 0.5129,0.2233 0.8623,0.3282 l 2.4356,0.7275 c 1.3301,0.3914 2.3895,1.0008 3.1396,1.8525 0.7628,0.8476 1.1367,1.8956 1.1367,3.1075 -1e-4,1.0452 -0.278,1.9795 -0.8476,2.7812 l -0.001,-0.001 c -0.5416,0.7887 -1.2943,1.4015 -2.2393,1.8438 l -0.0078,0.004 c -0.955,0.4267 -2.0633,0.6318 -3.3115,0.6318 -1.7606,0 -3.3213,-0.4124 -4.6621,-1.2529 l -0.0068,-0.004 c -1.3228,-0.8618 -2.2366,-2.026 -2.7217,-3.4815 l -0.1406,-0.4209 3.9316,-1.8584 0.2148,0.4502 c 0.3589,0.7518 0.837,1.3247 1.4297,1.7364 0.5879,0.4082 1.2353,0.6103 1.9551,0.6103 0.5392,0 0.8721,-0.1106 1.0684,-0.2607 0.1829,-0.1401 0.2792,-0.3238 0.2793,-0.6104 -1e-4,-0.1379 -0.0335,-0.2142 -0.0684,-0.2607 L 85.1631,17.1686 85.1553,17.1569 C 85.0957,17.0677 84.9914,16.9667 84.8154,16.864 84.6388,16.7609 84.4013,16.6633 84.0938,16.5778 l -0.001,-0.001 -2.6045,-0.7275 -0.002,-10e-4 C 80.1658,15.4738 79.11,14.8608 78.3594,13.9851 l -0.0039,-0.004 c -0.75,-0.8959 -1.124,-1.9538 -1.1241,-3.1494 1e-4,-1.04133 0.2672,-1.97308 0.8155,-2.77438 0.5434,-0.79404 1.3008,-1.40115 2.2519,-1.82617 0.9525,-0.44426 2.0326,-0.65918 3.2285,-0.65918 z m 0.1182,13.23043 c 0.0813,0.006 0.1633,0.01 0.2461,0.01 z m -3.5898,-2.622 c 0.0488,0.1024 0.1002,0.2019 0.1533,0.2988 z m 9.7431,1.0918 -0.0039,-0.2041 c -7e-4,-0.0196 -0.0019,-0.0392 -0.0029,-0.0586 0.0043,0.0863 0.0068,0.174 0.0068,0.2627 z M 87.4473,7.13672 c 0.096,0.0582 0.189,0.11934 0.2802,0.18164 -0.0236,-0.0162 -0.0463,-0.0339 -0.0703,-0.0498 L 87.4473,7.13673 c -0.068,-0.043 -0.1367,-0.0856 -0.2061,-0.12598 z"
       fill="#A78BFA"
       id="path486"
       style="fill:#a78bfa;fill-opacity:1" /><path
       fill-rule="evenodd"
       clip-rule="evenodd"
       d="m 96.7012,15.3398 c 0,0.5063 0.0968,0.9365 0.2763,1.3018 0.1975,0.3463 0.466,0.6151 0.8135,0.8115 0.347,0.1962 0.7464,0.2988 1.21,0.2989 0.4862,0 0.881,-0.1043 1.202,-0.294 l 0.008,-0.005 c 0.347,-0.196 0.605,-0.4626 0.783,-0.8047 l 0.004,-0.007 c 0.198,-0.3653 0.304,-0.7951 0.304,-1.3018 V 5.9079 h 5.199 V 22.196 h -4.92 v -0.917 c -0.231,0.2063 -0.487,0.3884 -0.768,0.5449 l -0.003,0.002 c -0.8708,0.4766 -1.8804,0.706 -3.0121,0.706 -1.3033,0 -2.4508,-0.2772 -3.42,-0.8545 l -0.0117,-0.007 C 93.4243,21.0763 92.7076,20.2548 92.2207,19.2202 91.7357,18.1894 91.501,17.0031 91.501,15.6753 V 5.9077 h 5.2002 z"
       fill="#A78BFA"
       id="path488"
       style="fill:#a78bfa;fill-opacity:1" /><path
       fill-rule="evenodd"
       clip-rule="evenodd"
       d="m 123.429,5.57227 c 1.263,2e-5 2.401,0.20334 3.404,0.62304 0.998,0.39907 1.847,0.97306 2.536,1.72266 0.698,0.73918 1.226,1.59725 1.584,2.57033 l 0.126,0.3633 c 0.274,0.8559 0.409,1.7746 0.409,2.7519 0,0.3096 -0.02,0.6196 -0.057,0.9287 l 10e-4,0.001 c -0.021,0.3141 -0.075,0.6053 -0.169,0.8652 l -0.12,0.3291 h -10.446 c 0.04,0.1372 0.085,0.2694 0.139,0.3955 0.242,0.5637 0.606,0.9971 1.097,1.3145 0.483,0.2946 1.087,0.4541 1.832,0.4541 0.68,0 1.225,-0.1356 1.656,-0.3818 l 0.006,-0.004 c 0.463,-0.2556 0.815,-0.6014 1.067,-1.042 l 0.231,-0.4024 0.418,0.1992 3.784,1.7969 -0.174,0.4365 c -0.33,0.8245 -0.855,1.5399 -1.563,2.1475 l 0.001,10e-4 c -0.686,0.6055 -1.498,1.0746 -2.428,1.4111 l -0.009,0.004 c -0.935,0.3184 -1.952,0.4746 -3.045,0.4746 -1.698,0 -3.199,-0.3723 -4.483,-1.1347 l -0.005,-0.003 c -1.269,-0.7734 -2.256,-1.8089 -2.952,-3.1015 -0.696,-1.2911 -1.04,-2.7174 -1.04,-4.2686 0,-1.6062 0.353,-3.0561 1.072,-4.33397 l 0.143,-0.23926 c 0.716,-1.15645 1.653,-2.08312 2.808,-2.77246 1.241,-0.74056 2.638,-1.10644 4.177,-1.10644 z m 0.336,12.82033 -0.303,-0.009 c 0.099,0.006 0.2,0.009 0.303,0.009 z m -3.555,-6.3145 c -0.006,0.0232 -0.009,0.0469 -0.015,0.0703 0.027,-0.1203 0.057,-0.2374 0.091,-0.3505 z m 3.219,-2.14646 c -0.644,0 -1.168,0.15606 -1.596,0.44626 -0.409,0.2779 -0.734,0.6918 -0.964,1.2705 h 5.057 c -0.002,-0.005 -0.003,-0.01 -0.004,-0.0146 l -10e-4,-0.004 c -0.173,-0.535 -0.472,-0.9362 -0.898,-1.2246 l -0.007,-0.005 -0.009,-0.007 c -0.402,-0.298 -0.918,-0.46193 -1.578,-0.46196 z m 5.572,-1.67578 -0.214,-0.2207 c -0.006,-0.006 -0.013,-0.0123 -0.019,-0.0186 0.079,0.0777 0.157,0.1571 0.233,0.23926 z"
       fill="#A78BFA"
       id="path490"
       style="fill:#a78bfa;fill-opacity:1" /><path
       d="m 113.771,22.1963 h -5.2 V 0 h 5.2 z"
       fill="#A78BFA"
       id="path492"
       style="fill:#a78bfa;fill-opacity:1" /><path
       d="m 12.749287,4.62783 c 1.280117,0 2.317793,1.03771 2.317793,2.3178 l 10e-7,0.10413 H 12.749287 4.250713 1.93292 V 6.94563 c 0,-1.28009 1.037714,-2.3178 2.317793,-2.3178 z"
       fill="#A78BFA"
       id="path494"
       style="fill:#a78bfa;fill-opacity:1;stroke-width:0.772599"
       sodipodi:nodetypes="ssccccsss" /></g></svg>
